<?xml version="1.0" standalone="no"?>
<!DOCTYPE svg PUBLIC "-//W3C//DTD SVG 20010904//EN"
 "http://www.w3.org/TR/2001/REC-SVG-20010904/DTD/svg10.dtd">
<svg version="1.0" xmlns="http://www.w3.org/2000/svg"
 width="320.000000pt" height="320.000000pt" viewBox="0 0 320.000000 320.000000"
 preserveAspectRatio="xMidYMid meet">
<metadata>
Created by potrace 1.11, written by Peter Selinger 2001-2013
</metadata>
<g transform="translate(0.000000,320.000000) scale(0.100000,-0.100000)"
fill="#000000" stroke="none">
<path d="M0 1600 l0 -1600 1600 0 1600 0 0 1600 0 1600 -1600 0 -1600 0 0
-1600z m2400 1095 c82 -20 233 -93 285 -138 l40 -35 -39 -80 c-22 -45 -50 -94
-62 -109 -32 -41 -83 -37 -170 15 -38 22 -98 50 -134 62 -138 46 -319 8 -374
-78 -59 -92 -58 -177 2 -244 46 -51 133 -94 297 -148 256 -84 387 -165 454
-284 112 -195 59 -502 -115 -671 -233 -227 -677 -231 -989 -10 -33 23 -68 52
-79 63 -18 21 -18 22 29 101 53 91 94 131 134 131 15 0 61 -22 106 -50 103
-65 146 -86 220 -105 154 -40 322 7 383 107 31 50 46 145 32 196 -13 51 -58
104 -116 138 -24 14 -124 52 -223 84 -99 32 -204 70 -233 85 -127 64 -205 148
-249 270 -32 90 -33 255 -1 348 64 184 231 324 434 363 89 17 274 11 368 -11z
m-1130 -652 c0 -612 -2 -665 -20 -752 -67 -328 -296 -498 -645 -477 -60 3
-135 12 -165 19 l-55 13 3 89 c6 178 22 196 152 177 144 -21 262 16 316 98 59
89 58 74 62 813 l3 677 175 0 174 0 0 -657z m1560 -1583 l0 -70 -1247 2 -1248
3 -3 68 -3 67 1251 0 1250 0 0 -70z"/>
</g>
</svg>
