<?xml version="1.0" standalone="no"?>
<!DOCTYPE svg PUBLIC "-//W3C//DTD SVG 1.1//EN" "http://www.w3.org/Graphics/SVG/1.1/DTD/svg11.dtd" >
<svg xmlns="http://www.w3.org/2000/svg" xmlns:xlink="http://www.w3.org/1999/xlink" version="1.1">
<metadata>
Created by FontForge 20170731 at Wed Jan 20 19:29:03 2021
 By Aleksey,,,
Copyright (c) 2019 by Abbie Gonzalez. All rights reserved.
</metadata>
<defs>
<font id="OpenDyslexic-Bold-Italic" horiz-adv-x="1241" >
  <font-face 
    font-family="OpenDyslexic"
    font-weight="800"
    font-style="italic"
    font-stretch="normal"
    units-per-em="2048"
    panose-1="0 0 9 0 0 0 0 0 0 0"
    ascent="1638"
    descent="-410"
    x-height="1176"
    cap-height="1548"
    bbox="-2308 -1262 6105 3273"
    underline-thickness="102"
    underline-position="-307"
    slope="-15"
    unicode-range="U+0020-FB06"
  />
<missing-glyph horiz-adv-x="1863" 
d="M1528 2662v-3727h-1182v3727h1182zM1241 2413h-614v-123h241v-138h-245v-122h618v122h-246v138h246v123zM995 1931h-372v-387h618v127h-246v260zM868 1804v-133h-123v133h123zM1241 1444h-618v-123h245v-139h-245v-123h372v262h246v123zM1241 1221h-123v-246h-495v-127
h618v373zM1241 766h-373v-209h127v86h123v-176h-373v299h-122v-422h618v422zM1241 121h-618v-422h618v422zM1118 -2v-176h-373v176h373zM1241 -387h-618v-123h260l-260 -174v-123h618v123h-381l262 174h119v123z" />
    <glyph glyph-name="fi" unicode="fi" horiz-adv-x="1826" 
d="M1044 1688h222l-70 -269h-223q-37 0 -66 -24.5t-47 -64.5t-28 -77.5t-15 -76.5h332l-78 -293h-295l-219 -883h-385l283 883h-166l78 293h168q81 281 194 393.5t315 118.5zM1477 1272l106 344h272l-77 -344h-301zM1090 4q8 115 47.5 227t89.5 204.5t99 189t82.5 218
t33.5 253.5h278q2 -131 -27.5 -254t-70.5 -217.5t-81 -188.5t-62 -205t-11 -227h-378z" />
    <glyph glyph-name="fl" unicode="fl" horiz-adv-x="2084" 
d="M1044 1688h222l-70 -269h-223q-37 0 -66 -24.5t-47 -64.5t-28 -77.5t-15 -76.5h332l-78 -293h-295l-219 -883h-385l283 883h-166l78 293h168q81 281 194 393.5t315 118.5zM1112 0q15 115 103.5 373t226.5 640.5t221 647.5h309q-85 -213 -156 -399t-160.5 -435
t-125 -396.5t-0.5 -147.5h237l-41 -283h-614z" />
    <glyph glyph-name="f_f" unicode="ff" horiz-adv-x="2301" 
d="M2071 1417q-37 0 -66 -24.5t-47 -64.5t-28 -77.5t-15 -76.5h332l-78 -293h-295l-219 -883h-385l282 883h-166v2h-579l-219 -883h-385l282 883h-166l78 293h168v2q81 280 194.5 392t315.5 118h221l-69 -269h-223q-37 0 -66 -24t-47 -63.5t-28 -77t-15 -76.5l784 -2
q81 280 194.5 392t315.5 118h221l-69 -269h-223z" />
    <glyph glyph-name="f_f_i" unicode="ffi" horiz-adv-x="2955" 
d="M2247 1174l-78 -293h-295l-219 -883h-385l282 883h-166v2h-579l-219 -883h-385l282 883h-166l78 293h168v2q81 280 194.5 392t315.5 118h221l-69 -269h-223q-37 0 -66 -24t-47 -63.5t-28 -77t-15 -76.5l784 -2q81 280 194.5 392t315.5 118h221l-69 -269h-223
q-37 0 -66 -24.5t-47 -64.5t-28 -77.5t-15 -76.5h332zM2681 1614h272l-78 -344h-301zM2818 1094q2 -131 -27.5 -254t-70.5 -217.5t-81 -188.5t-62 -205t-11 -227h-379q8 115 47.5 227t89.5 204.5t99.5 189t83 218t33.5 253.5h278z" />
    <glyph glyph-name="f_f_l" unicode="ffl" horiz-adv-x="3213" 
d="M2247 1174l-78 -293h-295l-219 -883h-385l282 883h-166v2h-579l-219 -883h-385l282 883h-166l78 293h168v2q81 280 194.5 392t315.5 118h221l-69 -269h-223q-37 0 -66 -24t-47 -63.5t-28 -77t-15 -76.5l784 -2q81 280 194.5 392t315.5 118h221l-69 -269h-223
q-37 0 -66 -24.5t-47 -64.5t-28 -77.5t-15 -76.5h332zM3070 1659q-85 -213 -156 -399t-160.5 -435t-125 -396.5t-0.5 -147.5h237l-41 -283h-614q15 115 103.5 373t226.5 640.5t221 647.5h309z" />
    <glyph glyph-name=".notdef" horiz-adv-x="1863" 
d="M1528 2662v-3727h-1182v3727h1182zM1241 2413h-614v-123h241v-138h-245v-122h618v122h-246v138h246v123zM995 1931h-372v-387h618v127h-246v260zM868 1804v-133h-123v133h123zM1241 1444h-618v-123h245v-139h-245v-123h372v262h246v123zM1241 1221h-123v-246h-495v-127
h618v373zM1241 766h-373v-209h127v86h123v-176h-373v299h-122v-422h618v422zM1241 121h-618v-422h618v422zM1118 -2v-176h-373v176h373zM1241 -387h-618v-123h260l-260 -174v-123h618v123h-381l262 174h119v123z" />
    <glyph glyph-name=".null" horiz-adv-x="0" 
 />
    <glyph glyph-name="nonmarkingreturn" horiz-adv-x="682" 
 />
    <glyph glyph-name="space" unicode=" " horiz-adv-x="1773" 
 />
    <glyph glyph-name="exclam" unicode="!" horiz-adv-x="696" 
d="M59 625l566 1755h356l-403 -1630zM-18 487h540l-139 -532h-543z" />
    <glyph glyph-name="quotedbl" unicode="&#x22;" horiz-adv-x="1417" 
d="M203 1229l-88 362h493l-10 -270l137 -428h-452l-72 299h-10zM743 1229l-88 362h494l-10 -270l137 -428h-453l-71 299h-11z" />
    <glyph glyph-name="numbersign" unicode="#" horiz-adv-x="2146" 
d="M2316 942h-561l-137 -387h631l-162 -287h-569l-148 -413h-375l166 413h-266l-147 -418h-402l174 418h-471l201 287h391l160 387h-510l164 287h467l200 481h285l-170 -481h309l195 485h289l-172 -485h634zM1276 555l156 387h-297l-138 -387h279z" />
    <glyph glyph-name="dollar" unicode="$" horiz-adv-x="2318" 
d="M1450 973q317 -58 450 -191.5t87 -335.5q-23 -103 -90.5 -188t-156 -140.5t-201 -96t-217 -61.5t-212.5 -30l-41 -196l-256 -13l43 205q-176 16 -335 86t-322 191l391 319q19 -35 125.5 -98.5t222.5 -106.5l80 383q-475 119 -363 490q54 169 201 284.5t361 167.5l65 312
l256 14l-61 -291q25 2 73 2q147 0 256 -14t289 -53l-256 -266q-36 8 -79.5 19t-58.5 14.5t-54.5 9.5t-66 3.5t-93.5 -3.5q-12 -1 -36 -2.5t-36 -2.5l-82 -391zM1012 1202q-15 -76 84 -135l55 264q-127 -49 -139 -129zM1534 463q16 64 -46 111t-226 79l-80 -383
q66 5 136.5 24.5t136 64.5t79.5 104z" />
    <glyph glyph-name="percent" unicode="%" horiz-adv-x="1656" 
d="M1573 1595h260l-1464 -1742h-342zM664 827q-159 0 -222 92t-18 265q44 169 163.5 268.5t276.5 99.5q155 0 220.5 -99.5t21.5 -268.5q-45 -172 -163 -264.5t-279 -92.5zM731 1057q29 0 50.5 2.5t45.5 11t41.5 24t33.5 43t26 66.5q26 93 -3 148t-102 55q-70 0 -125.5 -54.5
t-85.5 -148.5q-27 -89 -1.5 -118t120.5 -29zM1159 57q-159 0 -221.5 91.5t-17.5 265.5q44 169 163.5 268.5t276.5 99.5q155 0 220.5 -99.5t21.5 -268.5q-45 -172 -163.5 -264.5t-279.5 -92.5zM1227 287q29 0 50.5 2.5t45.5 11t41 24t33 43t26 66.5q26 93 -2.5 148t-101.5 55
q-70 0 -125.5 -54.5t-85.5 -148.5q-27 -89 -1.5 -118t120.5 -29z" />
    <glyph glyph-name="ampersand" unicode="&#x26;" horiz-adv-x="1656" 
d="M1475 285q82 -95 102 -115q-36 -34 -56 -52.5t-31 -28.5t-42.5 -38t-71.5 -63l-119 131q-196 -121 -303 -131q-149 -56 -317 -56q-185 0 -352 148q-46 41 -66 148t2 192q39 138 125.5 245t239.5 201l-54 60q-75 83 -66.5 191.5t97.5 221.5q60 74 179 127.5t251 65.5
q328 30 412 -152q32 -74 29 -132t-43 -132q-70 -127 -306 -262q-46 -26 -71 -41l301 -346q104 97 121 242h297q-24 -208 -258 -424zM979 1348q-88 -3 -163.5 -32t-108 -68.5t-5.5 -71.5q27 -34 146 -170q16 8 51.5 25t52 25t46.5 23t45 24l37.5 22.5t34 24t25 23.5t21 25
t10.5 25q15 56 -38.5 92t-153.5 33zM856 285q93 0 217 39l-311 346q-86 -60 -121.5 -126t-13.5 -159q11 -43 75 -71.5t154 -28.5z" />
    <glyph glyph-name="quotesingle" unicode="'" horiz-adv-x="1181" 
d="M705 1229l-89 362h494l-10 -270l137 -428h-453l-71 299h-11z" />
    <glyph glyph-name="parenleft" unicode="(" horiz-adv-x="903" 
d="M555 -471l-330 25q-27 189 -19.5 438t44.5 487q13 251 224 590t538 643l270 -31q-292 -316 -448.5 -550.5t-217.5 -430.5q-137 -605 -61 -1171z" />
    <glyph glyph-name="parenright" unicode=")" horiz-adv-x="903" 
d="M348 -471q76 566 -61 1171q-61 196 -217.5 430.5t-448.5 550.5l270 31q327 -304 538 -643t224 -590q37 -238 44.5 -487t-19.5 -438z" />
    <glyph glyph-name="asterisk" unicode="*" horiz-adv-x="1312" 
d="M676 516l88 330l-309 -207l-101 240l353 165l-312 136l226 239l239 -172l43 279l287 59l-90 -340l426 234l-31 -262l-334 -156l324 -139l-236 -236l-241 172l-45 -283z" />
    <glyph glyph-name="plus" unicode="+" horiz-adv-x="1282" 
d="M1360 696l-72 -262l-358 2l-105 -387h-284l104 389l-418 2l70 262l418 -2l108 404h285l-109 -406z" />
    <glyph glyph-name="comma" unicode="," horiz-adv-x="663" 
d="M539 -35l-11 -37h-10l-166 -299h-452l272 428l74 271h493z" />
    <glyph glyph-name="hyphen" unicode="-" horiz-adv-x="1140" 
d="M178 721h922l-58 -215h-921z" />
    <glyph glyph-name="period" unicode="." horiz-adv-x="540" 
d="M10 424h434l-112 -428h-436z" />
    <glyph glyph-name="slash" unicode="/" horiz-adv-x="1050" 
d="M-51 -422l1087 1868l367 164l-920 -1708z" />
    <glyph glyph-name="zero" unicode="0" horiz-adv-x="1374" 
d="M668 -84q-279 0 -372 216.5t13 612.5q107 400 315.5 615t489.5 215q280 0 369 -213t-19 -617q-107 -402 -312 -615.5t-484 -213.5zM797 397q122 0 214.5 113.5t184.5 380.5q132 493 -133 493q-129 0 -224.5 -120t-162.5 -373q-70 -259 -40 -376.5t161 -117.5zM854 602
q-77 0 -104 67t2 171q78 290 243 290q86 0 104 -75t-22 -215q-29 -107 -88 -172.5t-135 -65.5z" />
    <glyph glyph-name="one" unicode="1" horiz-adv-x="1200" 
d="M94 -55l105 389l288 8l279 872l-297 -137l121 318q293 153 393 153h180l-321 -1204l338 -10l-105 -389h-981z" />
    <glyph glyph-name="two" unicode="2" horiz-adv-x="1320" 
d="M84 -55l156 350q29 67 115.5 133.5t281.5 173.5q188 103 285 183.5t170 172.5q48 63 65 123q26 97 -25.5 155t-166.5 58q-90 0 -207 -36.5t-330 -129.5l109 330q309 117 499 117q258 0 378.5 -131.5t62.5 -349.5q-35 -128 -54 -174q-64 -149 -246 -321
q-119 -113 -303 -253h404l-76 -401h-1118z" />
    <glyph glyph-name="three" unicode="3" horiz-adv-x="1323" 
d="M1042 1575q255 0 375 -120t66 -322q-30 -108 -95 -182t-180 -126q110 -42 139.5 -132.5t-12.5 -237.5q-69 -261 -272.5 -400t-515.5 -139q-213 0 -449 94l219 363q396 -37 364 -42q-3 -1 -11 -1q119 0 187 15t102.5 47t50.5 91q25 90 -39 146.5t-191 56.5h-262l80 176h4
l45 94h244q151 0 230.5 45.5t107.5 145.5q22 85 -49.5 134.5t-221.5 49.5q-82 0 -188.5 -19t-298.5 -67l143 260q160 41 248.5 55.5t179.5 14.5z" />
    <glyph glyph-name="four" unicode="4" horiz-adv-x="1478" 
d="M1550 1554l-192 -876l194 6l-86 -324l-176 5l-92 -420h-397l137 430l-770 18l244 258h4l893 891l227 14h16zM711 659l321 11l160 501z" />
    <glyph glyph-name="five" unicode="5" horiz-adv-x="1306" 
d="M541 -84q-213 0 -443 82l221 461q127 -80 187 -101.5t164 -21.5q120 0 208.5 49t108.5 125q10 38 11 67t-3.5 49t-20.5 33.5t-32 21t-45.5 11.5t-54.5 5t-66 1q-147 0 -467 -39l273 877l921 12l-59 -260h-668l-69 -319h147q277 0 404.5 -132.5t66.5 -357.5
q-71 -264 -278.5 -413.5t-505.5 -149.5z" />
    <glyph glyph-name="six" unicode="6" horiz-adv-x="1374" 
d="M1149 1305q-169 0 -276.5 -79.5t-178.5 -252.5q129 69 301 69q251 0 359 -152.5t39 -410.5q-67 -253 -264 -408t-449 -155q-285 0 -381 216t10 613q67 249 201 437t316 290.5t386 102.5h375l-74 -270h-364zM909 772q-113 0 -197.5 -77.5t-121.5 -215.5q-22 -82 31.5 -134
t160.5 -52t189 52t104 134q37 138 -7 215.5t-159 77.5z" />
    <glyph glyph-name="seven" unicode="7" horiz-adv-x="1298" 
d="M1606 1518h2l-15 -31l-651 -1542h-479l725 1317l-735 28l79 256l992 -26l84 2z" />
    <glyph glyph-name="eight" unicode="8" horiz-adv-x="1406" 
d="M1524 1133q-58 -217 -242 -332q92 -66 126 -163.5t1 -217.5q-63 -235 -257.5 -369.5t-471.5 -134.5q-276 0 -399 135t-60 369q33 120 119.5 218t212.5 163q-122 116 -64 332q52 193 223 307t408 114q236 0 346 -114t58 -307zM795 1174q-28 -101 17 -162.5t146 -61.5
q99 0 178 62.5t105 161.5q20 77 -28.5 124.5t-149.5 47.5t-174.5 -47.5t-93.5 -124.5zM1077 440q31 112 -19 173t-173 61q-125 0 -208 -61t-112 -173q-15 -55 47 -92t176 -37q109 0 192 38t97 91z" />
    <glyph glyph-name="nine" unicode="9" horiz-adv-x="1372" 
d="M1090 1575q305 0 396 -203t-24 -627q-45 -167 -98 -296t-104 -216t-119.5 -147t-125.5 -93t-141 -50t-146.5 -21t-160.5 -4q-181 0 -399 51l170 387q85 -24 203 -41.5t194 -17.5q57 0 86.5 1t67.5 6.5t58.5 17t45 33t42 53t36.5 77.5q-136 -34 -295 -34
q-249 0 -356.5 152.5t-38.5 408.5q67 253 262.5 408t446.5 155zM1237 1044q40 148 -16 220.5t-211 72.5q-146 0 -248 -77.5t-139 -215.5q-37 -141 19 -215.5t200 -74.5q166 0 260.5 69t134.5 221z" />
    <glyph glyph-name="colon" unicode=":" horiz-adv-x="686" 
d="M311 1343h477l-124 -471h-480zM74 463h477l-125 -471h-479z" />
    <glyph glyph-name="semicolon" unicode=";" horiz-adv-x="856" 
d="M350 1237h477l-125 -471h-479zM487 -35l-10 -37h-10l-166 -299h-453l273 428l74 271h493z" />
    <glyph glyph-name="less" unicode="&#x3c;" horiz-adv-x="1603" 
d="M53 408l-55 -31l-16 49l-117 33l90 47l-72 217l1211 596l94 -297l-754 -408l991 -249l99 -363z" />
    <glyph glyph-name="equal" unicode="=" horiz-adv-x="1251" 
d="M426 881l887 53l28 -268l-1097 -41zM303 420l887 53l29 -268l-1098 -41z" />
    <glyph glyph-name="greater" unicode="&#x3e;" horiz-adv-x="1665" 
d="M1653 426l-17 -49l-55 31l-1470 -406l98 363l991 249l-754 408l95 297l1210 -596l-72 -217l90 -47z" />
    <glyph glyph-name="question" unicode="?" horiz-adv-x="1781" 
d="M1503 2179q130 -88 176.5 -265t-12.5 -360q-59 -184 -237 -378.5t-345 -262.5q-61 -263 -77 -338v-4q-10 -38 -93.5 -56t-197.5 -23.5t-129 -8.5q11 37 82 342q14 59 32.5 141.5t30.5 131.5l39 41q442 114 557 442q43 125 29.5 195.5t-88.5 124.5q-251 181 -533 -115
q-8 17 -20 40.5t-15 30.5t-11 21.5t-11 19.5t-11.5 18t-16 23t-21.5 29l2 68q97 121 253.5 184.5t324 53t292.5 -94.5zM584 465q-23 11 4 18q0 -6 -4 -18zM485 4l115 428h434l-112 -428h-437z" />
    <glyph glyph-name="at" unicode="@" horiz-adv-x="1153" 
d="M756 330h2l6 20q-65 -41 -146 -41q-66 0 -104 34.5t-40 84t15 104.5q40 104 116 171t143 67q63 0 102 -25v25h90l-61 -422l16 2q193 112 217 252q10 58 -0.5 119.5t-56 124.5t-123.5 92q-71 28 -155.5 23.5t-162 -36.5t-149 -86t-117.5 -126.5t-66 -157.5t5 -178
q28 -117 110 -182t220.5 -74t332.5 55q6 -31 17 -123.5t12 -136.5q-26 -4 -72 -13t-85.5 -15.5t-90 -12t-108.5 -4t-117 11.5q-116 18 -204 63.5t-140 107.5t-79 140t-25 161t28 170t73 167.5t115.5 153.5t151.5 127q70 46 146 75.5t134 38t112.5 11.5t82.5 -4
q104 -15 184 -81.5t119 -155t39 -179.5q0 -48 -10 -100.5t-37 -113.5t-67 -111t-107.5 -87.5t-151.5 -48.5q-38 -6 -76 30.5t-40 71.5l2 5v6zM653 459q92 0 115 15.5t43 92.5q17 58 -6 89.5t-82 31.5q-31 0 -60.5 -30t-64.5 -99q-36 -67 -27 -83.5t82 -16.5z" />
    <glyph glyph-name="A" unicode="A" horiz-adv-x="2293" 
d="M127 0l1198 1741h299l236 -1741h-467l6 217h-666l-158 -217h-448zM1397 608l-35 721l-418 -721h453z" />
    <glyph glyph-name="B" unicode="B" horiz-adv-x="1937" 
d="M129 4l487 1753h596q288 0 416.5 -126t67.5 -353q-61 -236 -246 -350q132 -61 180.5 -176t1.5 -273q-23 -78 -54.5 -141.5t-62 -110t-77 -82.5t-82 -59.5t-96.5 -39.5t-100 -24.5t-113 -12.5t-116 -4.5t-126 -0.5h-676zM786 1061h279q143 0 219.5 45.5t104.5 144.5
q28 111 -26 169.5t-185 58.5h-279zM612 406h306q130 0 199.5 15.5t105.5 52t55 108.5q5 18 -8 48.5t-41 61.5q-52 58 -219 58h-305z" />
    <glyph glyph-name="C" unicode="C" horiz-adv-x="2002" 
d="M2040 1757l-137 -301q-33 6 -84.5 15t-68.5 11.5t-48.5 8t-47 6t-38.5 3t-49 2.5t-53 0.5t-74 0.5q-271 0 -472 -170.5t-280 -470.5q-66 -241 44.5 -354t412.5 -113q167 0 259.5 14.5t227.5 57.5l-145 -467h-793q-98 0 -171 12.5t-123.5 41.5t-82.5 65t-45 95.5
t-14.5 119t13.5 150t35 174.5t52 204q77 288 242.5 500t398 325t506.5 113q161 0 241.5 -7t293.5 -36z" />
    <glyph glyph-name="D" unicode="D" horiz-adv-x="2136" 
d="M127 0l485 1757h537q522 0 716 -223t64 -682q-125 -441 -320 -631q-150 -147 -390 -192q-153 -28 -471 -29h-82h-539zM662 510h208q238 0 388.5 39.5t237 125t124.5 230.5q72 269 -51.5 403t-448.5 134h-209z" />
    <glyph glyph-name="E" unicode="E" horiz-adv-x="1837" 
d="M127 0l539 1722l1194 37l-166 -295l-768 -41l-101 -381l578 25l-84 -315l-582 -37l-80 -295h766l-20 -420h-1276z" />
    <glyph glyph-name="F" unicode="F" horiz-adv-x="1695" 
d="M127 0l575 1726l1031 33l-74 -276l-696 -41l-125 -326l626 41l-96 -360l-623 -43l-178 -754h-440z" />
    <glyph glyph-name="G" unicode="G" horiz-adv-x="2295" 
d="M1487 463l33 135l-295 53l47 295l758 -88l-31 -342l-164 27l-82 -400q-191 -114 -359.5 -160t-367.5 -46q-815 0 -661 917q42 254 133 431.5t238 286.5t339 157.5t451 48.5q276 0 510 -43l-41 -318q-213 70 -529 70q-81 0 -128.5 -1.5t-109 -7t-98 -18t-82.5 -33
t-75.5 -52.5t-64 -76t-60.5 -105t-53.5 -138.5t-53.5 -176.5q-26 -109 -26 -186t25 -132.5t83 -88t144 -47.5t213 -15q209 0 307 53z" />
    <glyph glyph-name="H" unicode="H" horiz-adv-x="2119" 
d="M1716 1821h363l-408 -1821h-502l129 432h-602l-98 -432h-485l536 1821h365l-211 -928h635z" />
    <glyph glyph-name="I" unicode="I" horiz-adv-x="1028" 
d="M127 0q204 524 351.5 1034t154.5 731h391q-309 -976 -430 -1765h-467z" />
    <glyph glyph-name="J" unicode="J" horiz-adv-x="1751" 
d="M922 326l528 1646h395l-606 -1851q-41 -127 -97.5 -225t-115.5 -156.5t-125.5 -94.5t-125.5 -47.5t-118 -7.5l-626 52l313 440l225 -62q43 -11 79 -12t65 7t54.5 28t46 45t40 63.5t35 79t33.5 95.5z" />
    <glyph glyph-name="K" unicode="K" horiz-adv-x="2144" 
d="M127 0l791 1737h352l-342 -652l694 652h449l-1006 -971l645 -766h-733l-227 477l-168 -477h-455z" />
    <glyph glyph-name="L" unicode="L" horiz-adv-x="1837" 
d="M127 0l549 1743h354l-362 -1337l827 14l-92 -420h-1276z" />
    <glyph glyph-name="M" unicode="M" horiz-adv-x="2361" 
d="M1913 1757h422l-408 -1757h-508l353 991l-525 -901h-348l-78 1012l-227 -1102h-467l551 1757h446l154 -921z" />
    <glyph glyph-name="N" unicode="N" horiz-adv-x="2109" 
d="M1806 1753h338l-585 -1753h-480l-172 1100l-270 -1100h-510l614 1690h387l256 -1133z" />
    <glyph glyph-name="O" unicode="O" horiz-adv-x="2267" 
d="M958 -66q-162 1 -278.5 21t-201 65.5t-130 114.5t-60 173t3 237t64.5 309q74 279 236.5 491.5t387.5 328.5t480 116q192 0 335 -67.5t220 -191t92.5 -296.5t-47.5 -383q-54 -187 -110 -323t-127 -241t-151.5 -171.5t-189 -108.5t-233.5 -58.5t-291 -15.5zM1108 473
q262 0 395 87t189 294q79 297 -5 473t-303 176q-220 0 -399 -176t-258 -473q-57 -206 30 -293.5t351 -87.5z" />
    <glyph glyph-name="P" unicode="P" horiz-adv-x="1841" 
d="M127 0l582 1726h493q194 0 327.5 -70t184.5 -195.5t8 -284.5q-145 -549 -774 -584l-215 -10l-125 -582h-481zM834 1028l253 10q118 5 179 25.5t97 68.5t62 146q19 71 -64 122.5t-224 51.5h-187z" />
    <glyph glyph-name="Q" unicode="Q" horiz-adv-x="2426" 
d="M1194 -319l-168 268q-35 -2 -72 -2q-229 0 -372.5 51t-215.5 165t-70.5 290t69.5 432q70 260 238.5 475t397 338t467.5 123q190 0 330 -66t215.5 -188.5t91 -295.5t-44.5 -386q-60 -229 -168 -407t-284 -339l299 -458h-713zM956 465l84 2l144 205q210 -140 340 -140
q6 0 41 62.5t74.5 149.5t54.5 141q79 295 -3.5 460.5t-306.5 165.5q-134 0 -264.5 -81.5t-231 -224.5t-147.5 -320q-21 -78 -29.5 -140.5t-4.5 -105t16.5 -75.5t32 -50.5t43.5 -30t51 -14.5t53.5 -4.5t52.5 0.5z" />
    <glyph glyph-name="R" unicode="R" horiz-adv-x="1941" 
d="M1358 823q55 -63 88 -154.5t35 -185.5l12 -538h-569l153 497q35 107 -34 154t-220 22l-71 -10l-138 -663h-501l602 1812h475q289 0 409 -143t50 -406q-75 -281 -291 -385zM1145 1511h-227l-134 -503h228q113 0 220 62.5t126 137.5q82 303 -213 303z" />
    <glyph glyph-name="S" unicode="S" horiz-adv-x="2150" 
d="M885 -84q-191 0 -360 76.5t-341 224.5l363 340q18 -37 109.5 -100t210 -115.5t196.5 -54.5q39 -1 92 10.5t110 34.5t101.5 66t56.5 96q14 70 -45 120t-217 84l-131 27q-534 112 -422 543q68 247 293 384.5t537 137.5q136 0 237.5 -15t268.5 -57l-238 -284q-29 8 -62 18
t-49 14.5t-40.5 10t-46 6.5t-53.5 1t-75 -3q-194 -13 -311.5 -62.5t-130.5 -136.5q-11 -72 58 -128t218 -91l132 -27q585 -121 497 -561q-18 -92 -65 -170.5t-110.5 -134.5t-144 -101t-162.5 -73t-170 -46.5t-162.5 -26t-143.5 -7.5z" />
    <glyph glyph-name="T" unicode="T" horiz-adv-x="2131" 
d="M672 0l450 1460l-608 -22l84 319h1569l-84 -319l-598 22l-359 -1460h-454z" />
    <glyph glyph-name="U" unicode="U" horiz-adv-x="2086" 
d="M338 643l260 1118h422l-285 -934q-20 -65 -34 -115.5t-18.5 -92t-8 -72t8 -54t18.5 -39t34 -26t44 -16t59.5 -8t69 -3t83.5 -0.5q71 0 103 1t82.5 6t72.5 15.5t56.5 31t51.5 50.5t40.5 76t40.5 105.5t35 140.5l215 934h436l-355 -1118q-40 -125 -81.5 -222.5t-91 -169
t-94 -122.5t-107.5 -84t-113 -52t-129 -28t-137 -11.5t-154 -2.5q-85 0 -138 1.5t-120 8.5t-106 21t-83.5 38t-65.5 59.5t-40 87t-18.5 119.5t11 157.5t36.5 199.5z" />
    <glyph glyph-name="V" unicode="V" horiz-adv-x="2295" 
d="M1253 0h-569l-86 1757h352l103 -1192l106 21l807 1171h367z" />
    <glyph glyph-name="W" unicode="W" horiz-adv-x="2879" 
d="M522 0l76 1757h350l19 -1104l532 674h277l133 -692l657 1122h350l-946 -1757h-430l-59 731l-504 -731h-455z" />
    <glyph glyph-name="X" unicode="X" horiz-adv-x="2269" 
d="M2259 1759l-807 -887l383 -872h-524l-178 522l-476 -522h-530l885 874l-301 883h352l256 -581l590 583h350z" />
    <glyph glyph-name="Y" unicode="Y" horiz-adv-x="2172" 
d="M864 571l-266 1186h385l211 -792l631 792h385l-910 -1186l-165 -571h-439z" />
    <glyph glyph-name="Z" unicode="Z" horiz-adv-x="2211" 
d="M803 1343l-101 304h1516l-70 -265l-1378 -974h938l33 -408h-1614l113 418l1378 925h-815z" />
    <glyph glyph-name="bracketleft" unicode="[" horiz-adv-x="974" 
d="M1194 1233h-367l-432 -1258h377l-84 -309h-672l627 1823h621z" />
    <glyph glyph-name="backslash" unicode="\" horiz-adv-x="976" 
d="M668 1782l192 -1825l-338 -483l-67 1820z" />
    <glyph glyph-name="bracketright" unicode="]" horiz-adv-x="974" 
d="M332 1489l626 -1823h-671l-84 309h377l-433 1258h-366l-70 256h621z" />
    <glyph glyph-name="asciicircum" unicode="^" horiz-adv-x="761" 
d="M600 1272l66 -152l270 -358h-264l-228 190l-335 -190h-265l463 358l133 152h160z" />
    <glyph glyph-name="underscore" unicode="_" horiz-adv-x="1400" 
d="M-27 -150l1405 -4l-112 -297l-1405 5z" />
    <glyph glyph-name="grave" unicode="`" horiz-adv-x="847" 
d="M551 1245l-264 338h321l428 -393z" />
    <glyph glyph-name="a" unicode="a" horiz-adv-x="1544" 
d="M526 -43q-86 0 -153.5 23.5t-110.5 64t-69 95.5t-32 118t3.5 130.5t34.5 135.5q66 176 181 317t239 215t233 74q167 0 262 -65v65h227l-163 -1144h-308l23 77q-161 -106 -367 -106zM614 338q66 0 105 0.5t80 6.5t62 11.5t45 22.5t35 32.5t26.5 49t24.5 65t24 86.5
q40 149 -17.5 228.5t-205.5 79.5q-80 0 -155.5 -75.5t-166.5 -250.5q-24 -46 -38.5 -77t-24 -59.5t-11 -45.5t7 -32t23 -22t42.5 -12t61 -6.5t83 -1.5z" />
    <glyph glyph-name="b" unicode="b" horiz-adv-x="1554" 
d="M977 1145q110 0 196.5 -45t134.5 -123.5t59.5 -185.5t-26.5 -232q-50 -169 -154 -306.5t-246.5 -217.5t-293.5 -80q-210 0 -307 54t-111 173q-8 51 29 245t116 575t132 677h311l-190 -706q16 55 129 113.5t221 58.5zM1122 604q35 140 -8.5 219.5t-157.5 79.5
q-120 0 -212 -83.5t-130 -227.5q-14 -52 -19.5 -86.5t-1.5 -62.5t17 -44t40 -27t64 -14.5t93 -3.5q115 9 190 68.5t125 181.5z" />
    <glyph glyph-name="c" unicode="c" horiz-adv-x="1447" 
d="M639 -43q-123 9 -212.5 44t-142.5 89t-78.5 128.5t-24.5 158t24 182.5q45 194 162.5 341t284 224.5t358.5 77.5q70 0 141.5 -15t77.5 -34l-68 -252q-135 45 -262 45q-141 0 -231.5 -92t-145.5 -293q-13 -59 0 -108.5t47.5 -80t82.5 -42.5t112.5 3t130.5 58l209 -323
q-269 -125 -465 -111z" />
    <glyph glyph-name="d" unicode="d" horiz-adv-x="1576" 
d="M1167 1049l203 645h299l-377 -1213l-118 -481h-289v90q-150 -131 -332 -137q-251 -7 -343 156t-5 450q49 167 151.5 302.5t241 213.5t285.5 78q190 0 284 -104zM457 580q-31 -114 15 -167t179 -53q147 0 207 46t98 188q41 155 3 235t-154 80q-119 0 -213.5 -89
t-134.5 -240z" />
    <glyph glyph-name="e" unicode="e" horiz-adv-x="1560" 
d="M1358 594l-875 -57q-14 -118 65 -181t236 -57q20 1 72 2.5t69 3t58.5 5t65.5 10t63.5 16.5t79 26t86.5 37l-100 -376q-259 -107 -500 -107q-293 0 -422.5 172t-52.5 461l2 2q92 303 302.5 477t483.5 174h4q227 -19 313.5 -165t49.5 -443zM573 782l568 60q-6 30 -13.5 53
t-23 47t-36.5 39t-54.5 25t-77.5 10q-219 0 -363 -234z" />
    <glyph glyph-name="f" unicode="f" horiz-adv-x="1202" 
d="M1049 1688h221l-70 -269h-223q-37 0 -66 -24.5t-47 -64.5t-28 -77.5t-15 -76.5h332l-78 -293h-295l-219 -883h-385l283 883h-166l78 293h168q81 281 194.5 393.5t315.5 118.5z" />
    <glyph glyph-name="g" unicode="g" horiz-adv-x="1562" 
d="M410 -569q-124 0 -246 33.5t-205 91.5l211 319q64 -49 101 -73.5t92.5 -46t109.5 -21.5q110 0 232 114.5t194 264.5l-94 -86l-1 2q-120 -81 -245 -82q-233 0 -329 172t-21 454q76 284 266.5 467t419.5 183q93 0 166.5 -46t109.5 -106l58 105h287l-324 -1037
q-220 -708 -782 -708zM618 354q117 0 178.5 18.5t97 66t60.5 145.5q47 177 6 270.5t-167 93.5q-125 0 -218.5 -93t-140.5 -269q-9 -55 -12.5 -89.5t1.5 -62.5t16 -42t37 -23.5t57.5 -12t84.5 -2.5z" />
    <glyph glyph-name="h" unicode="h" horiz-adv-x="1607" 
d="M1395 680l-150 -680h-414q237 497 289 669q49 160 0 212q-37 39 -153 39q-78 0 -130.5 -11.5t-101.5 -48.5t-81 -97.5t-63 -166.5t-55 -248t-49 -348h-432l600 1694h297l-200 -609q85 53 156.5 73t168.5 20q100 0 166 -15t110 -49t60 -93t12 -141t-30 -200z" />
    <glyph glyph-name="i" unicode="i" horiz-adv-x="813" 
d="M459 1268l106 344h273l-78 -344h-301zM72 0q8 115 47.5 227t89.5 204.5t99 189t82.5 218t33.5 253.5h278q2 -131 -27.5 -254t-70.5 -217.5t-80.5 -188.5t-61.5 -205t-11 -227h-379z" />
    <glyph glyph-name="j" unicode="j" horiz-adv-x="880" 
d="M889 1827h434l-113 -428h-436zM-80 -508l125 356q198 -82 348 86q57 63 109 166.5t136 359.5t187 660h310l-365 -1009q-105 -292 -141 -369q-41 -86 -80 -119q-68 -58 -252.5 -100t-376.5 -31z" />
    <glyph glyph-name="k" unicode="k" horiz-adv-x="1648" 
d="M55 0q112 199 242 576.5t212 698.5t83 425h319l-276 -864l285 221l362 41l-520 -482l524 -616h-592l-182 342l-92 -342h-365z" />
    <glyph glyph-name="l" unicode="l" horiz-adv-x="1038" 
d="M61 0q15 115 103.5 373t226.5 640.5t221 647.5h310q-86 -216 -156 -399.5t-160.5 -434t-126 -397.5t-0.5 -147h238l-41 -283h-615z" />
    <glyph glyph-name="m" unicode="m" horiz-adv-x="2324" 
d="M1436 1018q103 102 203.5 149.5t213.5 34.5q170 -21 253 -168t30 -356l-172 -672h-397l278 656q40 151 23 205.5t-101 54.5q-102 0 -174 -76.5t-161 -261.5l-275 -578h-375l367 711q10 40 9.5 68.5t-7.5 46t-26.5 31t-37.5 20.5t-52 18q-8 3 -13 4q-25 7 -67 -2
t-90.5 -33.5t-96 -76.5t-74.5 -121l-264 -666h-373l478 1170h296l-22 -62q148 91 311 88q119 -2 200.5 -49t115.5 -135z" />
    <glyph glyph-name="n" unicode="n" horiz-adv-x="1591" 
d="M1372 666l-143 -666h-410l273 698q45 117 7 175.5t-153 58.5q-142 0 -231.5 -73t-118.5 -212l-135 -647h-406l426 1194h232v-92q58 31 91.5 46t97 29.5t136.5 14.5q230 0 311 -126.5t23 -399.5z" />
    <glyph glyph-name="o" unicode="o" horiz-adv-x="1566" 
d="M610 -27q-268 0 -373 153.5t-28 448.5q75 284 276 452.5t465 168.5q262 0 372.5 -168.5t35.5 -452.5q-77 -291 -276 -446.5t-472 -155.5zM725 360q50 0 85.5 4t76.5 18.5t70.5 40.5t56.5 73t45 112q43 157 -5.5 249.5t-170.5 92.5q-120 0 -214.5 -92t-144.5 -250
q-19 -61 -22.5 -103t7 -71t39.5 -45t71 -22.5t106 -6.5z" />
    <glyph glyph-name="p" unicode="p" horiz-adv-x="1732" 
d="M532 33l-210 -504l-410 -64q117 169 258 496.5t241.5 666.5t100.5 517h289v-80q159 125 368 125q151 0 248.5 -81.5t123 -222t-20.5 -327.5q-77 -286 -269 -464.5t-424 -178.5q-89 0 -170 30.5t-125 86.5zM1276 592q89 362 -143 362q-122 0 -215.5 -95.5t-139.5 -266.5
q-21 -79 -22 -125t24 -73t70 -35.5t127 -8.5q46 0 73.5 2t61 9.5t54 23t42.5 42t38 67.5t30 98z" />
    <glyph glyph-name="q" unicode="q" horiz-adv-x="1816" 
d="M682 -584l182 588q-146 -94 -313 -88q-231 9 -326.5 184.5t-19.5 458.5q74 280 261 450t421 181q108 4 180 -31t123 -117l35 134h340l-432 -1328l155 60l154 49l-117 -369zM635 336q83 0 138 10t99.5 38t71.5 76.5t45 125.5q39 173 -12 269.5t-178 96.5q-247 0 -353 -366
q-23 -79 -25 -126t21 -75.5t68 -38.5t125 -10z" />
    <glyph glyph-name="r" unicode="r" horiz-adv-x="1314" 
d="M1143 1182l49 -291q-94 0 -168.5 -8t-125.5 -20.5t-89 -35t-59.5 -43t-38 -53t-24 -57.5t-17.5 -63q-3 -11 -4.5 -17t-4 -15.5t-4.5 -17.5q-79 -275 -112 -561h-490q172 353 254.5 570.5t186.5 603.5h301l-19 -74q92 45 152 59t213 23z" />
    <glyph glyph-name="s" unicode="s" horiz-adv-x="1550" 
d="M1389 1229l-142 -248q-47 9 -89.5 19t-60 14t-49.5 8t-81 6q-141 6 -207.5 -20t-69.5 -90q-3 -63 51 -112t174 -85q201 -61 283.5 -136.5t79.5 -201.5q-4 -111 -51 -190.5t-133 -126.5t-198 -68t-259 -21q-91 0 -162.5 10t-138.5 35.5t-114.5 50.5t-127.5 72l361 304
q48 -20 102 -47.5t86.5 -39t73.5 -14.5q27 -2 61.5 0t72.5 9t62 24.5t21 42.5q-4 29 -56.5 53.5t-145 54t-142.5 54.5q-175 83 -205 245q-30 164 97 291t368 144q102 7 264.5 -5.5t274.5 -31.5z" />
    <glyph glyph-name="t" unicode="t" horiz-adv-x="1415" 
d="M1288 883h-393l-168 -518q80 -17 122 -24t105 -4.5t117 23.5l-90 -360h-596q-60 0 -85.5 46t-6.5 110q3 11 52.5 108.5t131.5 272.5t148 346h-334l174 247h248q67 209 102 398l303 37l-141 -435h311v-247z" />
    <glyph glyph-name="u" unicode="u" horiz-adv-x="1546" 
d="M532 -47q-155 0 -233.5 49t-96.5 156.5t19 279.5l150 738h268l-104 -564q-13 -69 -18.5 -113.5t1 -76t13.5 -47t36 -23.5t51 -9t74 -1q207 0 318 307l164 527h292l-280 -1170h-342l8 19q-119 -72 -320 -72z" />
    <glyph glyph-name="v" unicode="v" horiz-adv-x="1820" 
d="M516 0l25 279l-170 897h317l201 -754l565 754h320l-646 -897l-135 -279h-477z" />
    <glyph glyph-name="w" unicode="w" horiz-adv-x="2017" 
d="M301 0l70 1176h235l33 -637l336 383h190l129 -383l375 630h299l-653 -1169h-336l-84 270l-268 -270h-326z" />
    <glyph glyph-name="x" unicode="x" horiz-adv-x="1814" 
d="M1718 1219l-571 -572l305 -647h-442l-144 367l-366 -367h-445l705 645l-223 574h340l153 -326l356 326h332z" />
    <glyph glyph-name="y" unicode="y" horiz-adv-x="1736" 
d="M1690 1176l-768 -1383q-63 -113 -176.5 -193.5t-244 -113.5t-255.5 -16l-217 28l73 398l162 -54q47 -12 107 -3.5t122 39.5t111 69t74.5 85.5t13.5 88.5l-321 1055h327l250 -711l369 711h373z" />
    <glyph glyph-name="z" unicode="z" horiz-adv-x="1630" 
d="M514 932l68 248h946v-211l-807 -666h450l76 -303h-1192l160 297l840 635h-541z" />
    <glyph glyph-name="braceleft" unicode="{" horiz-adv-x="1161" 
d="M1296 1597h197l-119 -251h-112q-51 -3 -76.5 -5t-52 -10.5t-37 -16t-25 -31t-22 -45t-21.5 -67.5l-80 -247q-43 -132 -99 -208.5t-134 -117.5q52 -40 57.5 -110t-27.5 -189l-77 -250q-22 -91 -1.5 -114t124.5 -23h124l-73 -320l-180 7q-137 3 -216.5 23.5t-120 71.5
t-39.5 131t36 208l75 235l14 56t9 42t4.5 32t-2.5 21t-7.5 14t-15.5 6.5t-22 4t-31 0.5h-117l17 60q-2 0 -6.5 -1t-6.5 -1l66 219l8 -2l17 59h114q6 0 16 1q82 5 102 25t58 137q1 1 1.5 2.5t0.5 2.5l74 240q40 123 86 198.5t118 124t165.5 67.5t236.5 21z" />
    <glyph glyph-name="bar" unicode="|" horiz-adv-x="530" 
d="M565 1489h256l-555 -1851h-256z" />
    <glyph glyph-name="braceright" unicode="}" horiz-adv-x="1161" 
d="M764 268l76 -235q35 -128 36 -208t-39.5 -131t-120 -71.5t-216.5 -23.5l-181 -7l-73 320h125q104 0 124.5 23t-1.5 114l-78 250q-33 119 -27.5 189t57.5 110q-78 41 -134 117.5t-99 208.5l-80 247q-14 46 -21.5 67.5t-21.5 45t-24.5 31t-37.5 16t-52 10.5t-76 5h-113
l-119 251h197q143 -2 236.5 -21t165.5 -67.5t118 -124t86 -198.5l74 -240q36 -111 52 -133q19 -25 63 -31q11 -1 63 -4h115l16 -59l8 2l66 -219q-2 0 -6.5 1t-6.5 1l17 -60h-117q-20 0 -31 -0.5t-22 -4t-15.5 -6.5t-7.5 -14t-2.5 -21t4.5 -32t9 -42z" />
    <glyph glyph-name="asciitilde" unicode="~" horiz-adv-x="815" 
d="M188 422h-170l-41 59q70 207 142.5 283t204.5 76q42 0 74 -21t50 -51t31 -60.5t26 -51.5t27 -21q13 0 20.5 5.5t14 22t11.5 36t16.5 60t26.5 81.5h145l41 -56q-60 -212 -129 -288t-201 -74q-45 1 -80 23t-54 53.5t-32.5 63t-23.5 53.5t-19 22q-17 0 -27 -6t-16 -24
t-9 -38t-10.5 -63t-17.5 -84z" />
    <glyph glyph-name="exclamdown" unicode="&#xa1;" horiz-adv-x="1548" 
d="M1675 1038h-540l139 533h543zM1597 901l-565 -1755h-356l403 1630z" />
    <glyph glyph-name="cent" unicode="&#xa2;" horiz-adv-x="1193" 
d="M1167 1184q56 -14 62 -31l-68 -252q-53 18 -96 27l-227 -568q32 14 57 31l209 -323q-250 -116 -428 -113l-107 -268l-256 22l117 291q-325 123 -225 559q62 267 253.5 437t450.5 200l123 307l254 -22zM522 561q-27 -127 56 -194l227 567q-99 -26 -168 -117t-115 -256z
" />
    <glyph glyph-name="sterling" unicode="&#xa3;" horiz-adv-x="1429" 
d="M721 1503q196 117 377 141t317 -49t201 -235l-250 -64q-106 115 -260 121t-270 -96q-28 -25 -36 -64t-1 -112l35 -314h348l-58 -196h-268q23 -255 -125 -383q94 -1 192 -12.5t326 -44.5l105 -250h-1260l88 323q222 69 302 118t102 140l-6 109h-377l57 196h311l-12 232
q-8 189 26.5 284t135.5 156zM588 530q-2 0 -2 -4q0 4 2 4z" />
    <glyph glyph-name="currency" unicode="&#xa4;" horiz-adv-x="1386" 
d="M1405 393l-299 -237l-121 159q-109 -47 -221 -47q-113 0 -193 47l-206 -159l-172 237l215 170q-10 83 14 168q26 104 104 209l-104 141l299 238l117 -156q88 31 176 31q87 0 157 -31l199 156l174 -238l-182 -141q24 -100 -6 -209q-22 -89 -76 -168zM858 623
q65 0 124.5 46.5t76.5 112.5q19 65 -15.5 111.5t-101.5 46.5q-65 0 -124.5 -46t-76.5 -112q-19 -66 15.5 -112.5t101.5 -46.5z" />
    <glyph glyph-name="yen" unicode="&#xa5;" horiz-adv-x="1581" 
d="M1440 549l-324 -12l-59 -195l231 14l29 -268l-338 -12l-82 -273h-387l78 258l-369 -14l182 256l263 16l61 203l-383 -14l182 256l279 16l12 43l-344 725h354l273 -409l487 409h357l-742 -727l-4 -16l215 12z" />
    <glyph glyph-name="brokenbar" unicode="&#xa6;" horiz-adv-x="530" 
d="M821 1489l-200 -670l-103 -346h-2l-250 -835h-256l240 800l2 8l10 33l84 279l219 731h256zM459 762l-76 -254l37 10l72 246z" />
    <glyph glyph-name="section" unicode="&#xa7;" horiz-adv-x="1218" 
d="M1161 1135q356 -73 281 -357q-38 -143 -90 -217t-131 -104q90 -97 59 -250q-17 -87 -72 -155.5t-125.5 -110t-156.5 -68.5t-159.5 -37t-141.5 -10q-130 0 -246 52.5t-234 152.5l248 233q21 -41 147 -112t205 -72q38 -1 88.5 11.5t99.5 47t60 82.5q10 47 -30.5 81
t-149.5 58l-88 19q-365 74 -289 371q29 104 100.5 180.5t176.5 120.5q-41 73 -11 194q43 159 181.5 252.5t330.5 93.5q237 0 353 -200l-183 -224q-34 116 -77.5 158.5t-135.5 42.5q-103 0 -168 -28t-77 -74q-9 -34 32.5 -65.5t124.5 -49.5zM963 895q-260 -20 -297 -117
l49 -18q9 -20 105.5 -44t166.5 -24q101 0 131.5 16.5t50.5 82.5q11 36 -20.5 62.5t-112.5 43.5q-42 0 -73 -2z" />
    <glyph glyph-name="dieresis" unicode="&#xa8;" horiz-adv-x="1101" 
d="M303 1671h434l-112 -428h-437zM948 1671h434l-112 -428h-436z" />
    <glyph glyph-name="copyright" unicode="&#xa9;" horiz-adv-x="1112" 
d="M725 631q-186 0 -281.5 129t-46.5 315q32 119 119.5 220t206.5 159.5t240 58.5q120 0 207 -59t120 -160t2 -219q-33 -121 -120.5 -223t-206 -161.5t-240.5 -59.5zM774 811q110 0 209.5 77.5t128.5 186.5q29 110 -29 188t-168 78q-112 0 -209 -76.5t-128 -189.5
q-29 -109 28.5 -186.5t167.5 -77.5zM801 846q-114 9 -151.5 70.5t-14.5 160.5q26 114 111.5 181t197.5 67q28 0 55.5 -5.5t28.5 -12.5l-24 -97q-52 17 -103 17q-54 0 -88.5 -35.5t-56.5 -112.5q-12 -60 32.5 -83t110.5 18l82 -125q-103 -49 -180 -43z" />
    <glyph glyph-name="ordfeminine" unicode="&#xaa;" horiz-adv-x="1357" 
d="M831 842q-66 0 -111 26.5t-63 69.5t-16.5 95t21.5 106q52 138 153 227.5t189 89.5q84 0 137 -35v35h119l-86 -600h-162l12 41q-82 -55 -193 -55zM879 1040q46 0 70.5 1t48.5 7t34 13t21.5 26.5t17.5 38.5t16 58q22 78 -8 120t-108 42q-41 0 -80 -39t-88 -131
q-46 -91 -34 -113.5t110 -22.5z" />
    <glyph glyph-name="guillemotleft" unicode="&#xab;" horiz-adv-x="1103" 
d="M524 -41l-389 496l98 153l687 463l-95 -293l-358 -241l211 -265zM985 -49l-389 495l98 154l686 463l-94 -293l-358 -242l211 -264z" />
    <glyph glyph-name="logicalnot" unicode="&#xac;" horiz-adv-x="1263" 
d="M1313 682l-8 -35l-131 -586h-336l96 379l-701 25l80 299z" />
    <glyph glyph-name="uni00AD" unicode="&#xad;" 
d="M229 721h922l-57 -215h-922z" />
    <glyph glyph-name="registered" unicode="&#xae;" horiz-adv-x="1112" 
d="M963 1513q120 0 207 -59t120 -160t2 -219q-33 -121 -120.5 -223t-206 -161.5t-240.5 -59.5q-186 0 -281.5 129t-46.5 315q32 119 119.5 220t206.5 159.5t240 58.5zM578 1075q-16 -65 -3 -119t52 -92l147 443q-70 -34 -123 -96t-73 -136zM856 1305l-39 -146h66
q34 0 64.5 18t35.5 40q24 88 -61 88h-66zM1112 1075q30 122 -37 199q0 -30 -8 -57q-22 -83 -84 -113q35 -40 35 -98l2 -84q68 68 92 153zM645 850q55 -39 129 -39q77 0 150 39h-66l43 145q10 31 -9.5 44t-64.5 5l-20 -2l-39 -192h-123z" />
    <glyph glyph-name="macron" unicode="&#xaf;" horiz-adv-x="1062" 
d="M584 1442l704 39l23 -197l-873 -31z" />
    <glyph glyph-name="degree" unicode="&#xb0;" horiz-adv-x="1112" 
d="M582 631q-91 0 -165 34.5t-117.5 94.5t-58 141t12.5 174q33 118 119 218.5t204.5 159.5t241.5 60q120 1 207.5 -57.5t121 -160t1.5 -220.5q-33 -121 -120.5 -223t-206 -161.5t-240.5 -59.5zM674 944q69 0 130.5 48t78.5 114q19 69 -17 116.5t-104 47.5q-69 0 -129 -47.5
t-80 -116.5q-19 -66 17 -114t104 -48z" />
    <glyph glyph-name="plusminus" unicode="&#xb1;" horiz-adv-x="1282" 
d="M1057 768l360 -2l-71 -209l-359 2l-104 -309h-285l104 311l-417 2l69 209l418 -2l109 322h284zM250 127l887 45l28 -233l-1097 -35z" />
    <glyph glyph-name="uni00B2" unicode="&#xb2;" horiz-adv-x="1320" 
d="M645 926l72 157q12 30 50 59t128 81q86 47 130 83t75 76q20 26 30 56q11 43 -12.5 69.5t-75.5 26.5q-39 0 -91 -16.5t-150 -59.5l49 150q145 53 225 53q117 0 171 -59.5t28 -157.5q-21 -74 -36 -103q-53 -96 -237 -235h183l-33 -180h-506z" />
    <glyph glyph-name="uni00B3" unicode="&#xb3;" horiz-adv-x="1323" 
d="M1094 1663q121 0 177.5 -56.5t31.5 -152.5q-27 -101 -132 -145q53 -21 67.5 -63.5t-5.5 -112.5q-34 -123 -130.5 -188.5t-244.5 -65.5q-101 0 -211 43l103 172q182 -17 168 -21q82 0 115 16t44 58q12 42 -17.5 69t-90.5 27h-123l37 82h2l22 45h115q72 0 109 21t51 69
q11 40 -23 64t-104 24q-64 0 -232 -41l68 123q129 33 203 33z" />
    <glyph glyph-name="acute" unicode="&#xb4;" horiz-adv-x="593" 
d="M532 1577h259l-277 -463h-334z" />
    <glyph glyph-name="uni00B5" unicode="&#xb5;" horiz-adv-x="1546" 
d="M1174 1176h292l-280 -1170h-342l8 19q-119 -72 -320 -72q-148 0 -225 45l-102 -264h-256l272 704l150 738h268l-2 -7h123l-234 -604q-9 -57 -12 -94t5.5 -62.5t16.5 -38.5t36 -19.5t49.5 -7.5t70.5 -1q207 0 318 307z" />
    <glyph glyph-name="paragraph" unicode="&#xb6;" horiz-adv-x="1271" 
d="M856 1475h264l-596 -1756h-487l455 975q-75 55 -102 150t3 213q43 157 174.5 275t286.5 138zM1253 1473h271l-434 -1754h-271z" />
    <glyph glyph-name="periodcentered" unicode="&#xb7;" horiz-adv-x="540" 
d="M150 946h434l-113 -428h-436z" />
    <glyph glyph-name="cedilla" unicode="&#xb8;" horiz-adv-x="675" 
d="M16 -293l211 348h187l-105 -164h-16q120 0 166 -57.5t18 -161.5q-78 -288 -327 -288q-23 0 -83 -1t-108 -1l109 229q65 -15 81.5 -17t61.5 -2q15 0 34 4.5t41 23.5t23 50q0 25 -19 42.5t-61 17.5q-48 0 -213 -23z" />
    <glyph glyph-name="uni00B9" unicode="&#xb9;" horiz-adv-x="1200" 
d="M618 920l50 186l137 2l133 416l-141 -66l57 152q143 73 186 73h86l-151 -573l160 -4l-50 -186h-467z" />
    <glyph glyph-name="ordmasculine" unicode="&#xba;" horiz-adv-x="1370" 
d="M874 836q-138 0 -192.5 79.5t-13.5 231.5q38 147 142 234t241 87q135 0 192 -86.5t19 -234.5q-40 -151 -143.5 -231t-244.5 -80zM934 1036q68 0 109.5 24.5t62.5 102.5q23 83 -1.5 130.5t-88.5 47.5q-62 0 -111 -47.5t-76 -130.5q-24 -75 -0.5 -101t105.5 -26z" />
    <glyph glyph-name="guillemotright" unicode="&#xbb;" horiz-adv-x="1538" 
d="M797 -41l-154 313l211 265l-358 241l-95 293l686 -463l99 -153zM336 -49l-154 313l211 264l-358 242l-94 293l686 -463l98 -154z" />
    <glyph glyph-name="onequarter" unicode="&#xbc;" horiz-adv-x="1968" 
d="M1802 1583h260l-1464 -1743h-342l707 797h-598l69 260l193 4l184 582l-197 -90l80 211q197 102 262 102h121l-215 -803l225 -6l-45 -172zM1700 944l162 10l-129 -585l129 4l-58 -217l-116 2l-62 -279h-264l90 285l-512 14l162 172h4zM1516 362l106 336l-322 -342z" />
    <glyph glyph-name="onehalf" unicode="&#xbd;" horiz-adv-x="1474" 
d="M1516 963q172 0 252 -88t42 -234q-28 -97 -44 -130q-55 -119 -238 -273q-53 -45 -119 -95h268l-51 -268h-745l104 234q20 44 78 88.5t186 115.5q126 68 191 122.5t112 115.5q34 43 45 82q17 65 -18 103t-111 38q-60 0 -138 -24t-220 -86l39 118l-780 -929h-342l706 796
h-598l70 260l192 4l185 582l-197 -90l80 211q197 102 262 102h121l-215 -803l225 -6l-45 -172l760 858h260l-573 -684q152 52 256 52z" />
    <glyph glyph-name="threequarters" unicode="&#xbe;" horiz-adv-x="1474" 
d="M1573 1595h260l-1464 -1742h-342l739 833q-127 -74 -313 -74q-142 0 -299 62l145 241q259 -24 236 -28q117 0 164.5 22t62.5 80q15 60 -27.5 97.5t-126.5 37.5h-174l53 119h2l31 62h162q100 0 153 30t72 97q14 57 -33.5 89.5t-146.5 32.5q-103 0 -326 -57l97 174
q108 27 166 37t118 10q170 0 250 -80t45 -215q-21 -72 -64.5 -121.5t-119.5 -82.5q74 -29 94 -89.5t-8 -158.5q-6 -26 -25 -74zM1470 956l162 11l-129 -586l129 4l-57 -217l-117 2l-61 -279h-264l90 285l-512 14l161 172h5zM1286 375l107 336l-322 -342z" />
    <glyph glyph-name="questiondown" unicode="&#xbf;" horiz-adv-x="1781" 
d="M1337 1239l-114 -428h-435l113 428h436zM1239 778q23 -11 -4 -18q0 6 4 18zM815 672q10 38 93.5 56t197.5 23.5t129 8.5q-11 -37 -82 -342q-14 -59 -32.5 -141.5t-30.5 -131.5l-39 -41q-442 -114 -557 -442q-43 -125 -29.5 -195t88.5 -124q251 -181 532 114
q6 -13 17.5 -36l14.5 -29t10 -19.5t10.5 -19t8.5 -14.5t12.5 -18.5t14 -18.5l19.5 -27l-2 -68q-97 -121 -254 -184.5t-324.5 -53t-292.5 94.5q-130 87 -176 264.5t13 360.5q60 184 237 378.5t344 262.5q73 313 78 338v4z" />
    <glyph glyph-name="Agrave" unicode="&#xc0;" horiz-adv-x="2293" 
d="M1329 2126l-264 338h321l429 -393zM127 0l1198 1741h299l236 -1741h-467l6 217h-666l-158 -217h-448zM1397 608l-35 721l-418 -721h453z" />
    <glyph glyph-name="Aacute" unicode="&#xc1;" horiz-adv-x="1712" 
d="M1657 2564h258l-277 -463h-333zM127 0l1198 1741h299l236 -1741h-467l6 217h-666l-158 -217h-448zM1397 608l-35 721l-418 -721h453z" />
    <glyph glyph-name="Acircumflex" unicode="&#xc2;" horiz-adv-x="2293" 
d="M1751 2542l66 -152l270 -358h-264l-228 190l-335 -190h-265l463 358l133 152h160zM127 0l1198 1741h299l236 -1741h-467l6 217h-666l-158 -217h-448zM1397 608l-35 721l-418 -721h453z" />
    <glyph glyph-name="Atilde" unicode="&#xc3;" horiz-adv-x="2293" 
d="M1352 2054h-170l-41 60q70 207 142 282.5t204 75.5q42 0 74.5 -21t50 -51t31 -60.5t26.5 -51.5t27 -21q13 0 20.5 5.5t13.5 22t11 36.5t16.5 60t26.5 81h145l41 -55q-41 -145 -83 -222t-99.5 -109.5t-147.5 -31.5q-45 1 -80 23t-54 53.5t-32 63t-23 53.5t-19 22
q-17 0 -27 -6t-16 -24t-9 -38t-10.5 -63t-17.5 -84zM127 0l1198 1741h299l236 -1741h-467l6 217h-666l-158 -217h-448zM1397 608l-35 721l-418 -721h453z" />
    <glyph glyph-name="Adieresis" unicode="&#xc4;" horiz-adv-x="2293" 
d="M1155 2523h434l-112 -428h-437zM1800 2523h434l-112 -428h-436zM127 0l1198 1741h299l236 -1741h-467l6 217h-666l-158 -217h-448zM1397 608l-35 721l-418 -721h453z" />
    <glyph glyph-name="Aring" unicode="&#xc5;" horiz-adv-x="2293" 
d="M1550 1989q-101 0 -152 74t-22 178q28 103 118.5 176t191.5 73q100 0 151 -73t23 -176q-28 -104 -118.5 -178t-191.5 -74zM1610 2212q38 0 46 7.5t19 47.5q5 22 -6 37.5t-31 15.5t-38.5 -15.5t-24.5 -37.5q-11 -40 -6.5 -47.5t41.5 -7.5zM127 0l1198 1741h299l236 -1741
h-467l6 217h-666l-158 -217h-448zM1397 608l-35 721l-418 -721h453z" />
    <glyph glyph-name="AE" unicode="&#xc6;" horiz-adv-x="2418" 
d="M2781 1464l-762 -41l-43 -379l514 23l-84 -315l-467 -29l-32 -303h604l-21 -420h-1276l68 213h-496l-211 -213h-448l1618 1698l8 24l1194 37zM1094 596h307l180 580z" />
    <glyph glyph-name="Ccedilla" unicode="&#xc7;" horiz-adv-x="2002" 
d="M1440 1503q-271 0 -472 -170.5t-280 -470.5q-66 -241 44.5 -354t412.5 -113q167 0 259.5 14.5t227.5 57.5l-145 -467h-357q92 -54 54 -190q-41 -151 -126.5 -220t-201.5 -69q-23 0 -82.5 -1t-107.5 -1l108 229q16 -4 26 -6t21 -4t16 -3.5t14 -2.5t11.5 -1t12 -0.5
t11.5 -0.5h15h17q10 0 23 3t31 10t30.5 23.5t13.5 40.5q0 25 -19 42.5t-61 17.5q-48 0 -213 -23l94 156h-123q-98 0 -171 12.5t-123.5 41.5t-82.5 65t-45 95.5t-14.5 119t13.5 150t35 174.5t52 204q77 288 242.5 500t398 325t506.5 113q161 0 241.5 -7t293.5 -36l-137 -301
q-33 6 -84.5 15t-68.5 11.5t-48.5 8t-47 6t-38.5 3t-49 2.5t-53 0.5t-74 0.5z" />
    <glyph glyph-name="Egrave" unicode="&#xc8;" horiz-adv-x="1837" 
d="M1087 2157l-264 337h322l428 -393zM127 0l539 1722l1194 37l-166 -295l-768 -41l-101 -381l578 25l-84 -315l-582 -37l-80 -295h766l-20 -420h-1276z" />
    <glyph glyph-name="Eacute" unicode="&#xc9;" horiz-adv-x="1837" 
d="M1567 2595h258l-277 -463h-334zM127 0l539 1722l1194 37l-166 -295l-768 -41l-101 -381l578 25l-84 -315l-582 -37l-80 -295h766l-20 -420h-1276z" />
    <glyph glyph-name="Ecircumflex" unicode="&#xca;" horiz-adv-x="1837" 
d="M1509 2572l66 -151l270 -359h-264l-227 191l-336 -191h-264l463 359l133 151h159zM127 0l539 1722l1194 37l-166 -295l-768 -41l-101 -381l578 25l-84 -315l-582 -37l-80 -295h766l-20 -420h-1276z" />
    <glyph glyph-name="Edieresis" unicode="&#xcb;" horiz-adv-x="1837" 
d="M913 2554h435l-113 -428h-436zM1559 2554h434l-113 -428h-436zM127 0l539 1722l1194 37l-166 -295l-768 -41l-101 -381l578 25l-84 -315l-582 -37l-80 -295h766l-20 -420h-1276z" />
    <glyph glyph-name="Igrave" unicode="&#xcc;" horiz-adv-x="1028" 
d="M694 2169l-264 338h322l428 -393zM127 0q204 524 351.5 1034t154.5 731h391q-309 -976 -430 -1765h-467z" />
    <glyph glyph-name="Iacute" unicode="&#xcd;" horiz-adv-x="1028" 
d="M1174 2607h258l-277 -463h-334zM127 0q204 524 351.5 1034t154.5 731h391q-309 -976 -430 -1765h-467z" />
    <glyph glyph-name="Icircumflex" unicode="&#xce;" horiz-adv-x="1028" 
d="M1116 2585l66 -152l270 -358h-264l-227 190l-336 -190h-265l463 358l133 152h160zM127 0q204 524 351.5 1034t154.5 731h391q-309 -976 -430 -1765h-467z" />
    <glyph glyph-name="Idieresis" unicode="&#xcf;" horiz-adv-x="1028" 
d="M520 2566h434l-112 -428h-436zM1165 2566h434l-112 -428h-436zM127 0q204 524 351.5 1034t154.5 731h391q-309 -976 -430 -1765h-467z" />
    <glyph glyph-name="Eth" unicode="&#xd0;" horiz-adv-x="2136" 
d="M1149 1757q522 0 716 -223t64 -682q-125 -441 -320 -631q-150 -147 -390 -192q-153 -28 -471 -29h-82h-539l225 819h-323l57 215h326l200 723h537zM1620 905q72 269 -51.5 403t-448.5 134h-209l-108 -408h205l-58 -215h-207l-81 -309h208q238 0 388.5 39.5t237 125
t124.5 230.5z" />
    <glyph glyph-name="Ntilde" unicode="&#xd1;" horiz-adv-x="2109" 
d="M1296 1917h-170l-41 59q70 207 142.5 283t204.5 76q42 0 74 -21t50 -51.5t31 -60.5t26 -51t27 -21q13 0 20.5 5.5t14 22t11.5 36t16.5 60t26.5 81.5h145l41 -56q-60 -212 -129 -288t-201 -74q-45 1 -80 23t-54 53.5t-32.5 63t-23.5 53.5t-19 22q-17 0 -27 -6t-16 -24
t-9 -38t-10.5 -63t-17.5 -84zM1806 1753h338l-585 -1753h-480l-172 1100l-270 -1100h-510l614 1690h387l256 -1133z" />
    <glyph glyph-name="Ograve" unicode="&#xd2;" horiz-adv-x="2267" 
d="M1532 2179l-264 338h321l428 -393zM958 -66q-162 1 -278.5 21t-201 65.5t-130 114.5t-60 173t3 237t64.5 309q74 279 236.5 491.5t387.5 328.5t480 116q192 0 335 -67.5t220 -191t92.5 -296.5t-47.5 -383q-54 -187 -110 -323t-127 -241t-151.5 -171.5t-189 -108.5
t-233.5 -58.5t-291 -15.5zM1108 473q262 0 395 87t189 294q79 297 -5 473t-303 176q-220 0 -399 -176t-258 -473q-57 -206 30 -293.5t351 -87.5z" />
    <glyph glyph-name="Oacute" unicode="&#xd3;" horiz-adv-x="1882" 
d="M1704 2568h258l-276 -463h-334zM958 -66q-162 1 -278.5 21t-201 65.5t-130 114.5t-60 173t3 237t64.5 309q74 279 236.5 491.5t387.5 328.5t480 116q192 0 335 -67.5t220 -191t92.5 -296.5t-47.5 -383q-54 -187 -110 -323t-127 -241t-151.5 -171.5t-189 -108.5
t-233.5 -58.5t-291 -15.5zM1108 473q262 0 395 87t189 294q79 297 -5 473t-303 176q-220 0 -399 -176t-258 -473q-57 -206 30 -293.5t351 -87.5z" />
    <glyph glyph-name="Ocircumflex" unicode="&#xd4;" horiz-adv-x="2267" 
d="M1839 2546l66 -152l270 -358h-264l-228 190l-335 -190h-265l463 358l133 152h160zM958 -66q-162 1 -278.5 21t-201 65.5t-130 114.5t-60 173t3 237t64.5 309q74 279 236.5 491.5t387.5 328.5t480 116q192 0 335 -67.5t220 -191t92.5 -296.5t-47.5 -383
q-54 -187 -110 -323t-127 -241t-151.5 -171.5t-189 -108.5t-233.5 -58.5t-291 -15.5zM1108 473q262 0 395 87t189 294q79 297 -5 473t-303 176q-220 0 -399 -176t-258 -473q-57 -206 30 -293.5t351 -87.5z" />
    <glyph glyph-name="Otilde" unicode="&#xd5;" horiz-adv-x="2267" 
d="M1440 2058h-170l-41 60q70 207 142 282.5t204 75.5q42 0 74.5 -21t50 -51t31 -60.5t26.5 -51.5t27 -21q13 0 20.5 5.5t13.5 22t11 36.5t16.5 60t26.5 81h145l41 -55q-60 -213 -128.5 -288.5t-200.5 -74.5q-45 1 -80 23t-54 53.5t-32.5 63t-23.5 53.5t-19 22q-17 0 -27 -6
t-16 -24t-9 -38t-10.5 -63t-17.5 -84zM958 -66q-162 1 -278.5 21t-201 65.5t-130 114.5t-60 173t3 237t64.5 309q74 279 236.5 491.5t387.5 328.5t480 116q192 0 335 -67.5t220 -191t92.5 -296.5t-47.5 -383q-54 -187 -110 -323t-127 -241t-151.5 -171.5t-189 -108.5
t-233.5 -58.5t-291 -15.5zM1108 473q262 0 395 87t189 294q79 297 -5 473t-303 176q-220 0 -399 -176t-258 -473q-57 -206 30 -293.5t351 -87.5z" />
    <glyph glyph-name="Odieresis" unicode="&#xd6;" horiz-adv-x="2267" 
d="M1243 2527h434l-112 -428h-437zM1888 2527h434l-112 -428h-436zM958 -66q-162 1 -278.5 21t-201 65.5t-130 114.5t-60 173t3 237t64.5 309q74 279 236.5 491.5t387.5 328.5t480 116q192 0 335 -67.5t220 -191t92.5 -296.5t-47.5 -383q-54 -187 -110 -323t-127 -241
t-151.5 -171.5t-189 -108.5t-233.5 -58.5t-291 -15.5zM1108 473q262 0 395 87t189 294q79 297 -5 473t-303 176q-220 0 -399 -176t-258 -473q-57 -206 30 -293.5t351 -87.5z" />
    <glyph glyph-name="multiply" unicode="&#xd7;" horiz-adv-x="1220" 
d="M1311 825l-373 -313l307 -352h-461l-98 139l-166 -139h-454l473 346l-234 325h352l127 -145l191 139h336z" />
    <glyph glyph-name="Oslash" unicode="&#xd8;" horiz-adv-x="1689" 
d="M2357 1855l-336 -333q76 -125 87 -294t-48 -376q-54 -187 -110 -323t-127 -241t-151.5 -171.5t-189 -108.5t-233.5 -58.5t-291 -15.5q-371 3 -526 115l-645 -172l498 463q-15 194 71 514q74 279 236.5 491.5t387.5 328.5t480 116q182 0 318 -59l55 51zM727 854
q-19 -72 -22 -123l808 752q-56 20 -129 20q-220 0 -399 -176t-258 -473zM1692 854q57 209 28 369l-747 -744q61 -6 135 -6q262 0 395 87t189 294z" />
    <glyph glyph-name="Ugrave" unicode="&#xd9;" horiz-adv-x="2086" 
d="M1223 2183l-265 338h322l428 -393zM338 643l260 1118h422l-285 -934q-20 -65 -34 -115.5t-18.5 -92t-8 -72t8 -54t18.5 -39t34 -26t44 -16t59.5 -8t69 -3t83.5 -0.5q71 0 103 1t82.5 6t72.5 15.5t56.5 31t51.5 50.5t40.5 76t40.5 105.5t35 140.5l215 934h436l-355 -1118
q-40 -125 -81.5 -222.5t-91 -169t-94 -122.5t-107.5 -84t-113 -52t-129 -28t-137 -11.5t-154 -2.5q-85 0 -138 1.5t-120 8.5t-106 21t-83.5 38t-65.5 59.5t-40 87t-18.5 119.5t11 157.5t36.5 199.5z" />
    <glyph glyph-name="Uacute" unicode="&#xda;" horiz-adv-x="2086" 
d="M1702 2621h258l-277 -462h-333zM338 643l260 1118h422l-285 -934q-20 -65 -34 -115.5t-18.5 -92t-8 -72t8 -54t18.5 -39t34 -26t44 -16t59.5 -8t69 -3t83.5 -0.5q71 0 103 1t82.5 6t72.5 15.5t56.5 31t51.5 50.5t40.5 76t40.5 105.5t35 140.5l215 934h436l-355 -1118
q-40 -125 -81.5 -222.5t-91 -169t-94 -122.5t-107.5 -84t-113 -52t-129 -28t-137 -11.5t-154 -2.5q-85 0 -138 1.5t-120 8.5t-106 21t-83.5 38t-65.5 59.5t-40 87t-18.5 119.5t11 157.5t36.5 199.5z" />
    <glyph glyph-name="Ucircumflex" unicode="&#xdb;" horiz-adv-x="2086" 
d="M1645 2599l65 -152l270 -358h-264l-227 190l-336 -190h-264l463 358l133 152h160zM338 643l260 1118h422l-285 -934q-20 -65 -34 -115.5t-18.5 -92t-8 -72t8 -54t18.5 -39t34 -26t44 -16t59.5 -8t69 -3t83.5 -0.5q71 0 103 1t82.5 6t72.5 15.5t56.5 31t51.5 50.5t40.5 76
t40.5 105.5t35 140.5l215 934h436l-355 -1118q-40 -125 -81.5 -222.5t-91 -169t-94 -122.5t-107.5 -84t-113 -52t-129 -28t-137 -11.5t-154 -2.5q-85 0 -138 1.5t-120 8.5t-106 21t-83.5 38t-65.5 59.5t-40 87t-18.5 119.5t11 157.5t36.5 199.5z" />
    <glyph glyph-name="Udieresis" unicode="&#xdc;" horiz-adv-x="2086" 
d="M1049 2580h434l-113 -428h-436zM1694 2580h434l-113 -428h-436zM338 643l260 1118h422l-285 -934q-20 -65 -34 -115.5t-18.5 -92t-8 -72t8 -54t18.5 -39t34 -26t44 -16t59.5 -8t69 -3t83.5 -0.5q71 0 103 1t82.5 6t72.5 15.5t56.5 31t51.5 50.5t40.5 76t40.5 105.5
t35 140.5l215 934h436l-355 -1118q-40 -125 -81.5 -222.5t-91 -169t-94 -122.5t-107.5 -84t-113 -52t-129 -28t-137 -11.5t-154 -2.5q-85 0 -138 1.5t-120 8.5t-106 21t-83.5 38t-65.5 59.5t-40 87t-18.5 119.5t11 157.5t36.5 199.5z" />
    <glyph glyph-name="Yacute" unicode="&#xdd;" horiz-adv-x="2172" 
d="M1706 2550h258l-276 -463h-334zM864 571l-266 1186h385l211 -792l631 792h385l-910 -1186l-165 -571h-439z" />
    <glyph glyph-name="Thorn" unicode="&#xde;" horiz-adv-x="1159" 
d="M745 1274q121 -12 226.5 -60t175 -117t99 -158t5.5 -179q-32 -121 -152.5 -235t-289 -189.5t-340.5 -91.5l-80 -299h-295l414 1544h295zM995 768q7 25 -51.5 84t-135.5 108.5t-118 49.5q-4 0 -16 -4l-127 -469q12 -9 24 -9q41 0 142.5 49t188.5 107.5t93 83.5z" />
    <glyph glyph-name="germandbls" unicode="&#xdf;" horiz-adv-x="1411" 
d="M1403 1044q-130 -6 -210 -49t-101 -114q-8 -33 7 -60.5t60 -62.5l47 -37q138 -108 176.5 -190t6.5 -205q-52 -195 -211 -302.5t-394 -107.5q-141 0 -290 55l-7 -26h-395l383 1194q60 223 230 348t413 125q236 0 328 -133t27 -379zM918 535q-17 33 -26.5 52t-24 57
t-19.5 67.5t-5 70t11 78.5q41 155 138.5 244.5t264.5 124.5q-21 102 -59 131t-143 29q-111 0 -178.5 -57.5t-122.5 -201.5l-176 -788q165 -82 309 -82q186 0 203 72q6 22 -5 53q-15 30 -94 88z" />
    <glyph glyph-name="agrave" unicode="&#xe0;" horiz-adv-x="1544" 
d="M862 1554l-264 338h322l428 -393zM526 -43q-86 0 -153.5 23.5t-110.5 64t-69 95.5t-32 118t3.5 130.5t34.5 135.5q66 176 181 317t239 215t233 74q167 0 262 -65v65h227l-163 -1144h-308l23 77q-161 -106 -367 -106zM614 338q66 0 105 0.5t80 6.5t62 11.5t45 22.5
t35 32.5t26.5 49t24.5 65t24 86.5q40 149 -17.5 228.5t-205.5 79.5q-80 0 -155.5 -75.5t-166.5 -250.5q-24 -46 -38.5 -77t-24 -59.5t-11 -45.5t7 -32t23 -22t42.5 -12t61 -6.5t83 -1.5z" />
    <glyph glyph-name="aacute" unicode="&#xe1;" horiz-adv-x="1544" 
d="M1341 1993h258l-276 -463h-334zM526 -43q-86 0 -153.5 23.5t-110.5 64t-69 95.5t-32 118t3.5 130.5t34.5 135.5q66 176 181 317t239 215t233 74q167 0 262 -65v65h227l-163 -1144h-308l23 77q-161 -106 -367 -106zM614 338q66 0 105 0.5t80 6.5t62 11.5t45 22.5t35 32.5
t26.5 49t24.5 65t24 86.5q40 149 -17.5 228.5t-205.5 79.5q-80 0 -155.5 -75.5t-166.5 -250.5q-24 -46 -38.5 -77t-24 -59.5t-11 -45.5t7 -32t23 -22t42.5 -12t61 -6.5t83 -1.5z" />
    <glyph glyph-name="acircumflex" unicode="&#xe2;" horiz-adv-x="1544" 
d="M1284 1970l66 -151l270 -359h-264l-228 191l-335 -191h-265l463 359l133 151h160zM526 -43q-86 0 -153.5 23.5t-110.5 64t-69 95.5t-32 118t3.5 130.5t34.5 135.5q66 176 181 317t239 215t233 74q167 0 262 -65v65h227l-163 -1144h-308l23 77q-161 -106 -367 -106z
M614 338q66 0 105 0.5t80 6.5t62 11.5t45 22.5t35 32.5t26.5 49t24.5 65t24 86.5q40 149 -17.5 228.5t-205.5 79.5q-80 0 -155.5 -75.5t-166.5 -250.5q-24 -46 -38.5 -77t-24 -59.5t-11 -45.5t7 -32t23 -22t42.5 -12t61 -6.5t83 -1.5z" />
    <glyph glyph-name="atilde" unicode="&#xe3;" horiz-adv-x="1544" 
d="M885 1483h-170l-41 59q70 207 142 283t204 76q42 0 74.5 -21t50 -51.5t31 -60.5t26.5 -51t27 -21q13 0 20.5 5.5t13.5 22t11 36.5t16.5 60t26.5 81h145l41 -56q-41 -145 -83 -221.5t-99 -109t-147 -31.5q-45 1 -80 23t-54 53.5t-32.5 63t-23.5 53.5t-19 22q-17 0 -27 -6
t-16 -24t-9 -38t-10.5 -63t-17.5 -84zM526 -43q-86 0 -153.5 23.5t-110.5 64t-69 95.5t-32 118t3.5 130.5t34.5 135.5q66 176 181 317t239 215t233 74q167 0 262 -65v65h227l-163 -1144h-308l23 77q-161 -106 -367 -106zM614 338q66 0 105 0.5t80 6.5t62 11.5t45 22.5
t35 32.5t26.5 49t24.5 65t24 86.5q40 149 -17.5 228.5t-205.5 79.5q-80 0 -155.5 -75.5t-166.5 -250.5q-24 -46 -38.5 -77t-24 -59.5t-11 -45.5t7 -32t23 -22t42.5 -12t61 -6.5t83 -1.5z" />
    <glyph glyph-name="adieresis" unicode="&#xe4;" horiz-adv-x="1544" 
d="M688 1952h434l-112 -428h-437zM1333 1952h434l-112 -428h-436zM526 -43q-86 0 -153.5 23.5t-110.5 64t-69 95.5t-32 118t3.5 130.5t34.5 135.5q66 176 181 317t239 215t233 74q167 0 262 -65v65h227l-163 -1144h-308l23 77q-161 -106 -367 -106zM614 338q66 0 105 0.5
t80 6.5t62 11.5t45 22.5t35 32.5t26.5 49t24.5 65t24 86.5q40 149 -17.5 228.5t-205.5 79.5q-80 0 -155.5 -75.5t-166.5 -250.5q-24 -46 -38.5 -77t-24 -59.5t-11 -45.5t7 -32t23 -22t42.5 -12t61 -6.5t83 -1.5z" />
    <glyph glyph-name="aring" unicode="&#xe5;" horiz-adv-x="1544" 
d="M1083 1417q-101 0 -152 74t-22 178q28 103 118.5 176.5t191.5 73.5q100 0 151 -73.5t23 -176.5q-28 -104 -118.5 -178t-191.5 -74zM1143 1640q37 0 45.5 7.5t19.5 48.5q5 22 -6 37.5t-31 15.5t-38.5 -15.5t-24.5 -37.5q-11 -40 -6.5 -48t41.5 -8zM526 -43
q-86 0 -153.5 23.5t-110.5 64t-69 95.5t-32 118t3.5 130.5t34.5 135.5q66 176 181 317t239 215t233 74q167 0 262 -65v65h227l-163 -1144h-308l23 77q-161 -106 -367 -106zM614 338q66 0 105 0.5t80 6.5t62 11.5t45 22.5t35 32.5t26.5 49t24.5 65t24 86.5
q40 149 -17.5 228.5t-205.5 79.5q-80 0 -155.5 -75.5t-166.5 -250.5q-24 -46 -38.5 -77t-24 -59.5t-11 -45.5t7 -32t23 -22t42.5 -12t61 -6.5t83 -1.5z" />
    <glyph glyph-name="ae" unicode="&#xe6;" horiz-adv-x="2166" 
d="M2173 594l-875 -57q-14 -118 65 -181t236 -57q20 1 72 2.5t69 3t58.5 5t65.5 10t63.5 16.5t79 26t86.5 37l-100 -376q-259 -107 -500 -107q-188 0 -315 76v-6h-308l23 77q-161 -106 -367 -106q-86 0 -153.5 23.5t-110.5 64t-69 95.5t-32 118t3.5 130.5t34.5 135.5
q66 176 181 317t239 215t233 74q167 0 262 -65v65h227l-14 -98q211 170 479 170h4q227 -19 313.5 -165t49.5 -443zM1751 1016q-218 0 -362 -234l567 60q-6 30 -13.5 53t-23 47t-36.5 39t-54.5 25t-77.5 10zM614 338q66 0 105 0.5t80 6.5t62 11.5t45 22.5t35 32.5t26.5 49
t24.5 65t24 86.5q40 149 -17.5 228.5t-205.5 79.5q-80 0 -155.5 -75.5t-166.5 -250.5q-24 -46 -38.5 -77t-24 -59.5t-11 -45.5t7 -32t23 -22t42.5 -12t61 -6.5t83 -1.5z" />
    <glyph glyph-name="ccedilla" unicode="&#xe7;" horiz-adv-x="1447" 
d="M899 946q-141 0 -231.5 -92t-145.5 -293q-13 -59 0 -108.5t47.5 -80t82.5 -42.5t112.5 3t130.5 58l209 -323q-163 -75 -266 -95q58 -58 28 -174q-78 -288 -327 -288q-23 0 -83 -1.5t-108 -1.5l109 230q65 -15 81.5 -17t61.5 -2q15 0 34 4.5t41 23.5t23 50q0 25 -19 42.5
t-61 17.5q-47 0 -212 -23l88 146q-397 100 -289 579q45 194 162.5 341t284 224.5t358.5 77.5q70 0 141.5 -15t77.5 -34l-68 -252q-135 45 -262 45z" />
    <glyph glyph-name="egrave" unicode="&#xe8;" horiz-adv-x="1560" 
d="M840 1739l-265 338h322l428 -394zM1358 594l-875 -57q-14 -118 65 -181t236 -57q20 1 72 2.5t69 3t58.5 5t65.5 10t63.5 16.5t79 26t86.5 37l-100 -376q-259 -107 -500 -107q-293 0 -422.5 172t-52.5 461l2 2q92 303 302.5 477t483.5 174h4q227 -19 313.5 -165t49.5 -443
zM573 782l568 60q-6 30 -13.5 53t-23 47t-36.5 39t-54.5 25t-77.5 10q-219 0 -363 -234z" />
    <glyph glyph-name="eacute" unicode="&#xe9;" horiz-adv-x="1353" 
d="M1354 2011h258l-277 -463h-334zM1358 594l-875 -57q-14 -118 65 -181t236 -57q20 1 72 2.5t69 3t58.5 5t65.5 10t63.5 16.5t79 26t86.5 37l-100 -376q-259 -107 -500 -107q-293 0 -422.5 172t-52.5 461l2 2q92 303 302.5 477t483.5 174h4q227 -19 313.5 -165t49.5 -443z
M573 782l568 60q-6 30 -13.5 53t-23 47t-36.5 39t-54.5 25t-77.5 10q-219 0 -363 -234z" />
    <glyph glyph-name="ecircumflex" unicode="&#xea;" horiz-adv-x="1560" 
d="M1262 2154l65 -151l270 -358h-264l-227 190l-336 -190h-264l463 358l133 151h160zM1358 594l-875 -57q-14 -118 65 -181t236 -57q20 1 72 2.5t69 3t58.5 5t65.5 10t63.5 16.5t79 26t86.5 37l-100 -376q-259 -107 -500 -107q-293 0 -422.5 172t-52.5 461l2 2
q92 303 302.5 477t483.5 174h4q227 -19 313.5 -165t49.5 -443zM573 782l568 60q-6 30 -13.5 53t-23 47t-36.5 39t-54.5 25t-77.5 10q-219 0 -363 -234z" />
    <glyph glyph-name="edieresis" unicode="&#xeb;" horiz-adv-x="1560" 
d="M666 2136h434l-113 -428h-436zM1311 2136h434l-113 -428h-436zM1358 594l-875 -57q-14 -118 65 -181t236 -57q20 1 72 2.5t69 3t58.5 5t65.5 10t63.5 16.5t79 26t86.5 37l-100 -376q-259 -107 -500 -107q-293 0 -422.5 172t-52.5 461l2 2q92 303 302.5 477t483.5 174h4
q227 -19 313.5 -165t49.5 -443zM573 782l568 60q-6 30 -13.5 53t-23 47t-36.5 39t-54.5 25t-77.5 10q-219 0 -363 -234z" />
    <glyph glyph-name="igrave" unicode="&#xec;" horiz-adv-x="583" 
d="M434 1520l-264 338h322l428 -394zM90 -55q128 381 191.5 585t160.5 562h279q-103 -328 -162.5 -585t-89.5 -562h-379z" />
    <glyph glyph-name="iacute" unicode="&#xed;" horiz-adv-x="583" 
d="M913 1958h258l-276 -463h-334zM90 -55q128 381 191.5 585t160.5 562h279q-103 -328 -162.5 -585t-89.5 -562h-379z" />
    <glyph glyph-name="icircumflex" unicode="&#xee;" horiz-adv-x="583" 
d="M854 1874l66 -152l270 -358h-264l-228 190l-336 -190h-264l463 358l133 152h160zM90 -55q128 381 191.5 585t160.5 562h279q-103 -328 -162.5 -585t-89.5 -562h-379z" />
    <glyph glyph-name="idieresis" unicode="&#xef;" horiz-adv-x="583" 
d="M231 1829h435l-113 -428h-436zM877 1829h434l-113 -428h-436zM90 -55q128 381 191.5 585t160.5 562h279q-103 -328 -162.5 -585t-89.5 -562h-379z" />
    <glyph glyph-name="eth" unicode="&#xf0;" horiz-adv-x="1435" 
d="M1614 991h-201q-11 -30 -23 -61.5t-21.5 -56t-18.5 -47.5t-15.5 -39t-11.5 -28t-7 -17.5t-1 -4.5q-191 -448 -375.5 -634.5t-439.5 -186.5q-251 0 -364 155t-46 408q63 234 228 383.5t387 175.5l45 168h475q3 15 8 42.5t8 39.5q15 85 -41.5 111.5t-226.5 17.5l184 250
q206 9 308.5 -79.5t62.5 -244.5q-23 -87 -41 -137h184zM1096 858q3 8 25.5 58t31.5 75h-164q70 -46 107 -133zM891 471q17 149 -24 225t-138 76q-114 0 -199 -77.5t-122 -215.5q-22 -82 32 -134t162 -52q110 0 195.5 53.5t93.5 124.5z" />
    <glyph glyph-name="ntilde" unicode="&#xf1;" horiz-adv-x="1591" 
d="M825 1452h-170l-41 59q70 207 142.5 283t204.5 76q42 0 74 -21t50 -51t31 -60.5t26 -51.5t27 -21q13 0 20.5 5.5t13.5 22t11 36.5t16.5 60t26.5 81h146l41 -55q-41 -145 -83 -222t-99.5 -109.5t-147.5 -31.5q-45 1 -80 23t-54 53.5t-32.5 63t-23.5 53.5t-19 22
q-17 0 -27 -6t-16 -24t-9 -38t-10.5 -63t-17.5 -84zM1372 666l-143 -666h-410l273 698q45 117 7 175.5t-153 58.5q-142 0 -231.5 -73t-118.5 -212l-135 -647h-406l426 1194h232v-92q58 31 91.5 46t97 29.5t136.5 14.5q230 0 311 -126.5t23 -399.5z" />
    <glyph glyph-name="ograve" unicode="&#xf2;" horiz-adv-x="1566" 
d="M791 1604l-265 338h322l428 -394zM610 -27q-268 0 -373 153.5t-28 448.5q75 284 276 452.5t465 168.5q262 0 372.5 -168.5t35.5 -452.5q-77 -291 -276 -446.5t-472 -155.5zM725 360q50 0 85.5 4t76.5 18.5t70.5 40.5t56.5 73t45 112q43 157 -5.5 249.5t-170.5 92.5
q-120 0 -214.5 -92t-144.5 -250q-19 -61 -22.5 -103t7 -71t39.5 -45t71 -22.5t106 -6.5z" />
    <glyph glyph-name="oacute" unicode="&#xf3;" horiz-adv-x="1566" 
d="M1270 2042h258l-277 -463h-333zM610 -27q-268 0 -373 153.5t-28 448.5q75 284 276 452.5t465 168.5q262 0 372.5 -168.5t35.5 -452.5q-77 -291 -276 -446.5t-472 -155.5zM725 360q50 0 85.5 4t76.5 18.5t70.5 40.5t56.5 73t45 112q43 157 -5.5 249.5t-170.5 92.5
q-120 0 -214.5 -92t-144.5 -250q-19 -61 -22.5 -103t7 -71t39.5 -45t71 -22.5t106 -6.5z" />
    <glyph glyph-name="ocircumflex" unicode="&#xf4;" horiz-adv-x="1566" 
d="M1210 1958l66 -152l270 -358h-264l-227 190l-336 -190h-264l463 358l133 152h159zM610 -27q-268 0 -373 153.5t-28 448.5q75 284 276 452.5t465 168.5q262 0 372.5 -168.5t35.5 -452.5q-77 -291 -276 -446.5t-472 -155.5zM725 360q50 0 85.5 4t76.5 18.5t70.5 40.5
t56.5 73t45 112q43 157 -5.5 249.5t-170.5 92.5q-120 0 -214.5 -92t-144.5 -250q-19 -61 -22.5 -103t7 -71t39.5 -45t71 -22.5t106 -6.5z" />
    <glyph glyph-name="otilde" unicode="&#xf5;" horiz-adv-x="1566" 
d="M813 1532h-170l-41 59q70 207 142 283t204 76q42 0 74.5 -21t50 -51t31 -60.5t26.5 -51.5t27 -21q13 0 20.5 5.5t13.5 22t11 36.5t16.5 60t26.5 81h146l41 -56q-60 -212 -129 -288t-201 -74q-45 1 -80 23t-54 53.5t-32.5 63t-23.5 53.5t-19 22q-17 0 -27 -6t-16 -24
t-9 -38t-10.5 -63t-17.5 -84zM610 -27q-268 0 -373 153.5t-28 448.5q75 284 276 452.5t465 168.5q262 0 372.5 -168.5t35.5 -452.5q-77 -291 -276 -446.5t-472 -155.5zM725 360q50 0 85.5 4t76.5 18.5t70.5 40.5t56.5 73t45 112q43 157 -5.5 249.5t-170.5 92.5
q-120 0 -214.5 -92t-144.5 -250q-19 -61 -22.5 -103t7 -71t39.5 -45t71 -22.5t106 -6.5z" />
    <glyph glyph-name="odieresis" unicode="&#xf6;" horiz-adv-x="1566" 
d="M616 2001h435l-113 -428h-436zM1262 2001h434l-113 -428h-436zM610 -27q-268 0 -373 153.5t-28 448.5q75 284 276 452.5t465 168.5q262 0 372.5 -168.5t35.5 -452.5q-77 -291 -276 -446.5t-472 -155.5zM725 360q50 0 85.5 4t76.5 18.5t70.5 40.5t56.5 73t45 112
q43 157 -5.5 249.5t-170.5 92.5q-120 0 -214.5 -92t-144.5 -250q-19 -61 -22.5 -103t7 -71t39.5 -45t71 -22.5t106 -6.5z" />
    <glyph glyph-name="divide" unicode="&#xf7;" horiz-adv-x="1855" 
d="M885 1409h434l-113 -428h-436zM393 829l1198 54l39 -269l-1483 -41zM616 408h435l-113 -428h-436z" />
    <glyph glyph-name="oslash" unicode="&#xf8;" horiz-adv-x="1566" 
d="M1223 1126q115 -73 150.5 -214t-15.5 -337q-77 -291 -276 -446.5t-472 -155.5h-10l-25 -47l-534 -323l264 452q-194 146 -96 520q75 284 276 452.5t465 168.5h19l159 274l367 164zM524 608q-43 -136 -8 -188l305 524q-99 -23 -176.5 -111.5t-120.5 -224.5zM1059 608
q36 134 4 226l-252 -469q91 12 152.5 65t95.5 178z" />
    <glyph glyph-name="ugrave" unicode="&#xf9;" horiz-adv-x="1546" 
d="M795 1550l-265 338h322l428 -393zM532 -47q-155 0 -233.5 49t-96.5 156.5t19 279.5l150 738h268l-104 -564q-13 -69 -18.5 -113.5t1 -76t13.5 -47t36 -23.5t51 -9t74 -1q207 0 318 307l164 527h292l-280 -1170h-342l8 19q-119 -72 -320 -72z" />
    <glyph glyph-name="uacute" unicode="&#xfa;" horiz-adv-x="1353" 
d="M1323 1989h258l-276 -463h-334zM532 -47q-155 0 -233.5 49t-96.5 156.5t19 279.5l150 738h268l-104 -564q-13 -69 -18.5 -113.5t1 -76t13.5 -47t36 -23.5t51 -9t74 -1q207 0 318 307l164 527h292l-280 -1170h-342l8 19q-119 -72 -320 -72z" />
    <glyph glyph-name="ucircumflex" unicode="&#xfb;" horiz-adv-x="1546" 
d="M1217 1966l65 -151l270 -359h-264l-227 191l-336 -191h-264l463 359l133 151h160zM532 -47q-155 0 -233.5 49t-96.5 156.5t19 279.5l150 738h268l-104 -564q-13 -69 -18.5 -113.5t1 -76t13.5 -47t36 -23.5t51 -9t74 -1q207 0 318 307l164 527h292l-280 -1170h-342l8 19
q-119 -72 -320 -72z" />
    <glyph glyph-name="udieresis" unicode="&#xfc;" horiz-adv-x="1546" 
d="M621 1948h434l-113 -428h-436zM1266 1948h434l-113 -428h-436zM532 -47q-155 0 -233.5 49t-96.5 156.5t19 279.5l150 738h268l-104 -564q-13 -69 -18.5 -113.5t1 -76t13.5 -47t36 -23.5t51 -9t74 -1q207 0 318 307l164 527h292l-280 -1170h-342l8 19q-119 -72 -320 -72z
" />
    <glyph glyph-name="yacute" unicode="&#xfd;" horiz-adv-x="1736" 
d="M1309 2044h258l-277 -463h-334zM1690 1176l-768 -1383q-63 -113 -176.5 -193.5t-244 -113.5t-255.5 -16l-217 28l73 398l162 -54q47 -12 107 -3.5t122 39.5t111 69t74.5 85.5t13.5 88.5l-321 1055h327l250 -711l369 711h373z" />
    <glyph glyph-name="thorn" unicode="&#xfe;" horiz-adv-x="1159" 
d="M772 1354q102 -11 190.5 -47.5t152 -92t105 -127.5t48.5 -154.5t-17 -172.5q-51 -182 -172.5 -334.5t-287 -249t-347.5 -121.5l-120 -479h-295l534 2118h295zM997 770q14 50 -32 127t-120 135t-132 58h-8l-189 -754q30 2 79.5 22.5t110 60t117.5 90t105 120t69 141.5z
" />
    <glyph glyph-name="ydieresis" unicode="&#xff;" horiz-adv-x="1736" 
d="M655 2003h435l-113 -428h-436zM1300 2003h435l-113 -428h-436zM1690 1176l-768 -1383q-63 -113 -176.5 -193.5t-244 -113.5t-255.5 -16l-217 28l73 398l162 -54q47 -12 107 -3.5t122 39.5t111 69t74.5 85.5t13.5 88.5l-321 1055h327l250 -711l369 711h373z" />
    <glyph glyph-name="Amacron" unicode="&#x100;" horiz-adv-x="2293" 
d="M1204 2277l887 54l29 -269l-1098 -41zM127 0l1198 1741h299l236 -1741h-467l6 217h-666l-158 -217h-448zM1397 608l-35 721l-418 -721h453z" />
    <glyph glyph-name="amacron" unicode="&#x101;" horiz-adv-x="1544" 
d="M737 1706l887 53l29 -268l-1098 -41zM526 -43q-86 0 -153.5 23.5t-110.5 64t-69 95.5t-32 118t3.5 130.5t34.5 135.5q66 176 181 317t239 215t233 74q167 0 262 -65v65h227l-163 -1144h-308l23 77q-161 -106 -367 -106zM614 338q66 0 105 0.5t80 6.5t62 11.5t45 22.5
t35 32.5t26.5 49t24.5 65t24 86.5q40 149 -17.5 228.5t-205.5 79.5q-80 0 -155.5 -75.5t-166.5 -250.5q-24 -46 -38.5 -77t-24 -59.5t-11 -45.5t7 -32t23 -22t42.5 -12t61 -6.5t83 -1.5z" />
    <glyph glyph-name="Abreve" unicode="&#x102;" horiz-adv-x="2293" 
d="M2126 2472l61 2q-53 -193 -212.5 -299.5t-368.5 -106.5q-87 0 -155 13t-119.5 43t-77.5 76.5t-25.5 115t31.5 156.5h251q-4 -58 33.5 -78t143.5 -20q121 0 172 19.5t75 78.5h191zM1325 1741h299l236 -1741h-467l6 217h-666l-158 -217h-448zM944 608h453l-35 721z" />
    <glyph glyph-name="abreve" unicode="&#x103;" horiz-adv-x="1357" 
d="M860 1409q-87 0 -155 13t-119.5 43t-77.5 76t-25.5 114.5t31.5 156.5h252q-4 -58 33 -78t143 -20q121 0 172.5 19.5t75.5 78.5h190l62 3q-35 -129 -122.5 -222t-205 -138.5t-254.5 -45.5zM1114 1065v65h227l-163 -1144h-308l23 77q-161 -106 -367 -106q-86 0 -153.5 23.5
t-110.5 64t-69 95.5t-32 118t3.5 130.5t34.5 135.5q66 176 181 317t239 215t233 74q167 0 262 -65zM1016 612q40 149 -17.5 228.5t-205.5 79.5q-80 0 -155.5 -75.5t-166.5 -250.5q-24 -46 -38.5 -77t-24 -59.5t-11 -45.5t7 -32t23 -22t42.5 -12t61 -6.5t83 -1.5
q66 0 105 0.5t80 6.5t62 11.5t45 22.5t35 32.5t26.5 49t24.5 65t24 86.5z" />
    <glyph glyph-name="Aogonek" unicode="&#x104;" horiz-adv-x="2293" 
d="M1651 -27q-237 -174 -250 -225q0 1 8.5 -1t25.5 -4.5t33 -2.5q49 0 166 18q0 -2 -5 -44.5t-9.5 -85.5t-5.5 -66l-74 -66q-205 -3 -304 57.5t-69 174.5q34 125 232 272h-6l6 217h-666l-158 -217h-448l1198 1741h299l236 -1741h-211zM944 608h453l-35 721z" />
    <glyph glyph-name="aogonek" unicode="&#x105;" horiz-adv-x="1544" 
d="M1257 -39q-113 -83 -178 -142t-71 -83q0 1 8.5 -1t25.5 -4.5t33 -2.5q49 0 166 18q0 -2 -5 -45t-9.5 -86t-5.5 -66l-74 -65q-205 -3 -304 57t-69 174q35 129 230 271h-134l23 77q-161 -106 -367 -106q-86 0 -153.5 23.5t-110.5 64t-69 95.5t-32 118t3.5 130.5t34.5 135.5
q66 176 181 317t239 215t233 74q167 0 262 -65v65h227l-153 -1071q47 0 63 -2zM614 338q66 0 105 0.5t80 6.5t62 11.5t45 22.5t35 32.5t26.5 49t24.5 65t24 86.5q40 149 -17.5 228.5t-205.5 79.5q-80 0 -155.5 -75.5t-166.5 -250.5q-24 -46 -38.5 -77t-24 -59.5t-11 -45.5
t7 -32t23 -22t42.5 -12t61 -6.5t83 -1.5z" />
    <glyph glyph-name="Cacute" unicode="&#x106;" horiz-adv-x="2002" 
d="M1806 2443h258l-276 -463h-334zM2040 1757l-137 -301q-33 6 -84.5 15t-68.5 11.5t-48.5 8t-47 6t-38.5 3t-49 2.5t-53 0.5t-74 0.5q-271 0 -472 -170.5t-280 -470.5q-66 -241 44.5 -354t412.5 -113q167 0 259.5 14.5t227.5 57.5l-145 -467h-793q-98 0 -171 12.5
t-123.5 41.5t-82.5 65t-45 95.5t-14.5 119t13.5 150t35 174.5t52 204q77 288 242.5 500t398 325t506.5 113q161 0 241.5 -7t293.5 -36z" />
    <glyph glyph-name="cacute" unicode="&#x107;" horiz-adv-x="1447" 
d="M1075 1792h258l-276 -463h-334zM639 -43q-123 9 -212.5 44t-142.5 89t-78.5 128.5t-24.5 158t24 182.5q45 194 162.5 341t284 224.5t358.5 77.5q70 0 141.5 -15t77.5 -34l-68 -252q-135 45 -262 45q-141 0 -231.5 -92t-145.5 -293q-13 -59 0 -108.5t47.5 -80t82.5 -42.5
t112.5 3t130.5 58l209 -323q-269 -125 -465 -111z" />
    <glyph glyph-name="Cdotaccent" unicode="&#x10a;" horiz-adv-x="2002" 
d="M1628 2535h434l-112 -428h-437zM2040 1757l-137 -301q-33 6 -84.5 15t-68.5 11.5t-48.5 8t-47 6t-38.5 3t-49 2.5t-53 0.5t-74 0.5q-271 0 -472 -170.5t-280 -470.5q-66 -241 44.5 -354t412.5 -113q167 0 259.5 14.5t227.5 57.5l-145 -467h-793q-98 0 -171 12.5
t-123.5 41.5t-82.5 65t-45 95.5t-14.5 119t13.5 150t35 174.5t52 204q77 288 242.5 500t398 325t506.5 113q161 0 241.5 -7t293.5 -36z" />
    <glyph glyph-name="cdotaccent" unicode="&#x10b;" horiz-adv-x="1447" 
d="M897 1884h434l-112 -428h-437zM639 -43q-123 9 -212.5 44t-142.5 89t-78.5 128.5t-24.5 158t24 182.5q45 194 162.5 341t284 224.5t358.5 77.5q70 0 141.5 -15t77.5 -34l-68 -252q-135 45 -262 45q-141 0 -231.5 -92t-145.5 -293q-13 -59 0 -108.5t47.5 -80t82.5 -42.5
t112.5 3t130.5 58l209 -323q-269 -125 -465 -111z" />
    <glyph glyph-name="Ccaron" unicode="&#x10c;" horiz-adv-x="2002" 
d="M1571 1995l-66 151l-270 359h264l227 -191l336 191h265l-463 -359l-133 -151h-160zM2040 1757l-137 -301q-33 6 -84.5 15t-68.5 11.5t-48.5 8t-47 6t-38.5 3t-49 2.5t-53 0.5t-74 0.5q-271 0 -472 -170.5t-280 -470.5q-66 -241 44.5 -354t412.5 -113q167 0 259.5 14.5
t227.5 57.5l-145 -467h-793q-98 0 -171 12.5t-123.5 41.5t-82.5 65t-45 95.5t-14.5 119t13.5 150t35 174.5t52 204q77 288 242.5 500t398 325t506.5 113q161 0 241.5 -7t293.5 -36z" />
    <glyph glyph-name="ccaron" unicode="&#x10d;" horiz-adv-x="1447" 
d="M840 1343l-66 152l-270 358h264l227 -190l336 190h264l-462 -358l-134 -152h-159zM639 -43q-123 9 -212.5 44t-142.5 89t-78.5 128.5t-24.5 158t24 182.5q45 194 162.5 341t284 224.5t358.5 77.5q70 0 141.5 -15t77.5 -34l-68 -252q-135 45 -262 45q-141 0 -231.5 -92
t-145.5 -293q-13 -59 0 -108.5t47.5 -80t82.5 -42.5t112.5 3t130.5 58l209 -323q-269 -125 -465 -111z" />
    <glyph glyph-name="Dcaron" unicode="&#x10e;" horiz-adv-x="2136" 
d="M1315 1933l-66 152l-270 358h264l227 -190l336 190h265l-463 -358l-133 -152h-160zM127 0l485 1757h537q522 0 716 -223t64 -682q-125 -441 -320 -631q-150 -147 -390 -192q-153 -28 -471 -29h-82h-539zM662 510h208q238 0 388.5 39.5t237 125t124.5 230.5
q72 269 -51.5 403t-448.5 134h-209z" />
    <glyph glyph-name="dcaron" unicode="&#x10f;" horiz-adv-x="1576" 
d="M1167 1049l203 645h299l-377 -1213l-118 -481h-289v90q-150 -131 -332 -137q-251 -7 -343 156t-5 450q49 167 151.5 302.5t241 213.5t285.5 78q190 0 284 -104zM1878 1083h-313l219 547h272zM457 580q-31 -114 15 -167t179 -53q147 0 207 46t98 188q41 155 3 235t-154 80
q-119 0 -213.5 -89t-134.5 -240z" />
    <glyph glyph-name="Dcroat" unicode="&#x110;" horiz-adv-x="2136" 
d="M1149 1757q522 0 716 -223t64 -682q-125 -441 -320 -631q-150 -147 -390 -192q-153 -28 -471 -29h-82h-539l225 819h-323l57 215h326l200 723h537zM1620 905q72 269 -51.5 403t-448.5 134h-209l-108 -408h205l-58 -215h-207l-81 -309h208q238 0 388.5 39.5t237 125
t124.5 230.5z" />
    <glyph glyph-name="dcroat" unicode="&#x111;" horiz-adv-x="1576" 
d="M1876 1395l-57 -215h-310l-217 -699l-118 -481h-289v90q-150 -131 -332 -137q-251 -7 -343 156t-5 450q49 167 151.5 302.5t241 213.5t285.5 78q190 0 284 -104l41 131h-311l57 215h322l94 299h299l-92 -299h299zM956 594q41 155 3 235t-154 80q-119 0 -213.5 -89
t-134.5 -240q-31 -114 15 -167t179 -53q147 0 207 46t98 188z" />
    <glyph glyph-name="Emacron" unicode="&#x112;" horiz-adv-x="1837" 
d="M963 2308l886 53l29 -268l-1098 -41zM127 0l539 1722l1194 37l-166 -295l-768 -41l-101 -381l578 25l-84 -315l-582 -37l-80 -295h766l-20 -420h-1276z" />
    <glyph glyph-name="emacron" unicode="&#x113;" horiz-adv-x="1560" 
d="M715 1890l887 54l28 -269l-1098 -41zM1358 594l-875 -57q-14 -118 65 -181t236 -57q20 1 72 2.5t69 3t58.5 5t65.5 10t63.5 16.5t79 26t86.5 37l-100 -376q-259 -107 -500 -107q-293 0 -422.5 172t-52.5 461l2 2q92 303 302.5 477t483.5 174h4q227 -19 313.5 -165
t49.5 -443zM573 782l568 60q-6 30 -13.5 53t-23 47t-36.5 39t-54.5 25t-77.5 10q-219 0 -363 -234z" />
    <glyph glyph-name="Ebreve" unicode="&#x114;" horiz-adv-x="1837" 
d="M1364 2099q-87 0 -155 13t-119.5 43t-77.5 76.5t-25.5 115t31.5 156.5h252q-4 -58 33.5 -78.5t142.5 -20.5q120 0 172 20t76 79h190l62 2q-35 -129 -122.5 -222t-205 -138.5t-254.5 -45.5zM127 0l539 1722l1194 37l-166 -295l-768 -41l-101 -381l578 25l-84 -315
l-582 -37l-80 -295h766l-20 -420h-1276z" />
    <glyph glyph-name="ebreve" unicode="&#x115;" horiz-adv-x="1560" 
d="M1636 2085l62 2q-35 -129 -122.5 -222t-205 -138.5t-254.5 -45.5q-87 0 -155 13t-119.5 43t-77.5 76.5t-25.5 115t31.5 156.5h252q-4 -58 33 -78t143 -20q121 0 172.5 19.5t75.5 78.5h190zM995 1202q227 -19 313.5 -165t49.5 -443l-875 -57q-14 -118 65 -181t236 -57
q20 1 72 2.5t69 3t58.5 5t65.5 10t63.5 16.5t79 26t86.5 37l-100 -376q-259 -107 -500 -107q-293 0 -422.5 172t-52.5 461l2 2q92 303 302.5 477t483.5 174h4zM573 782l568 60q-6 30 -13.5 53t-23 47t-36.5 39t-54.5 25t-77.5 10q-219 0 -363 -234z" />
    <glyph glyph-name="Edotaccent" unicode="&#x116;" horiz-adv-x="1837" 
d="M1272 2613h434l-113 -428h-436zM127 0l539 1722l1194 37l-166 -295l-768 -41l-101 -381l578 25l-84 -315l-582 -37l-80 -295h766l-20 -420h-1276z" />
    <glyph glyph-name="edotaccent" unicode="&#x117;" horiz-adv-x="1560" 
d="M1024 2195h434l-112 -428h-437zM1358 594l-875 -57q-14 -118 65 -181t236 -57q20 1 72 2.5t69 3t58.5 5t65.5 10t63.5 16.5t79 26t86.5 37l-100 -376q-259 -107 -500 -107q-293 0 -422.5 172t-52.5 461l2 2q92 303 302.5 477t483.5 174h4q227 -19 313.5 -165t49.5 -443z
M573 782l568 60q-6 30 -13.5 53t-23 47t-36.5 39t-54.5 25t-77.5 10q-219 0 -363 -234z" />
    <glyph glyph-name="Eogonek" unicode="&#x118;" horiz-adv-x="1837" 
d="M1694 1464l-768 -41l-101 -381l578 25l-84 -315l-582 -37l-80 -295h766l-20 -420h-463v-4q-237 -174 -250 -225q0 1 8.5 -1t26 -5t33.5 -3q42 0 166 19q0 -4 -5.5 -45.5t-10 -85t-5.5 -66.5l-74 -65q-205 -3 -303.5 57t-68.5 174q30 116 202 250h-532l539 1722l1194 37z
" />
    <glyph glyph-name="eogonek" unicode="&#x119;" horiz-adv-x="1560" 
d="M1358 594l-875 -57q-14 -118 65 -181t236 -57q20 1 72 2.5t69 3t58.5 5t65.5 10t63.5 16.5t79 26t86.5 37l-100 -376q-130 -54 -236 -76q-228 -166 -242 -219q0 1 8.5 -1t26 -5t33.5 -3q42 0 166 19q0 -4 -5.5 -45.5t-10 -85t-5.5 -66.5l-73 -65q-205 -3 -304 57t-69 174
q26 97 156 211q-266 17 -379.5 186.5t-40.5 444.5l2 2q92 303 302.5 477t483.5 174h4q227 -19 313.5 -165t49.5 -443zM936 1016q-219 0 -363 -234l568 60q-6 30 -13.5 53t-23 47t-36.5 39t-54.5 25t-77.5 10z" />
    <glyph glyph-name="Ecaron" unicode="&#x11a;" horiz-adv-x="1837" 
d="M1214 2073l-65 151l-270 359h264l227 -191l336 191h264l-463 -359l-133 -151h-160zM127 0l539 1722l1194 37l-166 -295l-768 -41l-101 -381l578 25l-84 -315l-582 -37l-80 -295h766l-20 -420h-1276z" />
    <glyph glyph-name="ecaron" unicode="&#x11b;" horiz-adv-x="1560" 
d="M967 1655l-66 151l-270 359h264l227 -191l336 191h264l-462 -359l-134 -151h-159zM1358 594l-875 -57q-14 -118 65 -181t236 -57q20 1 72 2.5t69 3t58.5 5t65.5 10t63.5 16.5t79 26t86.5 37l-100 -376q-259 -107 -500 -107q-293 0 -422.5 172t-52.5 461l2 2
q92 303 302.5 477t483.5 174h4q227 -19 313.5 -165t49.5 -443zM573 782l568 60q-6 30 -13.5 53t-23 47t-36.5 39t-54.5 25t-77.5 10q-219 0 -363 -234z" />
    <glyph glyph-name="Gbreve" unicode="&#x11e;" horiz-adv-x="2295" 
d="M2167 2497l61 2q-53 -193 -212.5 -299.5t-368.5 -106.5q-87 0 -155 13t-119.5 43t-78 76.5t-26 115t31.5 156.5h252q-4 -58 33.5 -78.5t143.5 -20.5q120 0 171.5 20t75.5 79h191zM1466 1487q-81 0 -128.5 -1.5t-109 -7t-98 -18t-82.5 -33t-75.5 -52.5t-64 -76t-60.5 -105
t-53.5 -138.5t-53.5 -176.5q-26 -109 -26 -186t25 -132.5t83 -88t144 -47.5t213 -15q209 0 307 53l33 135l-295 53l47 295l758 -88l-31 -342l-164 27l-82 -400q-191 -114 -359.5 -160t-367.5 -46q-815 0 -661 917q42 254 133 431.5t238 286.5t339 157.5t451 48.5
q276 0 510 -43l-41 -318q-213 70 -529 70z" />
    <glyph glyph-name="gbreve" unicode="&#x11f;" horiz-adv-x="1562" 
d="M1044 1350q-87 0 -155 13t-119.5 43t-77.5 76t-25.5 114.5t31.5 156.5h252q-4 -58 33 -78t143 -20q121 0 172.5 19.5t75.5 78.5h191l61 2q-52 -192 -212.5 -298.5t-369.5 -106.5zM1171 1071l58 105h287l-324 -1037q-220 -708 -782 -708q-124 0 -246 33.5t-205 91.5
l211 319q64 -49 101 -73.5t92.5 -46t109.5 -21.5q110 0 232 114.5t194 264.5l-94 -86l-1 2q-120 -81 -245 -82q-233 0 -329 172t-21 454q76 284 266.5 467t419.5 183q93 0 166.5 -46t109.5 -106zM954 584q47 177 6 270.5t-167 93.5q-125 0 -218.5 -93t-140.5 -269
q-9 -55 -12.5 -89.5t1.5 -62.5t16 -42t37 -23.5t57.5 -12t84.5 -2.5q117 0 178.5 18.5t97 66t60.5 145.5z" />
    <glyph glyph-name="Gdotaccent" unicode="&#x120;" horiz-adv-x="2295" 
d="M1554 2607h435l-113 -428h-436zM1487 463l33 135l-295 53l47 295l758 -88l-31 -342l-164 27l-82 -400q-191 -114 -359.5 -160t-367.5 -46q-815 0 -661 917q42 254 133 431.5t238 286.5t339 157.5t451 48.5q276 0 510 -43l-41 -318q-213 70 -529 70q-81 0 -128.5 -1.5
t-109 -7t-98 -18t-82.5 -33t-75.5 -52.5t-64 -76t-60.5 -105t-53.5 -138.5t-53.5 -176.5q-26 -109 -26 -186t25 -132.5t83 -88t144 -47.5t213 -15q209 0 307 53z" />
    <glyph glyph-name="gdotaccent" unicode="&#x121;" horiz-adv-x="1562" 
d="M952 1864h434l-112 -428h-436zM410 -569q-124 0 -246 33.5t-205 91.5l211 319q64 -49 101 -73.5t92.5 -46t109.5 -21.5q110 0 232 114.5t194 264.5l-94 -86l-1 2q-120 -81 -245 -82q-233 0 -329 172t-21 454q76 284 266.5 467t419.5 183q93 0 166.5 -46t109.5 -106
l58 105h287l-324 -1037q-220 -708 -782 -708zM618 354q117 0 178.5 18.5t97 66t60.5 145.5q47 177 6 270.5t-167 93.5q-125 0 -218.5 -93t-140.5 -269q-9 -55 -12.5 -89.5t1.5 -62.5t16 -42t37 -23.5t57.5 -12t84.5 -2.5z" />
    <glyph glyph-name="uni0122" unicode="&#x122;" horiz-adv-x="2295" 
d="M1225 651l47 295l758 -88l-31 -342l-164 27l-82 -400q-191 -114 -359.5 -160t-367.5 -46q-815 0 -661 917q42 254 133 431.5t238 286.5t339 157.5t451 48.5q276 0 510 -43l-41 -318q-213 70 -529 70q-81 0 -128.5 -1.5t-109 -7t-98 -18t-82.5 -33t-75.5 -52.5t-64 -76
t-60.5 -105t-53.5 -138.5t-53.5 -176.5q-26 -109 -26 -186t25 -132.5t83 -88t144 -47.5t213 -15q209 0 307 53l33 135zM1350 -168l-201 -362l-10 -37h-11l-165 -299h-453l272 428l74 270h494z" />
    <glyph glyph-name="uni0123" unicode="&#x123;" horiz-adv-x="1562" 
d="M1229 1176h287l-324 -1037q-200 -644 -680 -702h236l-201 -363l-10 -37h-11l-166 -299h-452l272 428l74 271h51q-206 22 -346 119l211 319q64 -49 101 -73.5t92.5 -46t109.5 -21.5q110 0 232 114.5t194 264.5l-94 -86l-1 2q-120 -81 -245 -82q-233 0 -329 172t-21 454
q76 284 266.5 467t419.5 183q93 0 166.5 -46t109.5 -106zM954 584q47 177 6 270.5t-167 93.5q-125 0 -218.5 -93t-140.5 -269q-9 -55 -12.5 -89.5t1.5 -62.5t16 -42t37 -23.5t57.5 -12t84.5 -2.5q117 0 178.5 18.5t97 66t60.5 145.5z" />
    <glyph glyph-name="hcircumflex" unicode="&#x125;" horiz-adv-x="1607" 
d="M1061 2316l65 -151l271 -359h-264l-228 191l-336 -191h-264l463 359l133 151h160zM1395 680l-150 -680h-414q237 497 289 669q49 160 0 212q-37 39 -153 39q-78 0 -130.5 -11.5t-101.5 -48.5t-81 -97.5t-63 -166.5t-55 -248t-49 -348h-432l600 1694h297l-200 -609
q85 53 156.5 73t168.5 20q100 0 166 -15t110 -49t60 -93t12 -141t-30 -200z" />
    <glyph glyph-name="Hbar" unicode="&#x126;" horiz-adv-x="2119" 
d="M2177 1339l-102 -297h-170l-234 -1042h-502l129 432h-602l-98 -432h-485l309 1047h-229l100 296h215l141 478h365l-109 -480h668l143 480h363l-109 -482h207zM1438 893l45 151h-645l-35 -151h635z" />
    <glyph glyph-name="hbar" unicode="&#x127;" horiz-adv-x="1363" 
d="M1077 1178q100 0 166 -15t110 -49t60 -93t12 -141t-30 -200l-150 -680h-414q237 497 289 669q49 160 0 212q-37 39 -153 39q-78 0 -130.5 -11.5t-101.5 -48.5t-81 -97.5t-63 -166.5t-55 -248t-49 -348h-432l465 1315l-319 -31l51 217l346 33l57 160h297l-43 -129l236 22
l-49 -219l-258 -25l-86 -258q85 53 156.5 73t168.5 20z" />
    <glyph glyph-name="Itilde" unicode="&#x128;" horiz-adv-x="1028" 
d="M846 2140h-170l-41 60q70 207 142 282.5t204 75.5q42 0 74.5 -21t50 -51t31 -60.5t26.5 -51.5t27 -21q13 0 20.5 5.5t13.5 22t11 36.5t16.5 60t26.5 81h145l41 -55q-60 -213 -128.5 -288.5t-200.5 -74.5q-45 1 -80 23t-54 53.5t-32.5 63t-23.5 53.5t-19 22q-17 0 -27 -6
t-16 -24t-9 -38t-10.5 -63t-17.5 -84zM127 0q204 524 351.5 1034t154.5 731h391q-309 -976 -430 -1765h-467z" />
    <glyph glyph-name="itilde" unicode="&#x129;" horiz-adv-x="583" 
d="M586 1491h-170l-41 59q70 207 142 283t204 76q42 0 74.5 -21t50 -51.5t31 -60.5t26.5 -51t27 -21q13 0 20.5 5.5t13.5 22t11 36.5t16.5 60t26.5 81h145l41 -56q-60 -212 -129 -288t-201 -74q-45 1 -80 23t-54 53.5t-32 63t-23 53.5t-19 22q-17 0 -27 -6t-16 -24t-9 -38
t-10.5 -63t-17.5 -84zM90 -55q128 381 191.5 585t160.5 562h279q-103 -328 -162.5 -585t-89.5 -562h-379z" />
    <glyph glyph-name="Imacron" unicode="&#x12a;" horiz-adv-x="1028" 
d="M569 2320l887 54l29 -269l-1098 -41zM127 0q204 524 351.5 1034t154.5 731h391q-309 -976 -430 -1765h-467z" />
    <glyph glyph-name="imacron" unicode="&#x12b;" horiz-adv-x="583" 
d="M309 1671l887 53l29 -268l-1098 -41zM90 -55q128 381 191.5 585t160.5 562h279q-103 -328 -162.5 -585t-89.5 -562h-379z" />
    <glyph glyph-name="Iogonek" unicode="&#x12e;" horiz-adv-x="620" 
d="M428 0q-112 -82 -177 -140.5t-71 -82.5q0 1 8.5 -1t26 -4.5t33.5 -2.5q49 0 166 18q0 -4 -5.5 -45.5t-10 -85t-5.5 -66.5l-74 -65q-205 -3 -303.5 57t-68.5 174q29 110 194 244h-14q204 524 351.5 1034t154.5 731h391q-309 -976 -430 -1765h-166z" />
    <glyph glyph-name="iogonek" unicode="&#x12f;" horiz-adv-x="583" 
d="M618 1976h435l-113 -428h-436zM98 -35q89 268 127.5 386.5t94.5 307t122 433.5h279q-103 -328 -162.5 -585t-89.5 -562h-115q-213 -160 -227 -209q0 1 8.5 -1t26 -4.5t33.5 -2.5q48 0 165 18q0 -2 -5 -45t-9.5 -86t-5.5 -66l-74 -65q-205 -3 -303.5 57t-68.5 174
q30 117 204 250z" />
    <glyph glyph-name="Idotaccent" unicode="&#x130;" horiz-adv-x="1028" 
d="M879 2626h434l-113 -428h-436zM127 0q204 524 351.5 1034t154.5 731h391q-309 -976 -430 -1765h-467z" />
    <glyph glyph-name="dotlessi" unicode="&#x131;" horiz-adv-x="583" 
d="M90 -55q128 381 191.5 585t160.5 562h279q-103 -328 -162.5 -585t-89.5 -562h-379z" />
    <glyph glyph-name="IJ" unicode="&#x132;" horiz-adv-x="1028" 
d="M127 0q204 524 351.5 1034t154.5 731h391q-309 -976 -430 -1765h-467zM1325 98l528 1647h396l-607 -1851q-41 -127 -97.5 -225t-115 -156.5t-125 -94.5t-125.5 -47.5t-118 -7.5l-627 51l314 441l225 -62q43 -11 79 -12t65 7t54.5 27.5t45.5 44.5t39.5 63.5t35 79
t33.5 95.5z" />
    <glyph glyph-name="ij" unicode="&#x133;" horiz-adv-x="1941" 
d="M1632 1827h434l-112 -428h-436zM459 1268l106 344h273l-78 -344h-301zM664 -508l124 356q198 -82 349 86q57 63 109 166.5t136 359.5t187 660h309l-365 -1009q-105 -292 -141 -369q-41 -86 -80 -119q-68 -58 -252 -100t-376 -31zM72 0q8 115 47.5 227t89.5 204.5t99 189
t82.5 218t33.5 253.5h278q2 -131 -27.5 -254t-70.5 -217.5t-80.5 -188.5t-61.5 -205t-11 -227h-379z" />
    <glyph glyph-name="jcircumflex" unicode="&#x135;" horiz-adv-x="1196" 
d="M1231 1894l65 -151l271 -359h-264l-228 191l-336 -191h-264l463 359l133 151h160zM-80 -508l125 356q198 -82 348 86q57 63 109 166.5t136 359.5t187 660h310l-365 -1009q-105 -292 -141 -369q-41 -86 -80 -119q-68 -58 -252.5 -100t-376.5 -31z" />
    <glyph glyph-name="uni0136" unicode="&#x136;" horiz-adv-x="2144" 
d="M2071 1737l-1006 -971l645 -766h-733l-227 477l-168 -477h-455l791 1737h352l-342 -652l694 652h449zM1104 -29l-201 -362l-10 -37h-10l-166 -299h-453l273 428l73 270h494z" />
    <glyph glyph-name="uni0137" unicode="&#x137;" horiz-adv-x="1648" 
d="M512 342l-92 -342h-365q112 199 242 576.5t212 698.5t83 425h319l-276 -864l285 221l362 41l-520 -482l524 -616h-592zM809 -168l-201 -362l-10 -37h-10l-166 -299h-453l273 428l73 270h494z" />
    <glyph glyph-name="kgreenlandic" unicode="&#x138;" horiz-adv-x="1341" 
d="M80 0l493 1085h222l-215 -405l434 405h280l-628 -606l403 -479h-459l-141 299l-104 -299h-285z" />
    <glyph glyph-name="Lacute" unicode="&#x139;" horiz-adv-x="1837" 
d="M1040 2361h258l-276 -463h-334zM127 0l549 1743h354l-362 -1337l827 14l-92 -420h-1276z" />
    <glyph glyph-name="lacute" unicode="&#x13a;" horiz-adv-x="1038" 
d="M61 0q15 115 103.5 373t226.5 640.5t221 647.5h310q-86 -216 -156 -399.5t-160.5 -434t-126 -397.5t-0.5 -147h238l-41 -283h-615zM1251 1628h258l-276 -463h-334z" />
    <glyph glyph-name="uni013B" unicode="&#x13b;" horiz-adv-x="1837" 
d="M668 406l827 14l-92 -420h-1276l549 1743h354zM1137 -10l-201 -363l-10 -37h-11l-165 -299h-453l272 428l74 271h494z" />
    <glyph glyph-name="uni013C" unicode="&#x13c;" horiz-adv-x="1038" 
d="M922 1661q-86 -216 -156 -399.5t-160.5 -434t-126 -397.5t-0.5 -147h238l-41 -283h-615q15 115 103.5 373t226.5 640.5t221 647.5h310zM629 -106l-201 -363l-10 -37h-10l-166 -299h-453l272 428l74 271h494z" />
    <glyph glyph-name="Lcaron" unicode="&#x13d;" horiz-adv-x="1837" 
d="M1479 1200h-314l219 547h273zM127 0l549 1743h354l-362 -1337l827 14l-92 -420h-1276z" />
    <glyph glyph-name="lcaron" unicode="&#x13e;" horiz-adv-x="1038" 
d="M61 0q15 115 103.5 373t226.5 640.5t221 647.5h310q-86 -216 -156 -399.5t-160.5 -434t-126 -397.5t-0.5 -147h238l-41 -283h-615zM1077 700h-313l219 547h272z" />
    <glyph glyph-name="Ldot" unicode="&#x13f;" horiz-adv-x="1837" 
d="M1143 1825h434l-113 -428h-436zM127 0l549 1743h354l-362 -1337l827 14l-92 -420h-1276z" />
    <glyph glyph-name="ldot" unicode="&#x140;" horiz-adv-x="1038" 
d="M61 0q15 115 103.5 373t226.5 640.5t221 647.5h310q-86 -216 -156 -399.5t-160.5 -434t-126 -397.5t-0.5 -147h238l-41 -283h-615zM969 1430h434l-113 -429h-436z" />
    <glyph glyph-name="Lslash" unicode="&#x141;" horiz-adv-x="1288" 
d="M668 406l827 14l-92 -420h-1276l203 647l-115 -49l-350 121l553 205l258 819h354l-178 -658l201 74l219 -117l-488 -204z" />
    <glyph glyph-name="lslash" unicode="&#x142;" horiz-adv-x="798" 
d="M639 924q-103 -282 -150.5 -461.5t-9.5 -179.5h238l-41 -283h-615q4 28 11 62t21 82t25 85.5t33.5 104.5t35.5 106.5t43 123t44 122t49.5 137t49.5 135.5l-236 60l269 33q123 340 206 610h310q-164 -417 -224 -576l490 60l285 -88z" />
    <glyph glyph-name="Nacute" unicode="&#x143;" horiz-adv-x="2109" 
d="M1894 2353l-276 -463h-334l352 463h258zM1806 1753h338l-585 -1753h-480l-172 1100l-270 -1100h-510l614 1690h387l256 -1133z" />
    <glyph glyph-name="nacute" unicode="&#x144;" horiz-adv-x="1591" 
d="M1165 1888h258l-276 -463h-334zM1372 666l-143 -666h-410l273 698q45 117 7 175.5t-153 58.5q-142 0 -231.5 -73t-118.5 -212l-135 -647h-406l426 1194h232v-92q58 31 91.5 46t97 29.5t136.5 14.5q230 0 311 -126.5t23 -399.5z" />
    <glyph glyph-name="uni0145" unicode="&#x145;" horiz-adv-x="1566" 
d="M1806 1753h338l-585 -1753h-105l-201 -362l-10 -37h-10l-166 -299h-453l273 428l74 270h118l-172 1100l-270 -1100h-510l614 1690h387l256 -1133z" />
    <glyph glyph-name="uni0146" unicode="&#x146;" horiz-adv-x="1591" 
d="M1038 1192q230 0 311 -126.5t23 -399.5l-143 -666h-410l273 698q45 117 7 175.5t-153 58.5q-142 0 -231.5 -73t-118.5 -212l-135 -647h-406l426 1194h232v-92q58 31 91.5 46t97 29.5t136.5 14.5zM1018 -29l-201 -362l-10 -37h-10l-166 -299h-453l273 428l73 270h494z" />
    <glyph glyph-name="Ncaron" unicode="&#x147;" horiz-adv-x="2109" 
d="M1401 1905l-66 151l-270 359h264l227 -191l336 191h265l-463 -359l-133 -151h-160zM1384 557l422 1196h338l-585 -1753h-480l-172 1100l-270 -1100h-510l614 1690h387z" />
    <glyph glyph-name="ncaron" unicode="&#x148;" horiz-adv-x="1591" 
d="M930 1440l-66 151l-270 359h264l227 -191l336 191h265l-463 -359l-133 -151h-160zM1372 666l-143 -666h-410l273 698q45 117 7 175.5t-153 58.5q-142 0 -231.5 -73t-118.5 -212l-135 -647h-406l426 1194h232v-92q58 31 91.5 46t97 29.5t136.5 14.5q230 0 311 -126.5
t23 -399.5z" />
    <glyph glyph-name="napostrophe" unicode="&#x149;" horiz-adv-x="1591" 
d="M205 1120l-486 -73l428 526h322zM1372 666l-143 -666h-410l273 698q45 117 7 175.5t-153 58.5q-142 0 -231.5 -73t-118.5 -212l-135 -647h-406l426 1194h232v-92q58 31 91.5 46t97 29.5t136.5 14.5q230 0 311 -126.5t23 -399.5z" />
    <glyph glyph-name="Eng" unicode="&#x14a;" horiz-adv-x="2109" 
d="M2144 1753l-585 -1753q-76 -239 -193 -315q-53 -34 -221 -56.5t-321 -18.5t-169 36q63 89 154 239h164h18h26.5t18.5 4t15.5 9.5t12.5 20t14 32t16 49.5h-15l-172 1100l-270 -1100h-510l614 1690h387l256 -1133l422 1196h338z" />
    <glyph glyph-name="eng" unicode="&#x14b;" horiz-adv-x="1591" 
d="M1038 1192q230 0 311 -126.5t23 -399.5l-143 -666h-6q-64 -231 -162 -307q-45 -34 -187.5 -56.5t-272.5 -18.5t-144 36q40 63 131 240h139q6 0 17.5 -0.5t15.5 0t11.5 1t10 3t7.5 5t7.5 9t6.5 13t7.5 19t7.5 24.5t9 32h-8l273 698q45 117 7 175.5t-153 58.5
q-142 0 -231.5 -73t-118.5 -212l-135 -647h-406l426 1194h232v-92q58 31 91.5 46t97 29.5t136.5 14.5z" />
    <glyph glyph-name="Omacron" unicode="&#x14c;" horiz-adv-x="2267" 
d="M1292 2281l887 54l29 -269l-1098 -41zM958 -66q-162 1 -278.5 21t-201 65.5t-130 114.5t-60 173t3 237t64.5 309q74 279 236.5 491.5t387.5 328.5t480 116q192 0 335 -67.5t220 -191t92.5 -296.5t-47.5 -383q-54 -187 -110 -323t-127 -241t-151.5 -171.5t-189 -108.5
t-233.5 -58.5t-291 -15.5zM1108 473q262 0 395 87t189 294q79 297 -5 473t-303 176q-220 0 -399 -176t-258 -473q-57 -206 30 -293.5t351 -87.5z" />
    <glyph glyph-name="omacron" unicode="&#x14d;" horiz-adv-x="1566" 
d="M666 1755l886 53l29 -268l-1098 -41zM610 -27q-268 0 -373 153.5t-28 448.5q75 284 276 452.5t465 168.5q262 0 372.5 -168.5t35.5 -452.5q-77 -291 -276 -446.5t-472 -155.5zM725 360q50 0 85.5 4t76.5 18.5t70.5 40.5t56.5 73t45 112q43 157 -5.5 249.5t-170.5 92.5
q-120 0 -214.5 -92t-144.5 -250q-19 -61 -22.5 -103t7 -71t39.5 -45t71 -22.5t106 -6.5z" />
    <glyph glyph-name="Obreve" unicode="&#x14e;" horiz-adv-x="1882" 
d="M1475 1896q-87 0 -155 13t-119.5 43t-78 76.5t-26 115t31.5 156.5h252q-4 -58 33 -78t143 -20q121 0 172.5 19.5t75.5 78.5h191l61 2q-53 -193 -212.5 -299.5t-368.5 -106.5zM1460 1790q192 0 335 -67.5t220 -191t92.5 -296.5t-47.5 -383q-54 -187 -110 -323t-127 -241
t-151.5 -171.5t-189 -108.5t-233.5 -58.5t-291 -15.5q-162 1 -278.5 21t-201 65.5t-130 114.5t-60 173t3 237t64.5 309q74 279 236.5 491.5t387.5 328.5t480 116zM1692 854q79 297 -5 473t-303 176q-220 0 -399 -176t-258 -473q-57 -206 30 -293.5t351 -87.5q262 0 395 87
t189 294z" />
    <glyph glyph-name="obreve" unicode="&#x14f;" horiz-adv-x="1566" 
d="M1587 1950l62 2q-53 -193 -213 -299.5t-369 -106.5q-87 0 -155 13t-119.5 43t-77.5 76.5t-25.5 115t31.5 156.5h252q-4 -58 33.5 -78.5t142.5 -20.5q120 0 172 20t76 79h190zM950 1196q262 0 372.5 -168.5t35.5 -452.5q-77 -291 -276 -446.5t-472 -155.5
q-268 0 -373 153.5t-28 448.5q75 284 276 452.5t465 168.5zM1059 608q43 157 -5.5 249.5t-170.5 92.5q-120 0 -214.5 -92t-144.5 -250q-19 -61 -22.5 -103t7 -71t39.5 -45t71 -22.5t106 -6.5q50 0 85.5 4t76.5 18.5t70.5 40.5t56.5 73t45 112z" />
    <glyph glyph-name="Ohungarumlaut" unicode="&#x150;" horiz-adv-x="2267" 
d="M2314 1942l-485 -56l428 393h321zM1628 1915l-485 -55l428 393h321zM958 -66q-162 1 -278.5 21t-201 65.5t-130 114.5t-60 173t3 237t64.5 309q74 279 236.5 491.5t387.5 328.5t480 116q192 0 335 -67.5t220 -191t92.5 -296.5t-47.5 -383q-54 -187 -110 -323t-127 -241
t-151.5 -171.5t-189 -108.5t-233.5 -58.5t-291 -15.5zM1108 473q262 0 395 87t189 294q79 297 -5 473t-303 176q-220 0 -399 -176t-258 -473q-57 -206 30 -293.5t351 -87.5z" />
    <glyph glyph-name="ohungarumlaut" unicode="&#x151;" horiz-adv-x="1566" 
d="M1688 1415l-486 -55l428 393h322zM1001 1389l-485 -56l428 393h322zM610 -27q-268 0 -373 153.5t-28 448.5q75 284 276 452.5t465 168.5q262 0 372.5 -168.5t35.5 -452.5q-77 -291 -276 -446.5t-472 -155.5zM725 360q50 0 85.5 4t76.5 18.5t70.5 40.5t56.5 73t45 112
q43 157 -5.5 249.5t-170.5 92.5q-120 0 -214.5 -92t-144.5 -250q-19 -61 -22.5 -103t7 -71t39.5 -45t71 -22.5t106 -6.5z" />
    <glyph glyph-name="OE" unicode="&#x152;" horiz-adv-x="2488" 
d="M2847 1442l-768 -41l-2 -4q52 -159 22 -373l457 20l-84 -315l-459 -29q-59 -177 -125 -303h688l-20 -420h-1165q-169 -46 -433 -43q-162 1 -278.5 21t-201 65.5t-130 114.5t-60 173t3 237t64.5 309q74 279 236.5 491.5t387.5 328.5t480 116q224 0 377 -90l1176 37z
M727 854q-57 -206 30 -293.5t351 -87.5q219 0 346 59l242 775q-79 196 -312 196q-220 0 -399 -176t-258 -473z" />
    <glyph glyph-name="oe" unicode="&#x153;" horiz-adv-x="2213" 
d="M1348 537l-7 -15q-8 -111 71.5 -170t232.5 -53q20 1 72 2.5t68.5 3t58 5t65.5 10t63.5 16.5t79 25.5t86.5 37.5l-100 -376q-259 -107 -500 -107q-165 0 -280 56t-171 161q-198 -160 -477 -160q-268 0 -373 153.5t-28 448.5q75 284 276 452.5t465 168.5q140 0 238.5 -50
t148.5 -145q220 201 514 201h4q227 -19 313.5 -165t49.5 -443zM1796 1016q-218 0 -362 -234l567 60q-6 30 -13.5 53t-23 47t-36.5 39t-54.5 25t-77.5 10zM725 360q50 0 85.5 4t76.5 18.5t70.5 40.5t56.5 73t45 112q43 157 -5.5 249.5t-170.5 92.5q-120 0 -214.5 -92
t-144.5 -250q-19 -61 -22.5 -103t7 -71t39.5 -45t71 -22.5t106 -6.5z" />
    <glyph glyph-name="Racute" unicode="&#x154;" horiz-adv-x="1941" 
d="M1421 2343h258l-276 -463h-334zM1358 823q55 -63 88 -154.5t35 -185.5l12 -538h-569l153 497q35 107 -34 154t-220 22l-71 -10l-138 -663h-501l602 1812h475q289 0 409 -143t50 -406q-75 -281 -291 -385zM1145 1511h-227l-134 -503h228q113 0 220 62.5t126 137.5
q82 303 -213 303z" />
    <glyph glyph-name="racute" unicode="&#x155;" horiz-adv-x="1314" 
d="M909 1749h258l-276 -463h-334zM1143 1182l49 -291q-94 0 -168.5 -8t-125.5 -20.5t-89 -35t-59.5 -43t-38 -53t-24 -57.5t-17.5 -63q-3 -11 -4.5 -17t-4 -15.5t-4.5 -17.5q-79 -275 -112 -561h-490q172 353 254.5 570.5t186.5 603.5h301l-19 -74q92 45 152 59t213 23z" />
    <glyph glyph-name="uni0156" unicode="&#x156;" horiz-adv-x="1941" 
d="M1649 1208q-75 -281 -291 -385q55 -63 88 -154.5t35 -185.5l12 -538h-569l153 497q35 107 -34 154t-220 22l-71 -10l-138 -663h-501l602 1812h475q289 0 409 -143t50 -406zM1358 1208q82 303 -213 303h-227l-134 -503h228q113 0 220 62.5t126 137.5zM1038 -182l-200 -363
l-11 -37h-10l-166 -299h-452l272 428l74 271h493z" />
    <glyph glyph-name="uni0157" unicode="&#x157;" horiz-adv-x="1314" 
d="M1143 1182l49 -291q-94 0 -168.5 -8t-125.5 -20.5t-89 -35t-59.5 -43t-38 -53t-24 -57.5t-17.5 -63q-3 -11 -4.5 -17t-4 -15.5t-4.5 -17.5q-79 -275 -112 -561h-490q172 353 254.5 570.5t186.5 603.5h301l-19 -74q92 45 152 59t213 23zM633 -164l-201 -362l-10 -37h-10
l-166 -299h-453l273 428l73 270h494z" />
    <glyph glyph-name="Rcaron" unicode="&#x158;" horiz-adv-x="1941" 
d="M1186 1894l-66 152l-270 358h264l227 -190l336 190h265l-463 -358l-133 -152h-160zM1358 823q55 -63 88 -154.5t35 -185.5l12 -538h-569l153 497q35 107 -34 154t-220 22l-71 -10l-138 -663h-501l602 1812h475q289 0 409 -143t50 -406q-75 -281 -291 -385zM1145 1511
h-227l-134 -503h228q113 0 220 62.5t126 137.5q82 303 -213 303z" />
    <glyph glyph-name="rcaron" unicode="&#x159;" horiz-adv-x="1314" 
d="M674 1300l-66 152l-270 358h264l227 -190l336 190h265l-463 -358l-133 -152h-160zM1143 1182l49 -291q-94 0 -168.5 -8t-125.5 -20.5t-89 -35t-59.5 -43t-38 -53t-24 -57.5t-17.5 -63q-3 -11 -4.5 -17t-4 -15.5t-4.5 -17.5q-79 -275 -112 -561h-490q172 353 254.5 570.5
t186.5 603.5h301l-19 -74q92 45 152 59t213 23z" />
    <glyph glyph-name="Sacute" unicode="&#x15a;" horiz-adv-x="2150" 
d="M1761 2474h258l-276 -463h-334zM885 -84q-191 0 -360 76.5t-341 224.5l363 340q18 -37 109.5 -100t210 -115.5t196.5 -54.5q39 -1 92 10.5t110 34.5t101.5 66t56.5 96q14 70 -45 120t-217 84l-131 27q-534 112 -422 543q68 247 293 384.5t537 137.5q136 0 237.5 -15
t268.5 -57l-238 -284q-29 8 -62 18t-49 14.5t-40.5 10t-46 6.5t-53.5 1t-75 -3q-194 -13 -311.5 -62.5t-130.5 -136.5q-11 -72 58 -128t218 -91l132 -27q585 -121 497 -561q-18 -92 -65 -170.5t-110.5 -134.5t-144 -101t-162.5 -73t-170 -46.5t-162.5 -26t-143.5 -7.5z" />
    <glyph glyph-name="sacute" unicode="&#x15b;" horiz-adv-x="1550" 
d="M1223 1931h258l-277 -463h-334zM1389 1229l-142 -248q-47 9 -89.5 19t-60 14t-49.5 8t-81 6q-141 6 -207.5 -20t-69.5 -90q-3 -63 51 -112t174 -85q201 -61 283.5 -136.5t79.5 -201.5q-4 -111 -51 -190.5t-133 -126.5t-198 -68t-259 -21q-91 0 -162.5 10t-138.5 35.5
t-114.5 50.5t-127.5 72l361 304q48 -20 102 -47.5t86.5 -39t73.5 -14.5q27 -2 61.5 0t72.5 9t62 24.5t21 42.5q-4 29 -56.5 53.5t-145 54t-142.5 54.5q-175 83 -205 245q-30 164 97 291t368 144q102 7 264.5 -5.5t274.5 -31.5z" />
    <glyph glyph-name="Scircumflex" unicode="&#x15c;" horiz-adv-x="2150" 
d="M1819 2464l65 -152l270 -358h-264l-227 190l-336 -190h-264l463 358l133 152h160zM885 -84q-191 0 -360 76.5t-341 224.5l363 340q18 -37 109.5 -100t210 -115.5t196.5 -54.5q39 -1 92 10.5t110 34.5t101.5 66t56.5 96q14 70 -45 120t-217 84l-131 27q-534 112 -422 543
q68 247 293 384.5t537 137.5q136 0 237.5 -15t268.5 -57l-238 -284q-29 8 -62 18t-49 14.5t-40.5 10t-46 6.5t-53.5 1t-75 -3q-194 -13 -311.5 -62.5t-130.5 -136.5q-11 -72 58 -128t218 -91l132 -27q585 -121 497 -561q-18 -92 -65 -170.5t-110.5 -134.5t-144 -101
t-162.5 -73t-170 -46.5t-162.5 -26t-143.5 -7.5z" />
    <glyph glyph-name="scircumflex" unicode="&#x15d;" horiz-adv-x="1550" 
d="M1280 1921l66 -152l270 -358h-264l-228 191l-336 -191h-264l463 358l133 152h160zM1389 1229l-142 -248q-47 9 -89.5 19t-60 14t-49.5 8t-81 6q-141 6 -207.5 -20t-69.5 -90q-3 -63 51 -112t174 -85q201 -61 283.5 -136.5t79.5 -201.5q-4 -111 -51 -190.5t-133 -126.5
t-198 -68t-259 -21q-91 0 -162.5 10t-138.5 35.5t-114.5 50.5t-127.5 72l361 304q48 -20 102 -47.5t86.5 -39t73.5 -14.5q27 -2 61.5 0t72.5 9t62 24.5t21 42.5q-4 29 -56.5 53.5t-145 54t-142.5 54.5q-175 83 -205 245q-30 164 97 291t368 144q102 7 264.5 -5.5
t274.5 -31.5z" />
    <glyph glyph-name="Scedilla" unicode="&#x15e;" horiz-adv-x="2150" 
d="M1346 1036q585 -121 497 -561q-18 -92 -65 -170t-110 -134t-143 -101t-162 -73.5t-169.5 -47t-162.5 -26t-144 -7.5l-23 -37h-16q120 0 166 -57.5t18 -161.5q-78 -289 -327 -289q-23 0 -83 -1t-108 -1l109 230q65 -15 81.5 -17t61.5 -2q15 0 34 4.5t41 23.5t23 50
q0 25 -19 42t-61 17q-55 0 -213 -22l144 237q-257 52 -531 285l363 340q18 -37 109.5 -100t210 -115.5t196.5 -54.5q39 -1 92 10.5t110 34.5t101.5 66t56.5 96q14 70 -45 120t-217 84l-131 27q-534 112 -422 543q68 247 293 384.5t537 137.5q136 0 237.5 -15t268.5 -57
l-238 -284q-29 8 -62 18t-49 14.5t-40.5 10t-46 6.5t-53.5 1t-75 -3q-194 -13 -311.5 -62.5t-130.5 -136.5q-11 -72 58 -128t218 -91z" />
    <glyph glyph-name="scedilla" unicode="&#x15f;" horiz-adv-x="1550" 
d="M915 721q201 -61 283.5 -136.5t79.5 -201.5q-4 -89 -35 -157.5t-84.5 -115t-132 -76.5t-171.5 -43t-208 -14l-43 -67h-16q120 0 166 -57.5t18 -161.5q-41 -151 -126.5 -220t-201.5 -69q-23 0 -82.5 -1t-107.5 -1l108 229q16 -4 26 -6t21 -4t16 -3.5t14 -2.5t11.5 -1
t12 -0.5t11.5 -0.5h15h17q15 0 34 4.5t41 23.5t23 50q0 25 -19 42t-61 17q-55 0 -213 -22l160 264q-99 14 -179.5 49t-197.5 106l361 304q48 -20 102 -47.5t86.5 -39t73.5 -14.5q27 -2 61.5 0t72.5 9t62 24.5t21 42.5q-4 29 -56.5 53.5t-145 54t-142.5 54.5
q-175 83 -205 245q-30 164 97 291t368 144q102 7 264.5 -5.5t274.5 -31.5l-142 -248q-47 9 -89.5 19t-60 14t-49.5 8t-81 6q-141 6 -207.5 -20t-69.5 -90q-3 -63 51 -112t174 -85z" />
    <glyph glyph-name="Scaron" unicode="&#x160;" horiz-adv-x="1550" 
d="M987 1483l-65 151l-271 359h264l228 -191l336 191h264l-463 -359l-133 -151h-160zM1389 1229l-142 -248q-47 9 -89.5 19t-60 14t-49.5 8t-81 6q-141 6 -207.5 -20t-69.5 -90q-3 -63 51 -112t174 -85q201 -61 283.5 -136.5t79.5 -201.5q-4 -111 -51 -190.5t-133 -126.5
t-198 -68t-259 -21q-91 0 -162.5 10t-138.5 35.5t-114.5 50.5t-127.5 72l361 304q48 -20 102 -47.5t86.5 -39t73.5 -14.5q27 -2 61.5 0t72.5 9t62 24.5t21 42.5q-4 29 -56.5 53.5t-145 54t-142.5 54.5q-175 83 -205 245q-30 164 97 291t368 144q102 7 264.5 -5.5
t274.5 -31.5z" />
    <glyph glyph-name="scaron" unicode="&#x161;" horiz-adv-x="2150" 
d="M1526 2025l-66 152l-270 358h264l227 -190l336 190h264l-462 -358l-133 -152h-160zM885 -84q-191 0 -360 76.5t-341 224.5l363 340q18 -37 109.5 -100t210 -115.5t196.5 -54.5q39 -1 92 10.5t110 34.5t101.5 66t56.5 96q14 70 -45 120t-217 84l-131 27q-534 112 -422 543
q68 247 293 384.5t537 137.5q136 0 237.5 -15t268.5 -57l-238 -284q-29 8 -62 18t-49 14.5t-40.5 10t-46 6.5t-53.5 1t-75 -3q-194 -13 -311.5 -62.5t-130.5 -136.5q-11 -72 58 -128t218 -91l132 -27q585 -121 497 -561q-18 -92 -65 -170.5t-110.5 -134.5t-144 -101
t-162.5 -73t-170 -46.5t-162.5 -26t-143.5 -7.5z" />
    <glyph glyph-name="uni0162" unicode="&#x162;" horiz-adv-x="2131" 
d="M598 1757h1569l-84 -319l-598 22l-359 -1460h-200l-49 -78h-17q120 0 166 -57.5t18 -161.5q-78 -289 -327 -289q-23 0 -83 -1t-108 -1l109 230q65 -15 81.5 -17t61.5 -2q15 0 34 4.5t41.5 23.5t23.5 50q0 25 -19 42t-61 17q-55 0 -213 -22l159 262h-71l450 1460l-608 -22
z" />
    <glyph glyph-name="uni0163" unicode="&#x163;" horiz-adv-x="1415" 
d="M1288 883h-393l-168 -518q80 -17 122 -24t105 -4.5t117 23.5l-90 -360h-332l-65 -102h-17q120 0 166.5 -58t18.5 -162q-78 -288 -328 -288q-23 0 -83 -1t-108 -1l109 229q16 -4 26 -6t21 -4t16 -3.5t14 -2.5t11 -1t11.5 -0.5t11.5 -0.5h14.5h17.5q10 0 23.5 3t31.5 10
t30.5 23.5t13.5 40.5q0 25 -19 42.5t-61 17.5q-48 0 -213 -23l174 287h-80q-60 0 -85.5 46t-6.5 110q3 11 52.5 108.5t131.5 272.5t148 346h-334l174 247h248q67 209 102 398l303 37l-141 -435h311v-247z" />
    <glyph glyph-name="Tcaron" unicode="&#x164;" horiz-adv-x="2131" 
d="M1307 1876l-66 152l-270 358h264l227 -191l336 191h264l-463 -358l-133 -152h-159zM672 0l450 1460l-608 -22l84 319h1569l-84 -319l-598 22l-359 -1460h-454z" />
    <glyph glyph-name="tcaron" unicode="&#x165;" horiz-adv-x="1415" 
d="M879 1679l-66 152l-270 358h264l227 -190l336 190h264l-463 -358l-133 -152h-159zM1118 1565l-141 -435h311v-247h-393l-168 -518q80 -17 122 -24t105 -4.5t117 23.5l-90 -360h-596q-60 0 -85.5 46t-6.5 110q3 11 52.5 108.5t131.5 272.5t148 346h-334l174 247h248
q67 209 102 398z" />
    <glyph glyph-name="Tbar" unicode="&#x166;" horiz-adv-x="2131" 
d="M2083 1438l-598 22l-123 -499h252l-58 -216h-247l-183 -745h-454l229 745h-266l57 216h277l153 499l-608 -22l84 319h1569z" />
    <glyph glyph-name="tbar" unicode="&#x167;" horiz-adv-x="1415" 
d="M1288 883h-393l-25 -76h277l-57 -215h-289l-74 -227q80 -17 122 -24t105 -4.5t117 23.5l-90 -360h-596q-60 0 -85.5 46t-6.5 110q2 11 30 66t80.5 161t98.5 209h-334l57 215h369l31 76h-334l174 247h248q67 209 102 398l303 37l-141 -435h311v-247z" />
    <glyph glyph-name="Utilde" unicode="&#x168;" horiz-adv-x="2086" 
d="M1374 2154h-170l-41 60q70 207 142 282.5t204 75.5q42 0 74.5 -21t50 -51t31 -60.5t26.5 -51.5t27 -21q13 0 20.5 5.5t13.5 22t11 36.5t16.5 60t26.5 81h146l41 -55q-41 -145 -83 -222t-99.5 -109.5t-147.5 -31.5q-45 1 -80 23t-54 54t-32.5 63.5t-23.5 53.5t-19 22
q-17 0 -27 -6t-16 -24.5t-9 -38.5t-10.5 -63t-17.5 -84zM338 643l260 1118h422l-285 -934q-20 -65 -34 -115.5t-18.5 -92t-8 -72t8 -54t18.5 -39t34 -26t44 -16t59.5 -8t69 -3t83.5 -0.5q71 0 103 1t82.5 6t72.5 15.5t56.5 31t51.5 50.5t40.5 76t40.5 105.5t35 140.5
l215 934h436l-355 -1118q-40 -125 -81.5 -222.5t-91 -169t-94 -122.5t-107.5 -84t-113 -52t-129 -28t-137 -11.5t-154 -2.5q-85 0 -138 1.5t-120 8.5t-106 21t-83.5 38t-65.5 59.5t-40 87t-18.5 119.5t11 157.5t36.5 199.5z" />
    <glyph glyph-name="utilde" unicode="&#x169;" horiz-adv-x="1546" 
d="M946 1522h-170l-41 59q70 207 142 282.5t204 75.5q52 0 89 -32t53 -70t33 -70t34 -32q13 0 20.5 5.5t13.5 22t11 36t16.5 59.5t26.5 81h146l41 -55q-60 -212 -129 -288t-201 -74q-45 1 -80 23t-54 53.5t-32.5 63t-23.5 53.5t-19 22q-17 0 -27 -6t-16 -24t-9 -38
t-10.5 -63t-17.5 -84zM532 -47q-155 0 -233.5 49t-96.5 156.5t19 279.5l150 738h268l-104 -564q-13 -69 -18.5 -113.5t1 -76t13.5 -47t36 -23.5t51 -9t74 -1q207 0 318 307l164 527h292l-280 -1170h-342l8 19q-119 -72 -320 -72z" />
    <glyph glyph-name="Umacron" unicode="&#x16a;" horiz-adv-x="2086" 
d="M1098 2335l887 53l28 -268l-1098 -41zM338 643l260 1118h422l-285 -934q-20 -65 -34 -115.5t-18.5 -92t-8 -72t8 -54t18.5 -39t34 -26t44 -16t59.5 -8t69 -3t83.5 -0.5q71 0 103 1t82.5 6t72.5 15.5t56.5 31t51.5 50.5t40.5 76t40.5 105.5t35 140.5l215 934h436
l-355 -1118q-40 -125 -81.5 -222.5t-91 -169t-94 -122.5t-107.5 -84t-113 -52t-129 -28t-137 -11.5t-154 -2.5q-85 0 -138 1.5t-120 8.5t-106 21t-83.5 38t-65.5 59.5t-40 87t-18.5 119.5t11 157.5t36.5 199.5z" />
    <glyph glyph-name="umacron" unicode="&#x16b;" horiz-adv-x="1546" 
d="M670 1702l886 53l29 -268l-1098 -41zM532 -47q-155 0 -233.5 49t-96.5 156.5t19 279.5l150 738h268l-104 -564q-13 -69 -18.5 -113.5t1 -76t13.5 -47t36 -23.5t51 -9t74 -1q207 0 318 307l164 527h292l-280 -1170h-342l8 19q-119 -72 -320 -72z" />
    <glyph glyph-name="Uring" unicode="&#x16e;" horiz-adv-x="2086" 
d="M1450 2097q-101 0 -152 74t-22 178q28 103 118 176.5t191 73.5q100 0 151 -73.5t23 -176.5q-28 -105 -118 -178.5t-191 -73.5zM1509 2320q38 0 46.5 8t19.5 48q5 22 -6 37.5t-31 15.5t-38.5 -15.5t-24.5 -37.5q-12 -40 -7.5 -48t41.5 -8zM338 643l260 1118h422l-285 -934
q-20 -65 -34 -115.5t-18.5 -92t-8 -72t8 -54t18.5 -39t34 -26t44 -16t59.5 -8t69 -3t83.5 -0.5q71 0 103 1t82.5 6t72.5 15.5t56.5 31t51.5 50.5t40.5 76t40.5 105.5t35 140.5l215 934h436l-355 -1118q-40 -125 -81.5 -222.5t-91 -169t-94 -122.5t-107.5 -84t-113 -52
t-129 -28t-137 -11.5t-154 -2.5q-85 0 -138 1.5t-120 8.5t-106 21t-83.5 38t-65.5 59.5t-40 87t-18.5 119.5t11 157.5t36.5 199.5z" />
    <glyph glyph-name="uring" unicode="&#x16f;" horiz-adv-x="1546" 
d="M1022 1464q-101 0 -152 74t-22 178q28 103 118 176.5t191 73.5q100 0 151 -73.5t23 -176.5q-28 -105 -118 -178.5t-191 -73.5zM1081 1688q38 0 46.5 7.5t19.5 47.5q5 22 -6 37.5t-31 15.5t-38.5 -15.5t-24.5 -37.5q-12 -40 -7.5 -47.5t41.5 -7.5zM532 -47
q-155 0 -233.5 49t-96.5 156.5t19 279.5l150 738h268l-104 -564q-13 -69 -18.5 -113.5t1 -76t13.5 -47t36 -23.5t51 -9t74 -1q207 0 318 307l164 527h292l-280 -1170h-342l8 19q-119 -72 -320 -72z" />
    <glyph glyph-name="Uhungarumlaut" unicode="&#x170;" horiz-adv-x="2086" 
d="M2120 1995l-486 -56l428 394h322zM1434 1968l-486 -55l428 393h322zM338 643l260 1118h422l-285 -934q-20 -65 -34 -115.5t-18.5 -92t-8 -72t8 -54t18.5 -39t34 -26t44 -16t59.5 -8t69 -3t83.5 -0.5q71 0 103 1t82.5 6t72.5 15.5t56.5 31t51.5 50.5t40.5 76t40.5 105.5
t35 140.5l215 934h436l-355 -1118q-40 -125 -81.5 -222.5t-91 -169t-94 -122.5t-107.5 -84t-113 -52t-129 -28t-137 -11.5t-154 -2.5q-85 0 -138 1.5t-120 8.5t-106 21t-83.5 38t-65.5 59.5t-40 87t-18.5 119.5t11 157.5t36.5 199.5z" />
    <glyph glyph-name="uhungarumlaut" unicode="&#x171;" horiz-adv-x="1546" 
d="M1692 1362l-486 -55l428 393h322zM1006 1335l-486 -55l428 393h322zM532 -47q-155 0 -233.5 49t-96.5 156.5t19 279.5l150 738h268l-104 -564q-13 -69 -18.5 -113.5t1 -76t13.5 -47t36 -23.5t51 -9t74 -1q207 0 318 307l164 527h292l-280 -1170h-342l8 19
q-119 -72 -320 -72z" />
    <glyph glyph-name="Uogonek" unicode="&#x172;" horiz-adv-x="2086" 
d="M1688 1761h436l-355 -1118q-96 -301 -212 -449t-275 -200q-154 -125 -162 -160q0 1 8.5 -1t26 -4.5t33.5 -2.5q49 0 166 18q0 -4 -5.5 -45.5t-10 -84.5t-5.5 -66l-73 -66q-205 -3 -304 57.5t-69 174.5q19 68 82 137h-107q-85 0 -138 1.5t-120 8.5t-106 21t-83.5 38
t-65.5 59.5t-40 87t-18.5 119.5t11 157.5t36.5 199.5l260 1118h422l-285 -934q-20 -65 -34 -115.5t-18.5 -92t-8 -72t8 -54t18.5 -39t34 -26t44 -16t59.5 -8t69 -3t83.5 -0.5q71 0 103 1t82.5 6t72.5 15.5t56.5 31t51.5 50.5t40.5 76t40.5 105.5t35 140.5z" />
    <glyph glyph-name="uogonek" unicode="&#x173;" horiz-adv-x="1546" 
d="M1466 1176l-280 -1170h-66l2 -29q-237 -174 -250 -225q0 1 8.5 -1t26 -4.5t33.5 -2.5q49 0 166 18q0 -4 -5.5 -45.5t-10 -84.5t-5.5 -66l-73 -66q-205 -3 -304 57.5t-69 174.5q35 127 235 274h-30l8 19q-119 -72 -320 -72q-155 0 -233.5 49t-96.5 156.5t19 279.5l150 738
h268l-104 -564q-13 -69 -18.5 -113.5t1 -76t13.5 -47t36 -23.5t51 -9t74 -1q207 0 318 307l164 527h292z" />
    <glyph glyph-name="Wcircumflex" unicode="&#x174;" horiz-adv-x="2879" 
d="M1950 2296l65 -152l271 -358h-265l-227 190l-336 -190h-264l463 358l133 152h160zM522 0l76 1757h350l19 -1104l532 674h277l133 -692l657 1122h350l-946 -1757h-430l-59 731l-504 -731h-455z" />
    <glyph glyph-name="wcircumflex" unicode="&#x175;" horiz-adv-x="2017" 
d="M1380 1937l66 -151l270 -359h-264l-227 191l-336 -191h-264l462 359l134 151h159zM301 0l70 1176h235l33 -637l336 383h190l129 -383l375 630h299l-653 -1169h-336l-84 270l-268 -270h-326z" />
    <glyph glyph-name="Ycircumflex" unicode="&#x176;" horiz-adv-x="2172" 
d="M1649 2527l65 -151l271 -359h-265l-227 191l-336 -191h-264l463 359l133 151h160zM864 571l-266 1186h385l211 -792l631 792h385l-910 -1186l-165 -571h-439z" />
    <glyph glyph-name="ycircumflex" unicode="&#x177;" horiz-adv-x="1736" 
d="M1251 2021l66 -151l270 -359h-264l-227 191l-336 -191h-264l462 359l134 151h159zM1690 1176l-768 -1383q-63 -113 -176.5 -193.5t-244 -113.5t-255.5 -16l-217 28l73 398l162 -54q47 -12 107 -3.5t122 39.5t111 69t74.5 85.5t13.5 88.5l-321 1055h327l250 -711l369 711
h373z" />
    <glyph glyph-name="Ydieresis" unicode="&#x178;" horiz-adv-x="2172" 
d="M1053 2509h434l-113 -428h-436zM1698 2509h434l-113 -428h-436zM864 571l-266 1186h385l211 -792l631 792h385l-910 -1186l-165 -571h-439z" />
    <glyph glyph-name="Zacute" unicode="&#x179;" horiz-adv-x="2211" 
d="M1849 2361h258l-276 -463h-334zM803 1343l-101 304h1516l-70 -265l-1378 -974h938l33 -408h-1614l113 418l1378 925h-815z" />
    <glyph glyph-name="zacute" unicode="&#x17a;" horiz-adv-x="1630" 
d="M1243 1847h258l-276 -463h-334zM514 932l68 248h946v-211l-807 -666h450l76 -303h-1192l160 297l840 635h-541z" />
    <glyph glyph-name="Zdotaccent" unicode="&#x17b;" horiz-adv-x="2211" 
d="M1671 2454h434l-112 -429h-437zM803 1343l-101 304h1516l-70 -265l-1378 -974h938l33 -408h-1614l113 418l1378 925h-815z" />
    <glyph glyph-name="zdotaccent" unicode="&#x17c;" horiz-adv-x="1630" 
d="M1065 1939h434l-113 -428h-436zM514 932l68 248h946v-211l-807 -666h450l76 -303h-1192l160 297l840 635h-541z" />
    <glyph glyph-name="Zcaron" unicode="&#x17d;" horiz-adv-x="2211" 
d="M1614 1913l-66 151l-270 359h264l227 -191l336 191h265l-463 -359l-133 -151h-160zM803 1343l-101 304h1516l-70 -265l-1378 -974h938l33 -408h-1614l113 418l1378 925h-815z" />
    <glyph glyph-name="zcaron" unicode="&#x17e;" horiz-adv-x="1630" 
d="M1008 1399l-66 151l-270 359h264l227 -191l336 191h264l-463 -359l-133 -151h-159zM514 932l68 248h946v-211l-807 -666h450l76 -303h-1192l160 297l840 635h-541z" />
    <glyph glyph-name="longs" unicode="&#x17f;" horiz-adv-x="1228" 
d="M18 6l283 938l80 293q78 232 186.5 335t276.5 103q129 0 315 -57l-92 -264q-75 32 -141 32q-217 0 -320 -385q-47 -175 -69 -413l-138 -582h-381z" />
    <glyph glyph-name="uni0181" unicode="&#x181;" horiz-adv-x="1937" 
d="M1696 1278q-61 -236 -246 -350q132 -61 180.5 -176t1.5 -273q-23 -78 -54.5 -141.5t-62 -110t-77 -82.5t-82 -59.5t-96.5 -39.5t-100 -24.5t-113 -12.5t-116 -4.5t-126 -0.5h-676l383 1376q-137 -6 -203 -157q-5 -12 -10.5 -25.5t-11.5 -33t-11.5 -35.5t-13.5 -45.5
t-14 -49t-16.5 -59t-17 -63.5t-20.5 -75t-22 -81l-147 370q7 26 16 58.5t15 55t10 40.5q53 192 209.5 327.5t340.5 147.5v2h596q288 0 416.5 -126t67.5 -353zM1389 1251q28 111 -26 169.5t-185 58.5h-279l-113 -418h279q143 0 219.5 45.5t104.5 144.5zM1278 582
q5 18 -8 48.5t-41 61.5q-52 58 -219 58h-305l-93 -344h306q130 0 199.5 15.5t105.5 52t55 108.5z" />
    <glyph glyph-name="uni0186" unicode="&#x186;" horiz-adv-x="1482" 
d="M-193 43l123 301q33 -6 85 -15t69.5 -11.5t49 -8t46.5 -6t38.5 -3t49.5 -2.5t53 -0.5t74 -0.5q271 0 464 170.5t257 470.5q55 241 -61 354t-418 113q-167 0 -258 -14.5t-225 -57.5l122 467h793q111 0 191.5 -18.5t134 -50t82 -89.5t39.5 -120t2.5 -160.5t-25 -192
t-47.5 -231.5q-95 -434 -391.5 -686t-710.5 -252q-161 0 -241.5 7t-295.5 36z" />
    <glyph glyph-name="uni0187" unicode="&#x187;" horiz-adv-x="2002" 
d="M1905 1894q30 77 73.5 97t173.5 18l-36 -111q-13 -1 -24.5 -1h-18.5t-13 0.5t-8.5 0t-5 -0.5t-3.5 -2l-1.5 -3t-1.5 -6t-2 -8l-23 -63l-16 -52l41 -6l-137 -301q-33 6 -84.5 15t-68.5 11.5t-48.5 8t-47 6t-38.5 3t-49 2.5t-53 0.5t-74 0.5q-271 0 -472 -170.5
t-280 -470.5q-66 -241 44.5 -354t412.5 -113q167 0 259.5 14.5t227.5 57.5l-145 -467h-793q-98 0 -171 12.5t-123.5 41.5t-82.5 65t-45 95.5t-14.5 119t13.5 150t35 174.5t52 204q77 288 242.5 500t398 325t506.5 113q205 0 361 -20l2 10q15 48 16 51l12 35h2q0 2 3 8t4 10z
" />
    <glyph glyph-name="uni0188" unicode="&#x188;" horiz-adv-x="1447" 
d="M1135 1397q42 53 95 76t140 30t275 6l-76 -110q-52 -1 -108 0q-40 1 -44 -4q-2 -1 -4 -6l-6 -9q0 -1 -1 -2t-1 -2l-191 -272l-53 -203q-135 45 -262 45q-141 0 -231.5 -92t-145.5 -293q-13 -59 0 -108.5t47.5 -80t82.5 -42.5t112.5 3t130.5 58l209 -323
q-269 -125 -465 -111q-123 9 -212.5 44t-142.5 89t-78.5 128.5t-24.5 158t24 182.5q67 290 285 464t507 179l62 90q47 69 55 78l4 6q5 5 17 21z" />
    <glyph glyph-name="uni0189" unicode="&#x189;" horiz-adv-x="2136" 
d="M1149 1757q522 0 716 -223t64 -682q-125 -441 -320 -631q-150 -147 -390 -192q-153 -28 -471 -29h-82h-539l225 819h-323l57 215h326l200 723h537zM1620 905q72 269 -51.5 403t-448.5 134h-209l-108 -408h205l-58 -215h-207l-81 -309h208q238 0 388.5 39.5t237 125
t124.5 230.5z" />
    <glyph glyph-name="uni018A" unicode="&#x18a;" horiz-adv-x="2136" 
d="M1149 1757q522 0 716 -223t64 -682q-125 -441 -320 -631q-150 -147 -390 -192q-153 -28 -471 -29h-82h-539l381 1378q-106 -24 -162 -151q-5 -12 -10.5 -25.5t-11.5 -33t-11.5 -35.5t-13.5 -45.5t-14 -49t-16.5 -59t-17 -63.5t-20.5 -75t-22 -81l-148 370q7 26 16 58.5
t15 55t10 40.5q49 181 192.5 312.5t317.5 156.5v4h25q16 2 45 2l2 -2h465zM1620 905q72 269 -51.5 403t-448.5 134h-209l-249 -932h208q238 0 388.5 39.5t237 125t124.5 230.5z" />
    <glyph glyph-name="uni018E" unicode="&#x18e;" horiz-adv-x="1329" 
d="M801 0h-1276l205 420h766l77 295l-561 37l84 315l566 -25l102 381l-746 41l-8 295l1176 -37z" />
    <glyph glyph-name="uni018F" unicode="&#x18f;" horiz-adv-x="1353" 
d="M270 485l877 23q19 116 -57.5 182t-235.5 66q-20 0 -71.5 0.5t-68.5 0t-58.5 -2.5t-65.5 -7t-64 -14t-80 -23t-88 -34l115 373q254 95 504 86q145 -5 251.5 -54t163.5 -134.5t68 -203t-35 -260.5l-2 -2q-104 -298 -320.5 -463t-490.5 -155h-4q-227 28 -307.5 177
t-30.5 445zM1047 266l-570 -37q6 -39 16.5 -67.5t31.5 -55.5t58.5 -42t90.5 -17q220 -9 373 219z" />
    <glyph glyph-name="uni0190" unicode="&#x190;" horiz-adv-x="1441" 
d="M723 -76q-250 0 -364 138t-52 364q74 273 305 348q-150 101 -98 305q53 190 223.5 301t411.5 111q30 0 64 -5.5t72.5 -19t73 -33.5t62.5 -52t43.5 -72t14.5 -96t-23 -121l-231 -45q47 114 18 174.5t-129 60.5q-152 0 -250.5 -50t-120.5 -138q-29 -102 27.5 -149.5
t206.5 -47.5h104l-10 -235h-117q-136 0 -227 -49t-113 -134q-26 -98 20.5 -153t158.5 -56q39 -2 72 0t60.5 9t48.5 26.5t35 51t21 83.5t6 125l324 27q13 -117 -9 -216.5t-67 -166t-108.5 -119.5t-128 -83t-132 -50t-114 -26.5t-78.5 -6.5z" />
    <glyph glyph-name="uni0191" unicode="&#x191;" horiz-adv-x="1206" 
d="M1659 1483l-696 -41l-125 -326l626 41l-96 -360l-623 -43l-176 -746q0 -2 -1 -5t-1 -5q-25 -110 -124 -208.5t-235 -154.5t-265 -49l-33 68q35 138 108 366q66 -18 119 9l565 1697l1031 33z" />
    <glyph glyph-name="florin" unicode="&#x192;" horiz-adv-x="1814" 
d="M1843 1612q136 0 242 -56l-82 -305q-53 74 -90.5 100.5t-95.5 26.5q-77 0 -134 -49.5t-104 -157.5l-117 -272l221 12l-47 -219l-268 -14l-188 -467q-46 -113 -92.5 -206t-86 -161t-85 -120.5t-78.5 -86.5t-79 -57.5t-74.5 -35.5t-76.5 -18t-73 -6.5t-76 -0.5h-19
q-31 0 -73.5 9.5t-96 32.5t-100 56.5t-82.5 87.5t-45 119l385 172q86 -74 172 -74q74 0 131 56.5t123 201.5l203 482l-340 -17l45 217l389 21l133 303q88 201 236 313.5t323 112.5z" />
    <glyph glyph-name="uni0193" unicode="&#x193;" horiz-adv-x="2295" 
d="M1948 2062q21 46 42.5 74t49 47.5t73.5 28t101 11t147 1.5l-61 -156q-21 -1 -40.5 -1h-31t-21.5 1t-14.5 0t-8.5 -1t-5.5 -3t-2.5 -4.5t-3 -8t-4 -11.5l-49 -125l-90 -229l-35 -269q-213 70 -529 70q-81 0 -128.5 -1.5t-109 -7t-98 -18t-82.5 -33t-75.5 -52.5t-64 -76
t-60.5 -105t-53.5 -138.5t-53.5 -176.5q-26 -109 -26 -186t25 -132.5t83 -88t144 -47.5t213 -15q209 0 307 53l33 135l-295 53l47 295l758 -88l-31 -342l-164 27l-82 -400q-191 -114 -359.5 -160t-367.5 -46q-815 0 -661 917q42 254 133 431.5t238 286.5t339 157.5t451 48.5
q140 0 301 -15l76 193q19 52 28 67l4 13q9 13 13 26z" />
    <glyph glyph-name="uni0194" unicode="&#x194;" horiz-adv-x="1959" 
d="M1853 1694h543l-303 -269l2 2q-530 -521 -805 -804q39 -129 63.5 -217t49 -189.5t32 -167.5t9 -140.5t-15.5 -120t-46.5 -93t-78.5 -74t-116 -49t-156 -30.5t-202 -7q-161 2 -274 20t-175.5 56.5t-90 86t-7.5 123t60 152.5t126 189t177.5 218t226.5 253l-282 825
q-5 10 -16.5 42.5t-31 86.5t-40.5 107h461q10 -25 21 -49t18 -41t14 -43q47 -187 168 -592q385 412 588 641q18 20 35 36.5t46 47.5zM922 -94q48 -1 73 4.5t43 26t15.5 64t-18.5 113t-50 179.5q-207 -240 -203 -321q4 -55 102 -64q17 -2 38 -2z" />
    <glyph glyph-name="uni0196" unicode="&#x196;" horiz-adv-x="741" 
d="M457 260q11 0 47 4l45 -57q-8 -29 -15 -57.5t-8 -32.5q-1 -3 -30 -115h-332q-139 0 -139 137q0 79 16 117l53 125h2q101 314 162 518.5t150 542.5h278q-103 -336 -162.5 -600.5t-89.5 -577.5q6 -4 23 -4z" />
    <glyph glyph-name="uni0197" unicode="&#x197;" horiz-adv-x="1028" 
d="M1096 1038l-56 -215h-282q-102 -410 -164 -823h-467q149 379 289 823h-266l55 215h274q148 516 154 727h391q-123 -392 -213 -727h285z" />
    <glyph glyph-name="uni0198" unicode="&#x198;" horiz-adv-x="1509" 
d="M2064 1870q8 -38 29 -109l-190 -608q-66 244 -83 285q-8 20 -16 30l-6 7l-733 -709l645 -766h-733l-227 477l-168 -477h-455l791 1737h352l-342 -652l694 652h14q178 194 301 218q100 19 127 -85z" />
    <glyph glyph-name="uni0199" unicode="&#x199;" horiz-adv-x="1648" 
d="M762 616l524 -616h-592l-182 342l-92 -342h-365q131 233 281 694l174 639q10 38 18.5 71.5t13 49t7.5 27.5l8 30h2q1 3 14 48q19 100 19 141h35q53 100 144.5 128t311.5 25l-75 -282q-45 -2 -70.5 -1.5t-43.5 1.5t-24 0l-63 -197l-12 -45l-125 -465l250 193l362 41z" />
    <glyph glyph-name="uni019A" unicode="&#x19a;" horiz-adv-x="1038" 
d="M969 676l-416 2q-29 -89 -48.5 -158.5t-31.5 -124t-10.5 -83.5t16.5 -29h238l-41 -283h-615q22 163 211 678l-239 2l49 297l297 -2q132 364 233 686h310q-167 -417 -265 -686l363 -2z" />
    <glyph glyph-name="uni019D" unicode="&#x19d;" horiz-adv-x="2443" 
d="M1806 1753h338l-585 -1753h-480l-172 1100l-270 -1100h-4q-32 -113 -148.5 -219.5t-274 -172.5t-306.5 -69l-35 68q43 151 131 377q71 -12 131 16h-4l614 1690h387l256 -1133z" />
    <glyph glyph-name="Ohorn" unicode="&#x1a0;" horiz-adv-x="2267" 
d="M2267 1866q5 -69 -8 -117q-22 -84 -69.5 -158.5t-106.5 -117.5q-8 -5 -27 -19q107 -249 4 -602q-54 -187 -110 -323t-127 -241t-151.5 -171.5t-189 -108.5t-233.5 -58.5t-291 -15.5q-162 1 -278.5 21t-201 65.5t-130 114.5t-60 173t3 237t64.5 309q74 279 236.5 491.5
t387.5 328.5t480 116q318 0 490 -178q43 19 49 24q17 12 29 40.5t28 88.5q3 23 1 38.5t-15 90.5zM1692 854q79 297 -5 473t-303 176q-220 0 -399 -176t-258 -473q-57 -206 30 -293.5t351 -87.5q262 0 395 87t189 294z" />
    <glyph glyph-name="ohorn" unicode="&#x1a1;" horiz-adv-x="1566" 
d="M1587 1231q5 -69 -8 -117q-22 -84 -69.5 -158.5t-106.5 -117.5l-17 -11q7 -125 -28 -252q-77 -291 -276 -446.5t-472 -155.5q-268 0 -373 153.5t-28 448.5q75 284 276 452.5t465 168.5q275 0 381 -182q22 27 45 116q3 22 1 39t-15 91zM1059 608q43 157 -5.5 249.5
t-170.5 92.5q-120 0 -214.5 -92t-144.5 -250q-19 -61 -22.5 -103t7 -71t39.5 -45t71 -22.5t106 -6.5q50 0 85.5 4t76.5 18.5t70.5 40.5t56.5 73t45 112z" />
    <glyph glyph-name="uni01A4" unicode="&#x1a4;" horiz-adv-x="1841" 
d="M1202 1726q194 0 327.5 -70t184.5 -195.5t8 -284.5q-145 -549 -774 -584l-215 -10l-125 -582h-481l463 1374q-137 -6 -205 -157q-5 -12 -10.5 -25.5t-11.5 -33t-11.5 -35.5t-13.5 -45.5t-14 -49t-16.5 -59t-17 -63.5t-20.5 -75t-22 -81l-148 370q7 26 16 58.5t15 55
t10 40.5q54 200 221.5 337.5t358.5 137.5l16 -23h465zM1425 1278q19 71 -64 122.5t-224 51.5h-187l-116 -424l253 10q118 5 179 25.5t97 68.5t62 146z" />
    <glyph glyph-name="uni01A5" unicode="&#x1a5;" horiz-adv-x="1732" 
d="M1169 1190q151 0 248.5 -81.5t123 -222t-20.5 -327.5q-77 -286 -269 -464.5t-424 -178.5q-89 0 -170 30.5t-125 86.5l-210 -504l-410 -64q81 117 178.5 323t185.5 443h-14l215 742q8 28 19 62.5t14 45.5q2 23 2 64h16l2 6q1 2 7 19.5t10 29.5q18 52 34 89t36.5 69.5
t43.5 52.5t53.5 37.5t67 24.5t84 14t105 6t129.5 0l-82 -283q-32 -1 -60.5 -1.5t-43 1t-28.5 0t-18 0t-9.5 -4t-6 -8t-4 -16t-6.5 -22.5l-2 -8l-21 -72q154 111 350 111zM1276 592q89 362 -143 362q-122 0 -215.5 -95.5t-139.5 -266.5q-21 -79 -22 -125t24 -73t70 -35.5
t127 -8.5q46 0 73.5 2t61 9.5t54 23t42.5 42t38 67.5t30 98z" />
    <glyph glyph-name="uni01A9" unicode="&#x1a9;" horiz-adv-x="1239" 
d="M1528 1489l-68 -256h-651l260 -430l-18 -27l-33 -162l-404 -348h586l-88 -334h-1020l80 304l8 30h39l572 369l-324 598h-27l68 256h1020z" />
    <glyph glyph-name="uni01AC" unicode="&#x1ac;" horiz-adv-x="1591" 
d="M598 1757h1569l-84 -319l-598 22l-359 -1460h-454l450 1460l-608 -22l23 84q-167 -24 -170 -150q0 -42 55 -303l-266 182l-23 99q-29 129 65.5 247t262.5 162l57 -24q15 -85 23 -199z" />
    <glyph glyph-name="uni01AD" unicode="&#x1ad;" horiz-adv-x="1415" 
d="M1118 1565l-141 -435h311v-247h-393l-168 -518q80 -17 122 -24t105 -4.5t117 23.5l-90 -360h-596q-60 0 -85.5 46t-6.5 110q3 11 52.5 108.5t131.5 272.5t148 346h-334l174 247h248q25 79 51 175l-35 86l21 78t20 75q54 200 221.5 337.5t358.5 137.5l41 -57
q-30 -104 -113 -322q-143 24 -223 -84z" />
    <glyph glyph-name="uni01AE" unicode="&#x1ae;" horiz-adv-x="2131" 
d="M598 1757h1569l-84 -319l-598 22l-350 -1429q40 -63 161 -45q-4 -23 -12 -74.5t-10.5 -67.5t-9 -51t-13 -63.5t-16.5 -65.5l-70 -57q-111 0 -212.5 33t-171 85.5t-102 123.5t-13.5 143q3 10 12 26l444 1442l-608 -22z" />
    <glyph glyph-name="Uhorn" unicode="&#x1af;" horiz-adv-x="2086" 
d="M2355 2038q5 -69 -8 -117q-22 -84 -69.5 -158.5t-106.5 -117.5q-65 -44 -105 -62l-297 -940q-40 -125 -81.5 -222.5t-91 -169t-94 -122.5t-107.5 -84t-113 -52t-129 -28t-137 -11.5t-154 -2.5q-85 0 -138 1.5t-120 8.5t-106 21t-83.5 38t-65.5 59.5t-40 87t-18.5 119.5
t11 157.5t36.5 199.5l260 1118h422l-285 -934q-20 -65 -34 -115.5t-18.5 -92t-8 -72t8 -54t18.5 -39t34 -26t44 -16t59.5 -8t69 -3t83.5 -0.5q71 0 103 1t82.5 6t72.5 15.5t56.5 31t51.5 50.5t40.5 76t40.5 105.5t35 140.5l215 934h303q26 14 47 23.5t31.5 14t17.5 9.5
q17 12 29 40.5t28 88.5q3 23 1 38.5t-15 90.5z" />
    <glyph glyph-name="uhorn" unicode="&#x1b0;" horiz-adv-x="1546" 
d="M1647 1274q5 -66 -9 -117q-22 -84 -69.5 -158.5t-106.5 -117.5q-75 -49 -78 -50l-198 -825h-342l8 19q-119 -72 -320 -72q-155 0 -233.5 49t-96.5 156.5t19 279.5l150 738h268l-104 -564q-13 -69 -18.5 -113.5t1 -76t13.5 -47t36 -23.5t51 -9t74 -1q207 0 318 307
l164 527h262q1 3 1.5 6l1 6t0 7.5t-0.5 8t-1 10.5t-2 12t-2.5 14.5t-3 17t-4 21t-4.5 24.5z" />
    <glyph glyph-name="uni01B1" unicode="&#x1b1;" horiz-adv-x="1775" 
d="M1716 1898q21 0 108.5 3t134 0.5t54.5 -13.5q-43 -168 -63 -239l-64 -56q-96 -11 -141 -18q41 -44 62.5 -99t19 -158.5t-40.5 -244.5q-67 -249 -210.5 -437t-342 -290t-424.5 -102q-169 0 -294.5 59t-193 168t-82.5 262t37 340q29 104 66 188.5t79.5 142.5t78 95t78.5 70
q-118 17 -195 35q13 54 78 290q21 3 50.5 4t54 1t73 -0.5t80.5 -0.5h424q-64 -218 -127 -378q-42 22 -87 14t-93 -49t-91 -101t-80 -141t-61 -170q-70 -263 4.5 -419t268.5 -156t352.5 156t228.5 419q25 106 14 198.5t-61 162t-127 94.5l-27 45q5 39 17 98t30.5 142.5
t18.5 84.5h393z" />
    <glyph glyph-name="uni01B2" unicode="&#x1b2;" horiz-adv-x="1564" 
d="M2136 1761h18l-374 -1118q-41 -125 -84.5 -223t-94 -169t-96 -122t-109 -84t-113.5 -52t-129.5 -28t-137.5 -11.5t-154 -2.5q-85 0 -138 1.5t-120 8.5t-105.5 21t-83 38t-65 59.5t-38.5 87t-17 119.5t13.5 157.5t39.5 199.5l281 1118h422l-301 -934q-21 -65 -36 -115.5
t-20.5 -92t-9.5 -72t7 -54t17.5 -39t33.5 -26t43.5 -16t59 -8t69 -3t83.5 -0.5t83.5 0.5t70 3t63 8t52.5 16t48.5 26t39.5 39t37.5 54t32 72t33 92t30.5 115.5l225 910q-41 116 -282 116q2 19 6 52t5.5 46t5 37.5t6 38.5t6.5 35t9.5 41.5t12.5 44.5l100 43q259 -25 414 -147
t141 -283z" />
    <glyph glyph-name="uni01B3" unicode="&#x1b3;" horiz-adv-x="1581" 
d="M2275 1866l-147 -602q-89 193 -119 231l-709 -924l-165 -571h-439l168 571l-266 1186h385l211 -792l631 792q144 175 255 230.5t154 -31.5q2 -6 41 -90z" />
    <glyph glyph-name="uni01B4" unicode="&#x1b4;" horiz-adv-x="1431" 
d="M1726 1333l-61 -628q-109 161 -133 188l-610 -1100q-63 -113 -176.5 -193.5t-244 -113.5t-255.5 -16l-217 28l73 398l162 -54q47 -12 107 -3.5t122 39.5t111 69t74.5 85.5t13.5 88.5l-321 1055h327l250 -711l369 711h14q109 179 200 243.5t142 -6.5q24 -39 53 -80z" />
    <glyph glyph-name="uni01B7" unicode="&#x1b7;" horiz-adv-x="1419" 
d="M1061 678q154 -46 242 -176t61 -279q-126 -688 -733 -688q-384 0 -590 311l426 285q60 -96 142 -134.5t158 -19.5t140.5 92t93.5 185q15 96 -126.5 143t-370.5 17l74 276q96 72 285.5 207t295.5 221q-336 -3 -743 0l82 303q8 0 484 3t556 -3l41 -45q-6 -63 -13.5 -114.5
t-15.5 -100t-12 -76.5l-27 -43q-166 -143 -450 -364z" />
    <glyph glyph-name="uni01C0" unicode="&#x1c0;" horiz-adv-x="530" 
d="M565 1489h256l-555 -1851h-256z" />
    <glyph glyph-name="uni01C1" unicode="&#x1c1;" horiz-adv-x="1325" 
d="M664 1489h256l-555 -1851h-256zM1262 1489h256l-555 -1851h-256z" />
    <glyph glyph-name="uni01C2" unicode="&#x1c2;" horiz-adv-x="1251" 
d="M1266 748l28 -269l-456 -16l-248 -825h-256l244 815l-381 -15l182 256l276 17l62 202l-398 -14l183 256l293 19l94 315h256l-90 -301l334 20l28 -268l-442 -16l-60 -197z" />
    <glyph glyph-name="uni01C3" unicode="&#x1c3;" horiz-adv-x="583" 
d="M489 1434h379q-73 -116 -110 -227t-47.5 -205t-20.5 -188.5t-46.5 -217.5t-108.5 -254h-279q71 132 102.5 253.5t34 218t2 189t20 204.5t74.5 227zM197 166h301l-107 -344h-272z" />
    <glyph glyph-name="uni01C4" unicode="&#x1c4;" horiz-adv-x="4552" 
d="M3979 1968l-65 152l-271 358h265l227 -190l336 190h264l-463 -358l-133 -152h-160zM127 0l485 1757h537q522 0 716 -223t64 -682q-125 -441 -320 -631q-150 -147 -390 -192q-153 -28 -471 -29h-82h-539zM3144 1343l-101 304h1516l-70 -265l-1378 -974h938l33 -408h-1614
l112 418l1379 925h-815zM662 510h208q238 0 388.5 39.5t237 125t124.5 230.5q72 269 -51.5 403t-448.5 134h-209z" />
    <glyph glyph-name="uni01C5" unicode="&#x1c5;" horiz-adv-x="3766" 
d="M3144 1399l-66 151l-270 359h264l227 -191l336 191h264l-462 -359l-134 -151h-159zM127 0l485 1757h537q522 0 716 -223t64 -682q-125 -441 -320 -631q-150 -147 -390 -192q-153 -28 -471 -29h-82h-539zM662 510h208q238 0 388.5 39.5t237 125t124.5 230.5
q72 269 -51.5 403t-448.5 134h-209zM2650 932l68 248h946v-211l-807 -666h451l75 -303h-1192l160 297l840 635h-541z" />
    <glyph glyph-name="uni01C6" unicode="&#x1c6;" horiz-adv-x="1576" 
d="M2001 1372l-66 152l-270 358h264l228 -190l335 190h265l-463 -358l-133 -152h-160zM1507 905l68 248h946v-211l-807 -666h451l76 -303h-1192l14 27h-178v90q-150 -131 -332 -137q-251 -7 -343 156t-5 450q49 167 151.5 302.5t241 213.5t285.5 78q190 0 284 -104l203 645
h299l-377 -1213l-45 -182l801 606h-541zM956 594q41 155 3 235t-154 80q-119 0 -213.5 -89t-134.5 -240q-31 -114 15 -167t179 -53q147 0 207 46t98 188z" />
    <glyph glyph-name="uni01C7" unicode="&#x1c7;" horiz-adv-x="2609" 
d="M1810 133l529 1784l395 104l-606 -2011q-41 -138 -97.5 -250.5t-115.5 -186t-125.5 -127t-125.5 -80.5t-118 -38l-626 -112l313 522l225 -2q60 -1 106.5 16t81.5 47t64.5 82t52 109.5t47.5 142.5zM61 0l549 1743h355l-363 -1337l828 14l-93 -420h-1276z" />
    <glyph glyph-name="uni01C8" unicode="&#x1c8;" horiz-adv-x="2916" 
d="M2437 1939h434l-112 -428h-437zM256 0l549 1743h354l-362 -1337l827 14l-92 -420h-1276zM1468 -395l125 356q198 -82 349 86q57 63 109 166.5t136 359.5t187 660h309l-365 -1010q-105 -293 -142 -371q-41 -83 -79 -116q-68 -58 -252.5 -100t-376.5 -31z" />
    <glyph glyph-name="uni01C9" unicode="&#x1c9;" horiz-adv-x="2236" 
d="M61 0q15 115 103.5 373t226.5 640.5t221 647.5h310q-86 -216 -156 -399.5t-160.5 -434t-126 -397.5t-0.5 -147h238l-41 -283h-615zM1661 1579h434l-113 -428h-436zM692 -756l125 357q198 -82 348 86q57 63 109 166t136 359t187 660h310l-365 -1009q-105 -292 -141 -369
q-41 -86 -80 -119q-68 -58 -252.5 -100t-376.5 -31z" />
    <glyph glyph-name="uni01CA" unicode="&#x1ca;" horiz-adv-x="2562" 
d="M2894 2083h395l-606 -2122q-41 -146 -97.5 -258.5t-115.5 -179.5t-125.5 -108t-125 -54t-118.5 -8l-626 57l313 506l225 -72q43 -13 79 -13.5t65 9t54.5 32t45.5 51.5t39.5 72.5t35 90t33.5 109.5zM1559 0h-480l-172 1100l-270 -1100h-510l614 1690h387l256 -1133
l422 1196h338z" />
    <glyph glyph-name="uni01CB" unicode="&#x1cb;" horiz-adv-x="3041" 
d="M2642 1784h434l-113 -428h-436zM1806 1753h338l-585 -1753h-480l-172 1100l-270 -1100h-510l614 1690h387l256 -1133zM2146 -109q57 63 109 166.5t136 359.5t187 660h310l-365 -1009q-105 -292 -141 -369q-41 -86 -80 -119q-68 -58 -252.5 -100t-376.5 -31l125 356
q198 -82 348 86z" />
    <glyph glyph-name="uni01CC" unicode="&#x1cc;" horiz-adv-x="2736" 
d="M2247 1815h434l-113 -429h-436zM1573 666l-143 -666h-410l272 698q45 117 7.5 175.5t-152.5 58.5q-142 0 -231.5 -73t-118.5 -212l-135 -647h-406l426 1194h231v-92q57 31 91.5 46t98 29.5t136.5 14.5q230 0 311 -126.5t23 -399.5zM1278 -520l125 356q198 -82 348 86
q57 63 109 166.5t136 359.5t187 660h309l-364 -1010q-105 -293 -142 -371q-40 -84 -79 -116q-68 -58 -252.5 -100t-376.5 -31z" />
    <glyph glyph-name="uni01CD" unicode="&#x1cd;" horiz-adv-x="2293" 
d="M1456 2042l-65 151l-271 359h264l228 -191l336 191h264l-463 -359l-133 -151h-160zM127 0l1198 1741h299l236 -1741h-467l6 217h-666l-158 -217h-448zM1397 608l-35 721l-418 -721h453z" />
    <glyph glyph-name="uni01CE" unicode="&#x1ce;" horiz-adv-x="1544" 
d="M989 1470l-65 152l-271 358h265l227 -190l336 190h264l-463 -358l-133 -152h-160zM526 -43q-86 0 -153.5 23.5t-110.5 64t-69 95.5t-32 118t3.5 130.5t34.5 135.5q66 176 181 317t239 215t233 74q167 0 262 -65v65h227l-163 -1144h-308l23 77q-161 -106 -367 -106z
M614 338q66 0 105 0.5t80 6.5t62 11.5t45 22.5t35 32.5t26.5 49t24.5 65t24 86.5q40 149 -17.5 228.5t-205.5 79.5q-80 0 -155.5 -75.5t-166.5 -250.5q-24 -46 -38.5 -77t-24 -59.5t-11 -45.5t7 -32t23 -22t42.5 -12t61 -6.5t83 -1.5z" />
    <glyph glyph-name="uni01CF" unicode="&#x1cf;" horiz-adv-x="1028" 
d="M821 2085l-65 151l-271 359h265l227 -191l336 191h264l-463 -359l-133 -151h-160zM127 0q204 524 351.5 1034t154.5 731h391q-309 -976 -430 -1765h-467z" />
    <glyph glyph-name="uni01D0" unicode="&#x1d0;" horiz-adv-x="583" 
d="M561 1436l-65 151l-271 359h264l228 -191l336 191h264l-463 -359l-133 -151h-160zM90 -55q128 381 191.5 585t160.5 562h279q-103 -328 -162.5 -585t-89.5 -562h-379z" />
    <glyph glyph-name="uni01D1" unicode="&#x1d1;" horiz-adv-x="2267" 
d="M1544 2046l-65 152l-271 358h265l227 -191l336 191h264l-463 -358l-133 -152h-160zM958 -66q-162 1 -278.5 21t-201 65.5t-130 114.5t-60 173t3 237t64.5 309q74 279 236.5 491.5t387.5 328.5t480 116q192 0 335 -67.5t220 -191t92.5 -296.5t-47.5 -383
q-54 -187 -110 -323t-127 -241t-151.5 -171.5t-189 -108.5t-233.5 -58.5t-291 -15.5zM1108 473q262 0 395 87t189 294q79 297 -5 473t-303 176q-220 0 -399 -176t-258 -473q-57 -206 30 -293.5t351 -87.5z" />
    <glyph glyph-name="uni01D2" unicode="&#x1d2;" horiz-adv-x="1566" 
d="M918 1520l-66 151l-270 359h264l227 -191l336 191h264l-463 -359l-133 -151h-159zM610 -27q-268 0 -373 153.5t-28 448.5q75 284 276 452.5t465 168.5q262 0 372.5 -168.5t35.5 -452.5q-77 -291 -276 -446.5t-472 -155.5zM725 360q50 0 85.5 4t76.5 18.5t70.5 40.5
t56.5 73t45 112q43 157 -5.5 249.5t-170.5 92.5q-120 0 -214.5 -92t-144.5 -250q-19 -61 -22.5 -103t7 -71t39.5 -45t71 -22.5t106 -6.5z" />
    <glyph glyph-name="uni01D3" unicode="&#x1d3;" horiz-adv-x="2086" 
d="M1350 2099l-66 152l-270 358h264l227 -190l336 190h264l-463 -358l-133 -152h-159zM338 643l260 1118h422l-285 -934q-20 -65 -34 -115.5t-18.5 -92t-8 -72t8 -54t18.5 -39t34 -26t44 -16t59.5 -8t69 -3t83.5 -0.5q71 0 103 1t82.5 6t72.5 15.5t56.5 31t51.5 50.5
t40.5 76t40.5 105.5t35 140.5l215 934h436l-355 -1118q-40 -125 -81.5 -222.5t-91 -169t-94 -122.5t-107.5 -84t-113 -52t-129 -28t-137 -11.5t-154 -2.5q-85 0 -138 1.5t-120 8.5t-106 21t-83.5 38t-65.5 59.5t-40 87t-18.5 119.5t11 157.5t36.5 199.5z" />
    <glyph glyph-name="uni01D4" unicode="&#x1d4;" horiz-adv-x="1546" 
d="M922 1466l-66 152l-270 358h264l227 -190l336 190h264l-463 -358l-133 -152h-159zM532 -47q-155 0 -233.5 49t-96.5 156.5t19 279.5l150 738h268l-104 -564q-13 -69 -18.5 -113.5t1 -76t13.5 -47t36 -23.5t51 -9t74 -1q207 0 318 307l164 527h292l-280 -1170h-342l8 19
q-119 -72 -320 -72z" />
    <glyph glyph-name="uni01D5" unicode="&#x1d5;" horiz-adv-x="2086" 
d="M1196 2998l887 54l28 -269l-1097 -41zM1020 2492h434l-113 -428h-436zM1665 2492h434l-112 -428h-437zM338 643l260 1118h422l-285 -934q-20 -65 -34 -115.5t-18.5 -92t-8 -72t8 -54t18.5 -39t34 -26t44 -16t59.5 -8t69 -3t83.5 -0.5q71 0 103 1t82.5 6t72.5 15.5
t56.5 31t51.5 50.5t40.5 76t40.5 105.5t35 140.5l215 934h436l-355 -1118q-40 -125 -81.5 -222.5t-91 -169t-94 -122.5t-107.5 -84t-113 -52t-129 -28t-137 -11.5t-154 -2.5q-85 0 -138 1.5t-120 8.5t-106 21t-83.5 38t-65.5 59.5t-40 87t-18.5 119.5t11 157.5t36.5 199.5z
" />
    <glyph glyph-name="uni01D6" unicode="&#x1d6;" horiz-adv-x="1546" 
d="M768 2365l887 54l28 -269l-1097 -41zM592 1860h434l-113 -428h-436zM1237 1860h434l-112 -428h-437zM532 -47q-155 0 -233.5 49t-96.5 156.5t19 279.5l150 738h268l-104 -564q-13 -69 -18.5 -113.5t1 -76t13.5 -47t36 -23.5t51 -9t74 -1q207 0 318 307l164 527h292
l-280 -1170h-342l8 19q-119 -72 -320 -72z" />
    <glyph glyph-name="uni01D7" unicode="&#x1d7;" horiz-adv-x="2086" 
d="M1683 3211h259l-277 -463h-334zM1020 2492h434l-113 -428h-436zM1665 2492h434l-112 -428h-437zM338 643l260 1118h422l-285 -934q-20 -65 -34 -115.5t-18.5 -92t-8 -72t8 -54t18.5 -39t34 -26t44 -16t59.5 -8t69 -3t83.5 -0.5q71 0 103 1t82.5 6t72.5 15.5t56.5 31
t51.5 50.5t40.5 76t40.5 105.5t35 140.5l215 934h436l-355 -1118q-40 -125 -81.5 -222.5t-91 -169t-94 -122.5t-107.5 -84t-113 -52t-129 -28t-137 -11.5t-154 -2.5q-85 0 -138 1.5t-120 8.5t-106 21t-83.5 38t-65.5 59.5t-40 87t-18.5 119.5t11 157.5t36.5 199.5z" />
    <glyph glyph-name="uni01D8" unicode="&#x1d8;" horiz-adv-x="1546" 
d="M1255 2578h258l-276 -462h-334zM592 1860h434l-113 -428h-436zM1237 1860h434l-112 -428h-437zM532 -47q-155 0 -233.5 49t-96.5 156.5t19 279.5l150 738h268l-104 -564q-13 -69 -18.5 -113.5t1 -76t13.5 -47t36 -23.5t51 -9t74 -1q207 0 318 307l164 527h292l-280 -1170
h-342l8 19q-119 -72 -320 -72z" />
    <glyph glyph-name="uni01D9" unicode="&#x1d9;" horiz-adv-x="2086" 
d="M1448 2763l-66 151l-270 359h264l228 -191l335 191h265l-463 -359l-133 -151h-160zM1020 2492h434l-113 -428h-436zM1665 2492h434l-112 -428h-437zM338 643l260 1118h422l-285 -934q-20 -65 -34 -115.5t-18.5 -92t-8 -72t8 -54t18.5 -39t34 -26t44 -16t59.5 -8t69 -3
t83.5 -0.5q71 0 103 1t82.5 6t72.5 15.5t56.5 31t51.5 50.5t40.5 76t40.5 105.5t35 140.5l215 934h436l-355 -1118q-40 -125 -81.5 -222.5t-91 -169t-94 -122.5t-107.5 -84t-113 -52t-129 -28t-137 -11.5t-154 -2.5q-85 0 -138 1.5t-120 8.5t-106 21t-83.5 38t-65.5 59.5
t-40 87t-18.5 119.5t11 157.5t36.5 199.5z" />
    <glyph glyph-name="uni01DA" unicode="&#x1da;" horiz-adv-x="1546" 
d="M1020 2130l-66 151l-270 359h264l228 -191l335 191h265l-463 -359l-133 -151h-160zM592 1860h434l-113 -428h-436zM1237 1860h434l-112 -428h-437zM532 -47q-155 0 -233.5 49t-96.5 156.5t19 279.5l150 738h268l-104 -564q-13 -69 -18.5 -113.5t1 -76t13.5 -47t36 -23.5
t51 -9t74 -1q207 0 318 307l164 527h292l-280 -1170h-342l8 19q-119 -72 -320 -72z" />
    <glyph glyph-name="uni01DB" unicode="&#x1db;" horiz-adv-x="2086" 
d="M1436 2896l-265 338h322l428 -393zM1020 2492h434l-113 -428h-436zM1665 2492h434l-112 -428h-437zM338 643l260 1118h422l-285 -934q-20 -65 -34 -115.5t-18.5 -92t-8 -72t8 -54t18.5 -39t34 -26t44 -16t59.5 -8t69 -3t83.5 -0.5q71 0 103 1t82.5 6t72.5 15.5t56.5 31
t51.5 50.5t40.5 76t40.5 105.5t35 140.5l215 934h436l-355 -1118q-40 -125 -81.5 -222.5t-91 -169t-94 -122.5t-107.5 -84t-113 -52t-129 -28t-137 -11.5t-154 -2.5q-85 0 -138 1.5t-120 8.5t-106 21t-83.5 38t-65.5 59.5t-40 87t-18.5 119.5t11 157.5t36.5 199.5z" />
    <glyph glyph-name="uni01DC" unicode="&#x1dc;" horiz-adv-x="1546" 
d="M1008 2263l-265 338h322l428 -393zM592 1860h434l-113 -428h-436zM1237 1860h434l-112 -428h-437zM532 -47q-155 0 -233.5 49t-96.5 156.5t19 279.5l150 738h268l-104 -564q-13 -69 -18.5 -113.5t1 -76t13.5 -47t36 -23.5t51 -9t74 -1q207 0 318 307l164 527h292
l-280 -1170h-342l8 19q-119 -72 -320 -72z" />
    <glyph glyph-name="uni01DD" unicode="&#x1dd;" horiz-adv-x="1353" 
d="M287 502l874 53q14 118 -65 181t-236 59q-16 -1 -71 -3t-69.5 -3t-58 -5t-66 -10t-62.5 -16.5t-79.5 -26t-86.5 -37.5l102 377q261 108 500 105q293 0 422 -173t51 -462l-2 -2q-94 -302 -305 -475.5t-484 -172.5h-4q-227 20 -312.5 167t-47.5 444zM1069 309l-567 -57
q6 -30 13.5 -53t23 -47t36.5 -39t54.5 -25t77.5 -10q219 -2 362 231z" />
    <glyph glyph-name="uni01DE" unicode="&#x1de;" horiz-adv-x="2293" 
d="M1040 2095l109 408l-145 -6l182 256l887 53l28 -269l-514 -18l-110 -424h-437zM1800 2523h434l-112 -428h-436zM1325 1741h299l236 -1741h-467l6 217h-666l-158 -217h-448zM944 608h453l-35 721z" />
    <glyph glyph-name="uni01DF" unicode="&#x1df;" horiz-adv-x="1544" 
d="M836 2370l886 53l29 -269l-1098 -40zM659 1864h435l-113 -428h-436zM1305 1864h434l-113 -428h-436zM526 -43q-86 0 -153.5 23.5t-110.5 64t-69 95.5t-32 118t3.5 130.5t34.5 135.5q66 176 181 317t239 215t233 74q167 0 262 -65v65h227l-163 -1144h-308l23 77
q-161 -106 -367 -106zM614 338q66 0 105 0.5t80 6.5t62 11.5t45 22.5t35 32.5t26.5 49t24.5 65t24 86.5q40 149 -17.5 228.5t-205.5 79.5q-80 0 -155.5 -75.5t-166.5 -250.5q-24 -46 -38.5 -77t-24 -59.5t-11 -45.5t7 -32t23 -22t42.5 -12t61 -6.5t83 -1.5z" />
    <glyph glyph-name="uni01E4" unicode="&#x1e4;" horiz-adv-x="2295" 
d="M1225 651l47 295l758 -88l-31 -342l-164 27l-82 -400q-191 -114 -359.5 -160t-367.5 -46q-812 0 -664 905h-311l58 215h301q45 158 117 278t168 204t222.5 137t275.5 77.5t333 24.5q276 0 510 -43l-41 -318q-213 70 -529 70q-108 0 -167.5 -3t-134 -16t-118 -40
t-93 -74.5t-86 -120t-72.5 -176.5h235l-57 -215h-240q-51 -245 47.5 -338.5t399.5 -93.5q209 0 307 53l33 135z" />
    <glyph glyph-name="uni01E5" unicode="&#x1e5;" horiz-adv-x="1562" 
d="M1659 641l-68 -156h-291l-108 -346q-220 -708 -782 -708q-124 0 -246 33.5t-205 91.5l211 319q64 -49 101 -73.5t92.5 -46t109.5 -21.5q110 0 232 114.5t194 264.5l-94 -86l-1 2q-120 -81 -245 -82q-233 0 -329 172t-21 454q76 284 266.5 467t419.5 183q93 0 166.5 -46
t109.5 -106l58 105h287l-166 -535h309zM618 354q139 0 203.5 26.5t100.5 104.5h-396l66 156h377q29 149 -16 228t-160 79q-125 0 -218.5 -93t-140.5 -269q-9 -55 -12.5 -89.5t1.5 -62.5t16 -42t37 -23.5t57.5 -12t84.5 -2.5z" />
    <glyph glyph-name="Gcaron" unicode="&#x1e6;" horiz-adv-x="2295" 
d="M1497 2066l-65 152l-271 358h264l228 -190l336 190h264l-463 -358l-133 -152h-160zM1487 463l33 135l-295 53l47 295l758 -88l-31 -342l-164 27l-82 -400q-191 -114 -359.5 -160t-367.5 -46q-815 0 -661 917q42 254 133 431.5t238 286.5t339 157.5t451 48.5
q276 0 510 -43l-41 -318q-213 70 -529 70q-81 0 -128.5 -1.5t-109 -7t-98 -18t-82.5 -33t-75.5 -52.5t-64 -76t-60.5 -105t-53.5 -138.5t-53.5 -176.5q-26 -109 -26 -186t25 -132.5t83 -88t144 -47.5t213 -15q209 0 307 53z" />
    <glyph glyph-name="gcaron" unicode="&#x1e7;" horiz-adv-x="1562" 
d="M895 1323l-66 152l-270 358h264l228 -191l335 191h265l-463 -358l-133 -152h-160zM410 -569q-124 0 -246 33.5t-205 91.5l211 319q64 -49 101 -73.5t92.5 -46t109.5 -21.5q110 0 232 114.5t194 264.5l-94 -86l-1 2q-120 -81 -245 -82q-233 0 -329 172t-21 454
q76 284 266.5 467t419.5 183q93 0 166.5 -46t109.5 -106l58 105h287l-324 -1037q-220 -708 -782 -708zM618 354q117 0 178.5 18.5t97 66t60.5 145.5q47 177 6 270.5t-167 93.5q-125 0 -218.5 -93t-140.5 -269q-9 -55 -12.5 -89.5t1.5 -62.5t16 -42t37 -23.5t57.5 -12
t84.5 -2.5z" />
    <glyph glyph-name="uni01E9" unicode="&#x1e9;" horiz-adv-x="1648" 
d="M698 1927l-65 152l-271 358h265l227 -190l336 190h264l-463 -358l-133 -152h-160zM55 0q112 199 242 576.5t212 698.5t83 425h319l-276 -864l285 221l362 41l-520 -482l524 -616h-592l-182 342l-92 -342h-365z" />
    <glyph glyph-name="uni01EE" unicode="&#x1ee;" horiz-adv-x="1419" 
d="M997 1522l-65 151l-270 359h264l227 -191l336 191h264l-463 -359l-133 -151h-160zM1061 678q154 -46 242 -176t61 -279q-126 -688 -733 -688q-384 0 -590 311l426 285q60 -96 142 -134.5t158 -19.5t140.5 92t93.5 185q15 96 -126.5 143t-370.5 17l74 276q96 72 285.5 207
t295.5 221q-336 -3 -743 0l82 303q8 0 484 3t556 -3l41 -45q-6 -63 -13.5 -114.5t-15.5 -100t-12 -76.5l-27 -43q-166 -143 -450 -364z" />
    <glyph glyph-name="uni01EF" unicode="&#x1ef;" horiz-adv-x="1419" 
d="M997 1522l-65 151l-270 359h264l227 -191l336 191h264l-463 -359l-133 -151h-160zM1061 678q154 -46 242 -176t61 -279q-126 -688 -733 -688q-384 0 -590 311l426 285q60 -96 142 -134.5t158 -19.5t140.5 92t93.5 185q15 96 -126.5 143t-370.5 17l74 276q96 72 285.5 207
t295.5 221q-336 -3 -743 0l82 303q8 0 484 3t556 -3l41 -45q-6 -63 -13.5 -114.5t-15.5 -100t-12 -76.5l-27 -43q-166 -143 -450 -364z" />
    <glyph glyph-name="uni01F1" unicode="&#x1f1;" horiz-adv-x="4552" 
d="M127 0l485 1757h537q522 0 716 -223t64 -682q-125 -441 -320 -631q-150 -147 -390 -192q-153 -28 -471 -29h-82h-539zM3144 1343l-101 304h1516l-70 -265l-1378 -974h938l33 -408h-1614l112 418l1379 925h-815zM662 510h208q238 0 388.5 39.5t237 125t124.5 230.5
q72 269 -51.5 403t-448.5 134h-209z" />
    <glyph glyph-name="uni01F2" unicode="&#x1f2;" horiz-adv-x="3766" 
d="M127 0l485 1757h537q522 0 716 -223t64 -682q-125 -441 -320 -631q-150 -147 -390 -192q-153 -28 -471 -29h-82h-539zM662 510h208q238 0 388.5 39.5t237 125t124.5 230.5q72 269 -51.5 403t-448.5 134h-209zM2650 932l68 248h946v-211l-807 -666h451l75 -303h-1192
l160 297l840 635h-541z" />
    <glyph glyph-name="uni01F3" unicode="&#x1f3;" horiz-adv-x="1576" 
d="M2521 1153v-211l-807 -666h451l76 -303h-1192l14 27h-178v90q-150 -131 -332 -137q-251 -7 -343 156t-5 450q49 167 151.5 302.5t241 213.5t285.5 78q190 0 284 -104l203 645h299l-377 -1213l-45 -182l801 606h-541l68 248h946zM956 594q41 155 3 235t-154 80
q-119 0 -213.5 -89t-134.5 -240q-31 -114 15 -167t179 -53q147 0 207 46t98 188z" />
    <glyph glyph-name="uni01F4" unicode="&#x1f4;" horiz-adv-x="2295" 
d="M1733 2515h258l-277 -463h-334zM1487 463l33 135l-295 53l47 295l758 -88l-31 -342l-164 27l-82 -400q-191 -114 -359.5 -160t-367.5 -46q-815 0 -661 917q42 254 133 431.5t238 286.5t339 157.5t451 48.5q276 0 510 -43l-41 -318q-213 70 -529 70q-81 0 -128.5 -1.5
t-109 -7t-98 -18t-82.5 -33t-75.5 -52.5t-64 -76t-60.5 -105t-53.5 -138.5t-53.5 -176.5q-26 -109 -26 -186t25 -132.5t83 -88t144 -47.5t213 -15q209 0 307 53z" />
    <glyph glyph-name="uni01F5" unicode="&#x1f5;" horiz-adv-x="1562" 
d="M1130 1772h259l-277 -463h-334zM410 -569q-124 0 -246 33.5t-205 91.5l211 319q64 -49 101 -73.5t92.5 -46t109.5 -21.5q110 0 232 114.5t194 264.5l-94 -86l-1 2q-120 -81 -245 -82q-233 0 -329 172t-21 454q76 284 266.5 467t419.5 183q93 0 166.5 -46t109.5 -106
l58 105h287l-324 -1037q-220 -708 -782 -708zM618 354q117 0 178.5 18.5t97 66t60.5 145.5q47 177 6 270.5t-167 93.5q-125 0 -218.5 -93t-140.5 -269q-9 -55 -12.5 -89.5t1.5 -62.5t16 -42t37 -23.5t57.5 -12t84.5 -2.5z" />
    <glyph glyph-name="uni01F8" unicode="&#x1f8;" horiz-adv-x="2109" 
d="M1874 1982l-485 56l-265 338h322zM1806 1753h338l-585 -1753h-480l-172 1100l-270 -1100h-510l614 1690h387l256 -1133z" />
    <glyph glyph-name="uni01F9" unicode="&#x1f9;" horiz-adv-x="1591" 
d="M918 1573l-265 338h322l428 -393zM1372 666l-143 -666h-410l273 698q45 117 7 175.5t-153 58.5q-142 0 -231.5 -73t-118.5 -212l-135 -647h-406l426 1194h232v-92q58 31 91.5 46t97 29.5t136.5 14.5q230 0 311 -126.5t23 -399.5z" />
    <glyph glyph-name="Oslashacute" unicode="&#x1fe;" horiz-adv-x="1689" 
d="M2038 2494l-277 -462h-334l353 462h258zM2357 1855l-336 -333q76 -125 87 -294t-48 -376q-54 -187 -110 -323t-127 -241t-151.5 -171.5t-189 -108.5t-233.5 -58.5t-291 -15.5q-371 3 -526 115l-645 -172l498 463q-15 194 71 514q74 279 236.5 491.5t387.5 328.5t480 116
q182 0 318 -59l55 51zM727 854q-19 -72 -22 -123l808 752q-56 20 -129 20q-220 0 -399 -176t-258 -473zM1692 854q57 209 28 369l-747 -744q61 -6 135 -6q262 0 395 87t189 294z" />
    <glyph glyph-name="oslashacute" unicode="&#x1ff;" horiz-adv-x="1566" 
d="M1411 1968l-276 -463h-334l352 463h258zM1223 1126q115 -73 150.5 -214t-15.5 -337q-77 -291 -276 -446.5t-472 -155.5h-10l-25 -47l-534 -323l264 452q-194 146 -96 520q75 284 276 452.5t465 168.5h19l159 274l367 164zM524 608q-43 -136 -8 -188l305 524
q-99 -23 -176.5 -111.5t-120.5 -224.5zM1059 608q36 134 4 226l-252 -469q91 12 152.5 65t95.5 178z" />
    <glyph glyph-name="uni0218" unicode="&#x218;" horiz-adv-x="2150" 
d="M1346 1036q585 -121 497 -561q-18 -92 -65 -170.5t-110.5 -134.5t-144 -101t-162.5 -73t-170 -46.5t-162.5 -26t-143.5 -7.5q-191 0 -360 76.5t-341 224.5l363 340q18 -37 109.5 -100t210 -115.5t196.5 -54.5q39 -1 92 10.5t110 34.5t101.5 66t56.5 96q14 70 -45 120
t-217 84l-131 27q-534 112 -422 543q68 247 293 384.5t537 137.5q136 0 237.5 -15t268.5 -57l-238 -284q-29 8 -62 18t-49 14.5t-40.5 10t-46 6.5t-53.5 1t-75 -3q-194 -13 -311.5 -62.5t-130.5 -136.5q-11 -72 58 -128t218 -91zM1272 -168l-201 -362l-10 -37h-10l-166 -299
h-453l273 428l73 270h494z" />
    <glyph glyph-name="uni0219" unicode="&#x219;" horiz-adv-x="1550" 
d="M915 721q201 -61 283.5 -136.5t79.5 -201.5q-4 -111 -51 -190.5t-133 -126.5t-198 -68t-259 -21q-91 0 -162.5 10t-138.5 35.5t-114.5 50.5t-127.5 72l361 304q48 -20 102 -47.5t86.5 -39t73.5 -14.5q27 -2 61.5 0t72.5 9t62 24.5t21 42.5q-4 29 -56.5 53.5t-145 54
t-142.5 54.5q-175 83 -205 245q-30 164 97 291t368 144q102 7 264.5 -5.5t274.5 -31.5l-142 -248q-47 9 -89.5 19t-60 14t-49.5 8t-81 6q-141 6 -207.5 -20t-69.5 -90q-3 -63 51 -112t174 -85zM954 -115l-200 -362l-11 -37h-10l-166 -299h-452l272 428l74 270h493z" />
    <glyph glyph-name="uni021A" unicode="&#x21a;" horiz-adv-x="2131" 
d="M598 1757h1569l-84 -319l-598 22l-359 -1460h-454l450 1460l-608 -22zM1135 -281l-201 -362l-10 -37h-11l-165 -299h-453l272 428l74 270h494z" />
    <glyph glyph-name="uni021B" unicode="&#x21b;" horiz-adv-x="1415" 
d="M1288 883h-393l-168 -518q80 -17 122 -24t105 -4.5t117 23.5l-90 -360h-596q-60 0 -85.5 46t-6.5 110q3 11 52.5 108.5t131.5 272.5t148 346h-334l174 247h248q67 209 102 398l303 37l-141 -435h311v-247zM930 -150l-201 -362l-10 -37h-10l-166 -299h-453l272 428l74 270
h494z" />
    <glyph glyph-name="uni021F" unicode="&#x21f;" horiz-adv-x="1607" 
d="M768 1878l-66 152l-270 358h264l228 -190l336 190h264l-463 -358l-133 -152h-160zM1395 680l-150 -680h-414q237 497 289 669q49 160 0 212q-37 39 -153 39q-78 0 -130.5 -11.5t-101.5 -48.5t-81 -97.5t-63 -166.5t-55 -248t-49 -348h-432l600 1694h297l-200 -609
q85 53 156.5 73t168.5 20q100 0 166 -15t110 -49t60 -93t12 -141t-30 -200z" />
    <glyph glyph-name="uni0228" unicode="&#x228;" horiz-adv-x="1837" 
d="M1694 1464l-768 -41l-101 -381l578 25l-84 -315l-582 -37l-80 -295h766l-20 -420h-565l-78 -121h-17q120 0 166.5 -57.5t18.5 -161.5q-41 -151 -126.5 -220t-201.5 -69q-23 0 -82.5 -1t-107.5 -1l108 230q64 -15 81.5 -17t62.5 -2q15 0 34 4.5t41 23.5t23 50q0 25 -19 42
t-61 17q-55 0 -213 -22l184 305h-524l539 1722l1194 37z" />
    <glyph glyph-name="uni0229" unicode="&#x229;" horiz-adv-x="1560" 
d="M1358 594l-875 -57q-14 -118 65 -181t236 -57q20 1 72 2.5t69 3t58.5 5t65.5 10t63.5 16.5t79 26t86.5 37l-100 -376q-177 -73 -347 -97l-38 -61h-17q120 0 166.5 -57.5t18.5 -161.5q-41 -151 -126.5 -220t-201.5 -69q-23 0 -83 -1t-108 -1l109 229q16 -4 26 -6t21 -4
t16 -3.5t14 -2.5t11 -1t11.5 -0.5t11.5 -0.5h14.5h17.5q15 0 34 4.5t41.5 23.5t23.5 50q0 25 -19 42t-61 17q-55 0 -213 -22l143 235q-275 11 -394 182t-46 451l2 2q92 303 302.5 477t483.5 174h4q227 -19 313.5 -165t49.5 -443zM936 1016q-219 0 -363 -234l568 60
q-6 30 -13.5 53t-23 47t-36.5 39t-54.5 25t-77.5 10z" />
    <glyph glyph-name="uni022A" unicode="&#x22a;" horiz-adv-x="2267" 
d="M1477 2988l886 53l29 -268l-1098 -41zM1243 2527h434l-112 -428h-437zM1888 2527h434l-112 -428h-436zM958 -66q-162 1 -278.5 21t-201 65.5t-130 114.5t-60 173t3 237t64.5 309q74 279 236.5 491.5t387.5 328.5t480 116q192 0 335 -67.5t220 -191t92.5 -296.5
t-47.5 -383q-54 -187 -110 -323t-127 -241t-151.5 -171.5t-189 -108.5t-233.5 -58.5t-291 -15.5zM1108 473q262 0 395 87t189 294q79 297 -5 473t-303 176q-220 0 -399 -176t-258 -473q-57 -206 30 -293.5t351 -87.5z" />
    <glyph glyph-name="uni022B" unicode="&#x22b;" horiz-adv-x="1566" 
d="M764 2419l887 53l28 -268l-1097 -41zM588 1913h434l-113 -428h-436zM1233 1913h434l-113 -428h-436zM610 -27q-268 0 -373 153.5t-28 448.5q75 284 276 452.5t465 168.5q262 0 372.5 -168.5t35.5 -452.5q-77 -291 -276 -446.5t-472 -155.5zM725 360q50 0 85.5 4
t76.5 18.5t70.5 40.5t56.5 73t45 112q43 157 -5.5 249.5t-170.5 92.5q-120 0 -214.5 -92t-144.5 -250q-19 -61 -22.5 -103t7 -71t39.5 -45t71 -22.5t106 -6.5z" />
    <glyph glyph-name="uni0237" unicode="&#x237;" horiz-adv-x="1196" 
d="M-80 -508l125 356q198 -82 348 86q57 63 109 166.5t136 359.5t187 660h310l-365 -1009q-105 -292 -141 -369q-41 -86 -80 -119q-68 -58 -252.5 -100t-376.5 -31z" />
    <glyph glyph-name="uni023D" unicode="&#x23d;" horiz-adv-x="1837" 
d="M668 406l827 14l-92 -420h-1276l252 801l-365 2l70 297l389 -2l203 645h354l-174 -645l569 -2l-71 -297l-580 2z" />
    <glyph glyph-name="uni0242" unicode="&#x242;" 
d="M522 395q27 130 84.5 258t116.5 195q36 39 94.5 72.5t105 52.5t86.5 49.5t50 67.5q36 130 -49 149q-45 9 -74.5 9.5t-50 -6t-33 -25.5t-20 -43t-15.5 -66h-229l-41 55q16 59 49 108.5t75.5 84t92 60.5t99.5 40.5t98.5 21.5t89 6t69.5 -9q124 -29 170.5 -121t14.5 -240
q-21 -92 -70 -167t-103.5 -118.5t-106 -73t-86 -43.5t-34.5 -16q-3 -11 -28.5 -127.5t-53.5 -173.5h-301z" />
    <glyph glyph-name="uni0243" unicode="&#x243;" horiz-adv-x="1937" 
d="M1696 1278q-61 -236 -246 -350q132 -61 180.5 -176t1.5 -273q-23 -78 -54.5 -141.5t-62 -110t-77 -82.5t-82 -59.5t-96.5 -39.5t-100 -24.5t-113 -12.5t-116 -4.5t-126 -0.5h-676l125 453h-311l57 215h315l301 1085h596q288 0 416.5 -126t67.5 -353zM1389 1251
q28 111 -26 169.5t-185 58.5h-279l-113 -418h279q143 0 219.5 45.5t104.5 144.5zM1278 582q5 18 -8 48.5t-41 61.5q-52 58 -219 58h-305l-21 -78h238l-58 -215h-237l-15 -51h306q130 0 199.5 15.5t105.5 52t55 108.5z" />
    <glyph glyph-name="uni0244" unicode="&#x244;" horiz-adv-x="2330" 
d="M2550 1202l-113 -297h-229l-84 -262q-40 -125 -81.5 -222.5t-91 -169t-94 -122.5t-107.5 -84t-113 -52t-129 -28t-137 -11.5t-154 -2.5q-76 0 -125 1.5t-111 6.5t-99 15.5t-81.5 28t-68 44t-47.5 64t-31 88.5t-8.5 115.5t11 146.5t35.5 182l62 266h-406l111 297h364
l129 555h422l-170 -557h709l129 557h436l-176 -559h248zM1827 827l18 80h-731l-24 -80q-20 -65 -34 -115.5t-18.5 -92t-8 -72t8 -54t18.5 -39t34 -26t44 -16t59.5 -8t69 -3t83.5 -0.5t83.5 0.5t70 3t63 8t52 16t47.5 26t38.5 39t36.5 54t30.5 72t31 92t28.5 115.5z" />
    <glyph glyph-name="uni0245" unicode="&#x245;" horiz-adv-x="2295" 
d="M1413 1741l1079 -1757h-366l-807 1171l-107 21l-102 -1192h-352l86 1757h569z" />
    <glyph glyph-name="uni024B" unicode="&#x24b;" horiz-adv-x="1593" 
d="M1470 90q189 -123 289 -223l-2 -57q-113 -89 -211 -146q-150 -87 -243 -82l-621 -166l182 588q-146 -94 -313 -88q-231 9 -326.5 184.5t-19.5 458.5q74 280 261 450t421 181q108 4 180 -31t123 -117l35 134h340l-412 -1266q61 -20 80 -23l55 21l80 26q33 36 102 156z
M635 336q83 0 138 10t99.5 38t71.5 76.5t45 125.5q39 173 -12 269.5t-178 96.5q-247 0 -353 -366q-23 -79 -25 -126t21 -75.5t68 -38.5t125 -10z" />
    <glyph glyph-name="uni024C" unicode="&#x24c;" horiz-adv-x="1417" 
d="M1649 1208q-75 -281 -291 -385q55 -63 88 -154.5t35 -185.5l12 -538h-569l153 497q35 107 -34 154t-220 22l-71 -10l-138 -663h-501l235 710l-325 2l55 340l385 -2l252 762h475q289 0 409 -143t50 -406zM1358 1208q82 303 -213 303h-227l-134 -503h228q113 0 220 62.5
t126 137.5z" />
    <glyph glyph-name="uni0250" unicode="&#x250;" horiz-adv-x="1544" 
d="M1018 1190q127 0 213 -50.5t121 -133t33.5 -181.5t-39.5 -202q-50 -133 -129.5 -248.5t-168.5 -193t-182 -121.5t-174 -44q-165 0 -262 66v-66h-227l164 1145h307l-23 -78q162 107 367 107zM930 809q-66 0 -105 -0.5t-80 -6.5t-62 -11.5t-45 -22.5t-35 -32.5t-26.5 -49
t-24.5 -65t-24 -86.5q-40 -149 18 -228.5t206 -79.5q80 0 154.5 75t166.5 251q24 46 38.5 77t24 59.5t11 45.5t-7 32t-23 22t-42.5 12t-61 6.5t-83 1.5z" />
    <glyph glyph-name="uni0251" unicode="&#x251;" horiz-adv-x="1544" 
d="M526 -43q-86 0 -153.5 23.5t-110.5 64t-69 95.5t-32 118t3.5 130.5t34.5 135.5q66 176 181 317t239 215t233 74q167 0 262 -65v65h227l-163 -1144h-308l23 77q-161 -106 -367 -106zM614 338q66 0 105 0.5t80 6.5t62 11.5t45 22.5t35 32.5t26.5 49t24.5 65t24 86.5
q40 149 -17.5 228.5t-205.5 79.5q-80 0 -155.5 -75.5t-166.5 -250.5q-24 -46 -38.5 -77t-24 -59.5t-11 -45.5t7 -32t23 -22t42.5 -12t61 -6.5t83 -1.5z" />
    <glyph glyph-name="uni0252" unicode="&#x252;" horiz-adv-x="1544" 
d="M1018 1190q127 0 213 -50.5t121 -133t33.5 -181.5t-39.5 -202q-50 -133 -129.5 -248.5t-168.5 -193t-182 -121.5t-174 -44q-165 0 -262 66v-66h-227l164 1145h307l-23 -78q162 107 367 107zM930 809q-66 0 -105 -0.5t-80 -6.5t-62 -11.5t-45 -22.5t-35 -32.5t-26.5 -49
t-24.5 -65t-24 -86.5q-40 -149 18 -228.5t206 -79.5q80 0 154.5 75t166.5 251q24 46 38.5 77t24 59.5t11 45.5t-7 32t-23 22t-42.5 12t-61 6.5t-83 1.5z" />
    <glyph glyph-name="uni0253" unicode="&#x253;" horiz-adv-x="1316" 
d="M977 1145q110 0 196.5 -45t134.5 -123.5t59.5 -185.5t-26.5 -232q-50 -169 -154 -306.5t-246.5 -217.5t-293.5 -80q-210 0 -307 54t-111 173q-8 51 29 245t116 575t132 677h61q62 172 224 295t356 140l53 -54q-8 -37 -15 -66t-16.5 -62.5t-14.5 -51.5t-20.5 -67.5
t-23.5 -75.5q-104 7 -175.5 -37.5t-105.5 -136.5q-19 -48 -39.5 -146.5t-60.5 -320.5l-47 78l-55 -201q16 55 129 113.5t221 58.5zM1122 604q35 140 -8.5 219.5t-157.5 79.5q-120 0 -212 -83.5t-130 -227.5q-14 -52 -19.5 -86.5t-1.5 -62.5t17 -44t40 -27t64 -14.5t93 -3.5
q115 9 190 68.5t125 181.5z" />
    <glyph glyph-name="uni0254" unicode="&#x254;" horiz-adv-x="1447" 
d="M809 1190q123 -9 212.5 -44t142.5 -89t78.5 -128.5t24.5 -158t-24 -182.5q-45 -194 -162.5 -341t-284 -224.5t-358.5 -77.5q-70 0 -141.5 15t-77.5 34l68 252q135 -45 262 -45q141 0 231.5 92t145.5 293q13 59 0 108.5t-47.5 80t-82.5 42.5t-112.5 -3t-130.5 -58
l-209 323q269 125 465 111z" />
    <glyph glyph-name="uni0255" unicode="&#x255;" horiz-adv-x="1419" 
d="M1210 655q142 -117 97 -280q-38 -135 -188.5 -257.5t-334.5 -174.5q-60 -286 -94 -408h-340q70 258 105 391q-229 34 -301.5 190t4.5 443q78 293 297 468t508 175q70 0 141.5 -15t77.5 -34l-68 -252q-135 45 -262 45q-141 0 -231.5 -92.5t-145.5 -294.5
q-27 -108 -7.5 -182t81.5 -105q3 14 22 88q44 166 162.5 272.5t257.5 106.5q115 0 219 -84zM862 301q121 49 133 102v3q-32 28 -55 28q-18 0 -38.5 -32t-37.5 -91q0 -2 -1 -5t-1 -5z" />
    <glyph glyph-name="uni0256" unicode="&#x256;" horiz-adv-x="1576" 
d="M1669 1694l-377 -1213l-110 -452q39 -6 88 2q-31 -194 -62 -322l-71 -57q-164 0 -259 105t-83 268q-119 -69 -242 -72q-251 -7 -343 156t-5 450q49 167 151.5 302.5t241 213.5t285.5 78q190 0 284 -104l203 645h299zM457 580q-31 -114 15 -167t179 -53q103 0 159.5 20.5
t90.5 74.5l19 67h14q3 6 22 72q41 155 3 235t-154 80q-119 0 -213.5 -89t-134.5 -240z" />
    <glyph glyph-name="uni0257" unicode="&#x257;" horiz-adv-x="1576" 
d="M1901 2036l41 -58q-29 -100 -113 -321q-111 18 -184 -43l-353 -1133l-118 -481h-289v90q-150 -131 -332 -137q-251 -7 -343 156t-5 450q49 167 151.5 302.5t241 213.5t285.5 78q190 0 284 -104l113 358q7 26 16 58.5t15 55t10 40.5q14 54 43 114l6 19h4
q80 151 225.5 246.5t301.5 95.5zM956 594q41 155 3 235t-154 80q-119 0 -213.5 -89t-134.5 -240q-31 -114 15 -167t179 -53q147 0 207 46t98 188z" />
    <glyph glyph-name="uni0258" unicode="&#x258;" horiz-adv-x="1560" 
d="M203 594q-37 297 49.5 443t312.5 165h4q274 0 484.5 -174.5t302.5 -476.5l2 -2q77 -289 -52.5 -461t-422.5 -172q-241 0 -500 107l-100 376q47 -22 86.5 -37.5t79 -25.5t63.5 -16.5t65.5 -10t58 -5t68.5 -3t72 -2.5q157 -6 236 57t65 181zM987 782q-144 234 -362 234
q-44 0 -77.5 -10t-54.5 -25t-36.5 -39t-23 -47t-13.5 -53z" />
    <glyph glyph-name="uni0259" unicode="&#x259;" horiz-adv-x="1560" 
d="M203 553l874 57q14 118 -65 181t-236 57q-20 -1 -72 -2.5t-68.5 -3t-58 -5t-65.5 -10t-63.5 -16.5t-79 -25.5t-86.5 -37.5l100 376q259 107 500 107q293 0 422.5 -172t52.5 -461l-2 -2q-92 -302 -302.5 -476.5t-484.5 -174.5h-4q-226 19 -312.5 165t-49.5 443zM987 365
l-567 -60q6 -30 13.5 -53t23 -47t36.5 -39t54.5 -25t77.5 -10q218 0 362 234z" />
    <glyph glyph-name="uni025A" unicode="&#x25a;" horiz-adv-x="1560" 
d="M1538 537q-3 -28 -3.5 -35.5t2.5 -11t9 -1t19.5 -2.5t29.5 -18q-11 -92 -24 -147l-72 -56q-98 0 -138 65t-9 175v2l-27 -2q-105 -263 -305 -412t-451 -149h-4q-226 19 -312.5 165t-49.5 443l874 57q14 118 -65 181t-236 57q-20 -1 -72 -2.5t-68.5 -3t-58 -5t-65.5 -10
t-63.5 -16.5t-79 -25.5t-86.5 -37.5l100 376q259 107 500 107q263 0 395.5 -140t101.5 -384l203 16q-43 -156 -45 -186zM625 131q218 0 362 234l-567 -60q6 -30 13.5 -53t23 -47t36.5 -39t54.5 -25t77.5 -10z" />
    <glyph glyph-name="uni025B" unicode="&#x25b;" horiz-adv-x="1017" 
d="M510 -53q-177 0 -256.5 97t-36.5 257q52 192 215 246q-107 71 -70 215q37 134 158 212.5t291 78.5q25 0 53 -5.5t61 -18.5t57.5 -34t43.5 -52.5t19 -74t-17 -98.5l-164 -31q34 79 13.5 122.5t-91.5 43.5q-107 0 -177 -35.5t-85 -97.5q-20 -72 20 -105.5t146 -33.5h74
l-8 -166h-82q-97 0 -161 -34.5t-79 -94.5q-19 -69 14 -107.5t111 -40.5q34 -1 51.5 0t41.5 6.5t36 19t24 36t16 59.5t3 88l230 19q9 -83 -6.5 -153t-47.5 -117t-76.5 -84.5t-90.5 -58.5t-93.5 -35t-80.5 -18.5t-56 -4.5z" />
    <glyph glyph-name="uni025C" unicode="&#x25c;" horiz-adv-x="1017" 
d="M508 -53q-23 0 -56 4.5t-80.5 18.5t-93.5 35t-90.5 58.5t-76.5 84.5t-47.5 117t-6.5 153l230 -19q-1 -51 3 -88t16 -59.5t24 -36t36 -19t41.5 -6.5t51.5 0q78 2 111 40.5t14 107.5q-15 60 -79 94.5t-161 34.5h-82l-8 166h74q106 0 146 33.5t20 105.5q-15 62 -85.5 97.5
t-177.5 35.5q-71 0 -91 -43.5t14 -122.5l-164 31q-17 56 -17 98.5t19 74t43.5 52.5t57.5 34t61 18.5t53 5.5q170 0 290.5 -78.5t157.5 -212.5q38 -144 -69 -215q163 -54 215 -246q43 -160 -36.5 -257t-256.5 -97z" />
    <glyph glyph-name="uni025D" unicode="&#x25d;" horiz-adv-x="1017" 
d="M508 -53q-23 0 -56 4.5t-80.5 18.5t-93.5 35t-90.5 58.5t-76.5 84.5t-47.5 117t-6.5 153l230 -19q-1 -51 3 -88t16 -59.5t24 -36t36 -19t41.5 -6.5t51.5 0q78 2 111 40.5t14 107.5q-15 60 -79 94.5t-161 34.5h-82l-8 166h74q106 0 146 33.5t20 105.5q-15 62 -85.5 97.5
t-177.5 35.5q-71 0 -91 -43.5t14 -122.5l-164 31q-17 56 -17 98.5t19 74t43.5 52.5t57.5 34t61 18.5t53 5.5q170 0 290.5 -78.5t157.5 -212.5q38 -144 -69 -215q163 -54 215 -246q43 -160 -36.5 -257t-256.5 -97z" />
    <glyph glyph-name="uni025E" unicode="&#x25e;" horiz-adv-x="1200" 
d="M246 510q73 275 257.5 422t454.5 147q182 0 267 -85.5t47 -231.5q-22 -82 -56 -132t-94 -85q96 -71 49 -244q-47 -175 -192.5 -282t-325.5 -99q-259 12 -367.5 170t-39.5 420zM487 516q-34 -129 40 -214t223 -85q139 0 170 121q14 48 -25.5 75.5t-124.5 26.5h-117
l109 219h94q95 0 143.5 26.5t63.5 86.5q12 48 -32.5 77.5t-139.5 29.5q-139 0 -249.5 -100t-154.5 -263z" />
    <glyph glyph-name="uni025F" unicode="&#x25f;" horiz-adv-x="1196" 
d="M1298 731l-57 -215h-326l-145 -405q-105 -292 -141 -369q-41 -86 -80 -119q-68 -58 -252.5 -100t-376.5 -31l125 356q198 -82 348 86q60 65 121 194t143 388h-338l58 215h344q44 151 104 389h310l-142 -389h305z" />
    <glyph glyph-name="uni0260" unicode="&#x260;" horiz-adv-x="1562" 
d="M1339 1518q27 68 50.5 112.5t58 78t70 50t95.5 24.5t125 7t167 -8l-97 -279q-29 0 -54.5 1.5t-40.5 2t-28.5 2.5t-19.5 1t-11 -0.5t-7.5 -4.5t-4 -8.5t-4.5 -14.5t-6 -20q-15 -41 -40 -114.5t-38 -110.5l-204 -594l-158 -504q-220 -708 -782 -708q-124 0 -246 33.5
t-205 91.5l211 319q64 -49 101 -73.5t92.5 -46t109.5 -21.5q110 0 232 114.5t194 264.5l-94 -86l-1 2q-120 -81 -245 -82q-233 0 -329 172t-21 454q76 284 266.5 467t419.5 183q93 0 166.5 -46t109.5 -106l23 41l125 358h2q6 18 18 48zM954 584q47 177 6 270.5t-167 93.5
q-125 0 -218.5 -93t-140.5 -269q-9 -55 -12.5 -89.5t1.5 -62.5t16 -42t37 -23.5t57.5 -12t84.5 -2.5q117 0 178.5 18.5t97 66t60.5 145.5z" />
    <glyph glyph-name="uni0261" unicode="&#x261;" horiz-adv-x="1562" 
d="M410 -569q-124 0 -246 33.5t-205 91.5l211 319q64 -49 101 -73.5t92.5 -46t109.5 -21.5q110 0 232 114.5t194 264.5l-94 -86l-1 2q-120 -81 -245 -82q-233 0 -329 172t-21 454q76 284 266.5 467t419.5 183q93 0 166.5 -46t109.5 -106l58 105h287l-324 -1037
q-220 -708 -782 -708zM618 354q117 0 178.5 18.5t97 66t60.5 145.5q47 177 6 270.5t-167 93.5q-125 0 -218.5 -93t-140.5 -269q-9 -55 -12.5 -89.5t1.5 -62.5t16 -42t37 -23.5t57.5 -12t84.5 -2.5z" />
    <glyph glyph-name="uni0262" unicode="&#x262;" horiz-adv-x="1552" 
d="M1006 313l22 90l-201 37l33 199l512 -59l-20 -232l-111 19l-55 -271q-130 -76 -244.5 -107.5t-247.5 -31.5q-552 0 -448 621q29 172 90.5 292t161 193t229.5 106t305 33q190 0 344 -28l-26 -216q-146 48 -359 48q-61 0 -96.5 -1.5t-81 -7t-71.5 -16.5t-58.5 -31.5
t-53.5 -50t-45 -73t-43.5 -100.5t-39.5 -132q-43 -181 21.5 -249.5t275.5 -68.5q141 0 207 37z" />
    <glyph glyph-name="uni0263" unicode="&#x263;" horiz-adv-x="1456" 
d="M1614 924q-83 -80 -98 -90q-269 -196 -482 -377q77 -169 106.5 -312.5t9.5 -255.5t-86 -190t-183 -118.5t-279 -39.5q-433 5 -432 211q1 205 440 640q28 28 58 57q-111 191 -277 401q-6 7 -15 21.5t-20.5 36.5t-17.5 32l291 193q53 -97 61 -109q142 -195 228 -344
q91 82 403 350q9 8 28.5 27t40.5 37t48 36zM682 -150q119 -3 143.5 97.5t-45.5 275.5q-247 -251 -194 -336q21 -35 96 -37z" />
    <glyph glyph-name="uni0264" unicode="&#x264;" horiz-adv-x="1439" 
d="M1309 1106q50 1 89 -9.5t64.5 -27t42.5 -44t26 -54.5t10.5 -64t-1 -67.5t-9.5 -70.5t-13.5 -67t-16.5 -63h-244q11 46 17 84t6.5 65.5t-3.5 46.5t-12 28t-20 9q-34 0 -77.5 -47.5t-114.5 -152.5q3 -17 10 -50t10 -49q3 -13 9 -37q40 -171 40 -248q1 -129 -80 -214
q-143 -146 -354 -146q-114 0 -165 30t-85 116q-9 22 -9 49.5t6.5 54t24 62.5t34.5 65.5t46.5 74t52 76.5t58.5 83.5t60 85.5q35 47 61 92q-10 80 -27.5 112.5t-46.5 32.5q-39 0 -58.5 -3t-37 -12.5t-28 -32.5t-21 -56.5t-26.5 -91.5q-1 -6 -2 -9t-2.5 -8.5t-2.5 -9.5h-239
q5 17 14.5 53.5t16 59.5t19.5 60.5t25.5 62.5t33.5 58t44 55t56 45.5t71 37t88 22.5t107 9q131 0 205 -139q70 69 153.5 105.5t194.5 37.5zM754 172q27 0 34.5 18.5t6.5 96.5q-70 -115 -41 -115z" />
    <glyph glyph-name="uni0265" unicode="&#x265;" horiz-adv-x="1607" 
d="M213 467l149 680h414q-237 -496 -289 -669q-48 -160 1 -212q37 -39 153 -39q78 0 130 11.5t101 48.5t81.5 97.5t63 166.5t54.5 248t49 348h432l-600 -1694h-297l201 608q-84 -53 -156 -72.5t-170 -19.5q-100 0 -166 15t-109.5 49t-59.5 93t-12 141t30 200z" />
    <glyph glyph-name="uni0266" unicode="&#x266;" horiz-adv-x="1607" 
d="M1077 1178q100 0 166 -15t110 -49t60 -93t12 -141t-30 -200l-150 -680h-414q237 497 289 669q49 160 0 212q-37 39 -153 39q-87 0 -147 -17t-105 -61l-10 -37h-23q-64 -88 -108.5 -274.5t-86.5 -530.5h-432l600 1692v2l9 30h2q1 7 14 50q21 70 41 115t50 80t62 53.5
t87 29.5t115 13.5t155 0.5l-76 -282q-29 -1 -56 -1.5t-40.5 1t-26 0t-16.5 0t-9 -4t-5 -8t-3 -16t-6 -22.5l-2 -9l-8 -30h10l-53 -164l-115 -424q72 40 138.5 56t154.5 16z" />
    <glyph glyph-name="uni0267" unicode="&#x267;" horiz-adv-x="1398" 
d="M1077 1178q100 0 166 -15t110 -49t60 -93t12 -141t-30 -200l-127 -580q0 -21 2.5 -70.5t1.5 -82.5t-8 -53q-38 -111 -148.5 -198t-253 -123t-268.5 -7l-23 78q51 141 152 368q62 -30 115 -12h-7q237 497 289 669q49 160 0 212q-37 39 -153 39q-87 0 -147 -17t-105 -61
l-10 -37h-23q-64 -88 -108.5 -274.5t-86.5 -530.5h-432l600 1692v2l9 30h2q1 7 14 50q21 70 41 115t50 80t62 53.5t87 29.5t115 13.5t155 0.5l-76 -282q-29 -1 -56 -1.5t-40.5 1t-26 0t-16.5 0t-9 -4t-5 -8t-3 -16t-6 -22.5l-2 -9l-8 -30h10l-53 -164l-115 -424
q72 40 138.5 56t154.5 16z" />
    <glyph glyph-name="uni0268" unicode="&#x268;" horiz-adv-x="813" 
d="M838 1612l-78 -344h-301l106 344h273zM874 477h-331q-54 -132 -79 -240t-13 -237h-379q6 89 32.5 180t53.5 149t75 148h-280l57 215h330q84 197 84 400h278q3 -203 -71 -400h301z" />
    <glyph glyph-name="uni0269" unicode="&#x269;" horiz-adv-x="583" 
d="M492 -55q-49 1 -109 0l-90 -1.5t-67.5 2t-55.5 8.5t-38 19.5t-31.5 35t-20.5 54.5l2 33q79 211 129 396t86 349t61 251h281q-19 -48 -64 -216t-100 -377t-82 -302q8 -5 11.5 -6.5t10 -2t15.5 1t28.5 2t49.5 1.5t78 0z" />
    <glyph glyph-name="uni026A" unicode="&#x26a;" horiz-adv-x="706" 
d="M88 0q139 361 240.5 711.5t107.5 502.5h269q-208 -650 -297 -1214h-320z" />
    <glyph glyph-name="uni026B" unicode="&#x26b;" horiz-adv-x="1038" 
d="M690 1065h146l41 -55q-41 -145 -83 -222t-99.5 -109.5t-147.5 -31.5h-2q-27 -82 -45.5 -146.5t-29 -114.5t-8.5 -76.5t17 -26.5h238l-41 -283h-615q9 70 49 203.5t78 241.5t120 334q20 55 30 83q-17 0 -27 -6t-16 -24t-9 -38t-10.5 -63t-17.5 -84h-170l-41 60
q70 207 142 282.5t204 75.5h17q125 344 202 596h310q-177 -450 -232 -596zM616 862q8 3 13 10.5t10 22.5t9 31t12 45.5t18 58.5z" />
    <glyph glyph-name="uni026C" unicode="&#x26c;" horiz-adv-x="1390" 
d="M1425 539q-273 0 -456 14l-74 -270h231l-41 -283h-614q19 142 186 610q-126 41 -194 114.5t-80 190.5q-25 242 205 375q119 72 278 72q32 0 56 -6q56 164 100 305h309q-216 -557 -233 -602q-1 -13 -15 -76q-24 -90 -28 -106q74 -1 224.5 -4.5t233.5 -2.5zM682 1026
q-6 -21 19 -48.5t69 -51.5l31 84q-9 47 -47 47q-24 0 -72 -29v-2z" />
    <glyph glyph-name="uni026D" unicode="&#x26d;" horiz-adv-x="1148" 
d="M1069 106q-105 -368 -247 -513q-107 -109 -281 -136q-95 -15 -333 -14h-69q-57 0 -86.5 30t-31.5 91t13.5 138.5t49.5 186.5q149 467 328 997.5t270 774.5h293q-27 -51 -74.5 -195t-116.5 -390t-112.5 -404.5t-123 -456.5t-87.5 -328q-19 -68 20 -94q38 -24 93 13
q83 55 120 200q4 19 8 39z" />
    <glyph glyph-name="uni026E" unicode="&#x26e;" horiz-adv-x="1419" 
d="M2087 885l41 -45q-6 -63 -13.5 -114.5t-15.5 -100t-12 -76.5l-27 -43q-179 -154 -450 -365q154 -46 242 -175.5t61 -278.5q-126 -688 -733 -688q-384 0 -590 311l426 284q60 -96 142 -134.5t158 -19.5t140.5 92t93.5 185q15 96 -126.5 143t-370.5 17l73 277
q99 74 288 208.5t294 219.5q-330 -3 -731 0l-338 -1131h-256l555 1852h256l-125 -418q31 0 274.5 2t454.5 2t289 -4z" />
    <glyph glyph-name="uni026F" unicode="&#x26f;" horiz-adv-x="2324" 
d="M889 129q-103 -102 -204 -149.5t-214 -34.5q-170 21 -253 168t-30 356l172 672h398l-279 -656q-40 -151 -23 -205.5t101 -54.5q102 0 174.5 76.5t161.5 261.5l274 578h375l-366 -711q-10 -40 -9.5 -68.5t7.5 -46t26.5 -31t37.5 -20.5t52 -18q8 -3 13 -4q25 -7 66.5 2
t90 33.5t96 76.5t74.5 121l264 666h373l-477 -1170h-297l23 62q-148 -91 -312 -88q-119 2 -200 49t-115 135z" />
    <glyph glyph-name="uni0270" unicode="&#x270;" horiz-adv-x="2125" 
d="M2286 1141l-535 -1536h-336l119 366h-37l23 62q-148 -91 -312 -88q-119 2 -200 49t-115 135q-103 -102 -204 -149.5t-214 -34.5q-170 21 -252.5 168t-29.5 356l172 672h397l-279 -656q-40 -151 -23 -205.5t101 -54.5q102 0 174.5 76.5t161.5 261.5l274 578h375l-366 -711
q-10 -40 -9.5 -68.5t7.5 -46t26.5 -31t37.5 -20.5t52 -18q8 -3 13 -4q25 -7 66.5 2t90 33.5t96 76.5t74.5 121l264 666h388z" />
    <glyph glyph-name="uni0271" unicode="&#x271;" horiz-adv-x="2324" 
d="M1853 1202q170 -21 253 -168t30 -356l-147 -578q9 -15 6 -37q-69 -297 -183 -382q-45 -34 -186.5 -56t-270.5 -18t-143 35q38 58 131 233h138h15q20 0 28 1.5t16.5 5t15 22t12.5 36.5t19 64v2h-20l278 656q40 151 23 205.5t-101 54.5q-102 0 -174 -76.5t-161 -261.5
l-275 -578h-375l367 711q10 40 9.5 68.5t-7.5 46t-26.5 31t-37.5 20.5t-52 18q-8 3 -13 4q-25 7 -67 -2t-90.5 -33.5t-96 -76.5t-74.5 -121l-264 -666h-373l478 1170h296l-22 -62q148 91 311 88q119 -2 200.5 -49t115.5 -135q103 102 203.5 149.5t213.5 34.5z" />
    <glyph glyph-name="uni0272" unicode="&#x272;" horiz-adv-x="1554" 
d="M1208 1192q230 0 311 -126.5t23 -399.5l-143 -666h-410l273 698q45 117 7 175.5t-153 58.5q-142 0 -231.5 -73t-118.5 -212l-123 -592h33q-84 -317 -134 -416.5t-157 -99.5h-401l88 330q42 3 92 1q17 1 28 -0.5t20 3.5t15 10.5t12 22t12.5 36.5t15.5 54q1 3 1 4h-43
l426 1194h232v-92q58 31 91.5 46t97 29.5t136.5 14.5z" />
    <glyph glyph-name="uni0273" unicode="&#x273;" horiz-adv-x="1531" 
d="M1280 61q-5 -19 -14 -52q-26 -101 -23 -118q4 -16 35 -16q6 0 21 1q53 2 92 -1l-91 -330h-401q-101 0 -102 103.5t71 351.5h-49l273 698q45 117 7 175.5t-153 58.5q-142 0 -231.5 -73t-118.5 -212l-135 -647h-406l426 1194h232v-92q58 31 91.5 46t97 29.5t136.5 14.5
q230 0 311 -126.5t23 -399.5l-131 -605h39z" />
    <glyph glyph-name="uni0274" unicode="&#x274;" horiz-adv-x="1456" 
d="M1247 1210h234l-406 -1210h-330l-120 760l-185 -760h-352l424 1165h266l178 -780z" />
    <glyph glyph-name="uni0275" unicode="&#x275;" horiz-adv-x="1566" 
d="M950 1196q262 0 372.5 -168.5t35.5 -452.5q-77 -291 -276 -446.5t-472 -155.5q-268 0 -373 153.5t-28 448.5q75 284 276 452.5t465 168.5zM883 950q-94 0 -173.5 -58t-136.5 -163l504 27q-3 92 -54 143t-140 51zM725 360q58 0 98.5 6t84.5 25.5t77.5 61t58.5 106.5
l-538 -16q-21 -106 29 -144.5t190 -38.5z" />
    <glyph glyph-name="uni0276" unicode="&#x276;" horiz-adv-x="1691" 
d="M1935 981l-522 -29v-2q35 -110 14 -252l312 13l-58 -215l-313 -19q-47 -138 -84 -207h467l-12 -284h-789q-113 -31 -299 -31q-132 1 -220.5 21.5t-146 64t-78 118t-12 177t47.5 246.5q77 287 282 461t469 174q153 0 256 -62l799 27zM494 582q-38 -141 21 -200.5
t239 -59.5q154 0 235 40l164 527q-55 133 -211 133q-150 0 -271 -119t-177 -321z" />
    <glyph glyph-name="uni0278" unicode="&#x278;" horiz-adv-x="2267" 
d="M1735 1747q162 -56 257 -182t113 -306t-45 -407q-123 -425 -280 -624.5t-426 -258.5l-168 -780h-256l160 748q-62 -3 -132 -3q-162 1 -278.5 21t-201 65.5t-130 114.5t-60 173t3 237t64.5 309q74 279 236.5 491.5t387.5 328.5t480 116q67 0 142 -10h139zM1108 473
q67 0 98 4l219 1024q-14 2 -41 2q-220 0 -399 -176t-258 -473q-57 -206 30 -293.5t351 -87.5zM1692 854q93 354 -37 526l-178 -837q154 83 215 311z" />
    <glyph glyph-name="uni0279" unicode="&#x279;" horiz-adv-x="1314" 
d="M172 -35l-49 291q74 0 135.5 5t107.5 12.5t83.5 22t63 27t46.5 35t32.5 38t23 44.5t16 46t13 50t13.5 50q80 281 113 561h490q-172 -353 -254.5 -570.5t-186.5 -603.5h-301l19 74q-92 -45 -152 -59t-213 -23z" />
    <glyph glyph-name="uni027A" unicode="&#x27a;" horiz-adv-x="1114" 
d="M1264 1147h6q-3 -7 -10.5 -21.5t-10.5 -21.5l-51 -146h-18q-116 -246 -187 -445.5t-164 -539.5h-301l19 74q-92 -45 -152 -59t-213 -23l-49 291q94 0 168.5 8t125.5 20.5t89 35t59.5 43t38 53t24 57.5t17.5 63q3 11 4.5 17t4 15.5t4.5 17.5q55 186 86 372h-4l116 725h586
z" />
    <glyph glyph-name="uni027B" unicode="&#x27b;" horiz-adv-x="1314" 
d="M819 -25q40 -69 168 -51q-32 -203 -61 -321l-72 -58q-181 0 -275 122t-59 306h-2l19 74q-92 -45 -152 -59t-213 -23l-49 291q74 0 135.5 5t107.5 12.5t83.5 22t63 27t46.5 35t32.5 38t23 44.5t16 46t13 50t13.5 50q80 281 113 561h490q-172 -353 -254.5 -570.5
t-186.5 -601.5z" />
    <glyph glyph-name="uni027D" unicode="&#x27d;" horiz-adv-x="1058" 
d="M657 561q-79 -275 -112 -561h-13q45 -51 154 -33q-5 -28 -13.5 -75t-12.5 -66t-10.5 -52t-14 -62t-17.5 -66l-71 -58q-111 0 -212 33t-169.5 85.5t-100 123.5t-10.5 143q2 9 13 27h-13q172 353 254.5 570.5t186.5 603.5h301l-19 -74q92 45 152 59t213 23l49 -291
q-94 0 -168.5 -8t-125.5 -20.5t-89 -35t-59.5 -43t-38 -53t-24 -57.5t-17.5 -63q-3 -11 -4.5 -17t-4 -15.5t-4.5 -17.5z" />
    <glyph glyph-name="uni027E" unicode="&#x27e;" horiz-adv-x="653" 
d="M360 922q21 70 41 115t50 80t62 53.5t87 29.5t115 13.5t155 0.5l-75 -282q-29 -1 -56 -1.5t-40.5 1t-26 0t-16.5 0t-9 -4t-5 -8t-3 -16t-6 -22.5l-2 -9l-23 -86l-26 -96l-197 -737h-289l201 741q10 38 18.5 71.5t13 49t7.5 27.5l8 30h2q1 7 14 50z" />
    <glyph glyph-name="uni0280" unicode="&#x280;" horiz-adv-x="1339" 
d="M938 567q37 -43 60 -106t24 -127l8 -373h-393l106 344q25 73 -23 105.5t-153 15.5l-49 -6l-94 -459h-346l416 1251h327q200 0 282.5 -97.5t35.5 -280.5q-54 -195 -201 -267zM791 1042h-158l-92 -346h157q78 0 152 42.5t88 95.5q55 208 -147 208z" />
    <glyph glyph-name="uni0281" unicode="&#x281;" horiz-adv-x="1339" 
d="M401 580q-37 43 -60 106t-24 127l-8 373h393l-106 -344q-25 -73 23 -105.5t153 -15.5l49 6l94 459h347l-416 -1252h-328q-200 0 -282 98t-35 281q54 195 200 267zM549 104h158l92 347h-158q-78 0 -152 -42.5t-88 -95.5q-56 -209 148 -209z" />
    <glyph glyph-name="uni0282" unicode="&#x282;" horiz-adv-x="1550" 
d="M915 721q201 -61 283.5 -136.5t79.5 -201.5q-4 -111 -51 -190.5t-133 -126.5t-198 -68t-259 -21q-187 0 -326 54q-35 -107 -39 -140q-8 -65 38 -92.5t145 -17.5q-32 -145 -62 -234l-71 -41q-94 0 -169 26.5t-117 73t-54.5 109.5t16.5 135l106 287h5q-3 1 -5.5 2.5t-5.5 3
t-4 2.5l361 304q48 -20 102 -47.5t86.5 -39t73.5 -14.5q27 -2 61.5 0t72.5 9t62 24.5t21 42.5q-4 29 -56.5 53.5t-145 54t-142.5 54.5q-175 83 -205 245q-30 164 97 291t368 144q102 7 264.5 -5.5t274.5 -31.5l-142 -248q-47 9 -89.5 19t-60 14t-49.5 8t-81 6
q-141 6 -207.5 -20t-69.5 -90q-3 -63 51 -112t174 -85z" />
    <glyph glyph-name="uni0283" unicode="&#x283;" horiz-adv-x="1777" 
d="M2085 1556l-82 -305q-53 74 -90.5 100.5t-95.5 26.5q-77 0 -134 -49.5t-104 -157.5l-203 -475l-196 -485q-46 -113 -92.5 -206t-86 -161t-85 -120.5t-78.5 -86.5t-79 -57.5t-74.5 -35.5t-76.5 -18t-73 -6.5t-76 -0.5h-19q-31 0 -73.5 9.5t-96 32.5t-100 56.5t-82.5 87.5
t-45 119l385 172q86 -74 172 -74q74 0 131 56.5t123 201.5l223 533l207 473q88 201 236 313.5t323 112.5q136 0 242 -56z" />
    <glyph glyph-name="uni0284" unicode="&#x284;" horiz-adv-x="1366" 
d="M1343 1403q-27 -1 -52 -1.5t-39 -0.5t-27 1t-18.5 -0.5t-10.5 -1.5t-7 -4.5t-3.5 -7.5t-4 -13.5t-5.5 -18.5l-2 -8l-70 -228l-8 -24l-138 -441h324l-57 -215h-361l-114 -329q-103 -293 -136 -366q-41 -89 -79 -122q-66 -58 -246 -100t-367 -31l121 356q193 -81 340 86
q54 61 109 175t124 331h-313l57 215h299l140 447q1 3 2 9t2 9h2l6 25l49 158l14 43h3q1 3 7 18t9 27q22 64 43 105t52.5 73.5t64.5 49t90.5 26.5t120 12.5t161.5 1.5z" />
    <glyph glyph-name="uni0288" unicode="&#x288;" horiz-adv-x="1171" 
d="M1364 1067h-391l-311 -989q202 0 284 -4l-88 -418l-536 2q-59 0 -85 46.5t-8 111.5q5 21 69 213.5t165.5 491.5t187.5 546h-284l174 248h196q82 224 92 250h301l-77 -250h311v-248z" />
    <glyph glyph-name="uni0289" unicode="&#x289;" horiz-adv-x="1546" 
d="M1542 670l-199 -4l-157 -660h-342l8 19q-119 -72 -320 -72q-155 0 -233.5 49t-96.5 156.5t19 279.5l41 207l-321 -6l266 188l94 2l70 347h268l-64 -338l498 16l101 322h292l-75 -314l108 4zM1010 649l4 10l-473 -8l-6 -39q-13 -69 -18.5 -113.5t1 -76t13.5 -47t36 -23.5
t51 -9t74 -1q207 0 318 307z" />
    <glyph glyph-name="uni028A" unicode="&#x28a;" horiz-adv-x="1822" 
d="M1849 1165q21 0 108.5 3t134 0.5t54.5 -13.5q-46 -180 -63 -240l-64 -55q-96 -11 -141 -18q41 -44 62.5 -99t19 -158.5t-40.5 -244.5q-67 -249 -210.5 -437t-342 -290t-424.5 -102q-169 0 -294.5 59t-193 168t-82 261.5t37.5 340.5q29 105 66 189t79 142t77.5 95t78.5 70
q-129 18 -195 34q14 60 78 291q21 3 50.5 4t54 1t73 -0.5t80.5 -0.5h424q-65 -222 -127 -379q-66 40 -148 -11t-153 -168.5t-111 -266.5q-70 -263 4.5 -419.5t268.5 -156.5t352.5 156.5t228.5 419.5q25 106 14 198.5t-61 162t-127 94.5l-26 45q8 54 65 325h393z" />
    <glyph glyph-name="uni028B" unicode="&#x28b;" horiz-adv-x="1159" 
d="M207 442l196 734h289l-151 -568q-14 -51 -22.5 -88t-9.5 -66t-1 -47.5t12.5 -31.5t21 -19t35 -9.5t44 -4t57.5 -0.5q27 0 44.5 1.5t36 9.5t30.5 18t26.5 32.5t24.5 47t25 68.5t28 89.5t33 116.5q13 47 20.5 76.5t11.5 57t4 42.5t-7 28t-15.5 18t-28.5 8t-39 3t-53 -2
l72 265q89 4 155 -3.5t110 -26t71 -47t37.5 -66.5t10 -85.5t-11.5 -103t-27.5 -119.5t-36.5 -136q-20 -69 -30 -106q-4 -15 -12 -48q-46 -182 -96 -277q-150 -291 -500 -291q-254 0 -340.5 128.5t-13.5 401.5z" />
    <glyph glyph-name="uni028C" unicode="&#x28c;" horiz-adv-x="1712" 
d="M858 1491h569l86 -1757h-352l-102 1192l-107 -21l-807 -1171h-366z" />
    <glyph glyph-name="uni028D" unicode="&#x28d;" horiz-adv-x="2017" 
d="M932 1147h325l123 -270l230 270h336l26 -1170h-299l-37 631l-333 -383h-191l-131 383l-375 -637h-235z" />
    <glyph glyph-name="uni028E" unicode="&#x28e;" horiz-adv-x="1431" 
d="M43 -49l768 1382q63 113 176.5 193.5t244.5 114t255 16.5l217 -29l-74 -397l-162 53q-47 12 -107 3.5t-122 -39t-111 -68.5t-74.5 -85.5t-13.5 -88.5l322 -1055h-328l-250 711l-368 -711h-373z" />
    <glyph glyph-name="uni028F" unicode="&#x28f;" horiz-adv-x="1486" 
d="M592 391l-182 811h264l143 -540l432 540h264l-622 -811l-115 -391h-299z" />
    <glyph glyph-name="uni0290" unicode="&#x290;" horiz-adv-x="1404" 
d="M1528 1180v-211l-807 -666h655l-33 -123h3q-44 -161 -46 -186q-3 -28 -3.5 -35.5t3 -11t9.5 -1t19.5 -2.5t29.5 -18q-10 -83 -25 -147l-71 -55q-94 0 -135.5 59.5t-16.5 161.5h-82v12l-141 -14l14 57h-846l160 297l840 635h-541l68 248h946z" />
    <glyph glyph-name="uni0291" unicode="&#x291;" horiz-adv-x="1501" 
d="M1542 969l-833 -666h170q97 184 210 248t257 24q121 -33 137 -151q14 -112 -66 -242q-81 -131 -208 -195q-80 -40 -162 -42q-65 -206 -115 -396h-316q63 244 115 396h-647l160 352l860 635h-561l67 248h946z" />
    <glyph glyph-name="uni0292" unicode="&#x292;" horiz-adv-x="1419" 
d="M1061 678q154 -46 242 -176t61 -279q-126 -688 -733 -688q-384 0 -590 311l426 285q60 -96 142 -134.5t158 -19.5t140.5 92t93.5 185q15 96 -126.5 143t-370.5 17l74 276q96 72 285.5 207t295.5 221q-336 -3 -743 0l82 303q8 0 484 3t556 -3l41 -45q-6 -63 -13.5 -114.5
t-15.5 -100t-12 -76.5l-27 -43q-166 -143 -450 -364z" />
    <glyph glyph-name="uni0294" unicode="&#x294;" horiz-adv-x="989" 
d="M195 66l133 491q27 97 52 144.5t87 115.5q36 40 94 73.5t105.5 52.5t87.5 49t49 67q33 130 -49 149q-44 10 -74 11t-51 -6t-34 -26t-20.5 -44t-13.5 -66h-229l-41 56q16 59 49 108.5t75 83.5t91.5 59.5t100 40t99 21.5t89 6t69.5 -8q124 -29 170.5 -121t12.5 -240
q-16 -67 -46 -125.5t-66 -98.5t-76 -73t-77 -53.5t-67 -34.5t-48.5 -22t-19.5 -10l-147 -541q-4 -14 -13 -26t-26 -21.5t-32 -16.5t-41 -14.5t-43 -12t-48.5 -11.5t-46.5 -11z" />
    <glyph glyph-name="uni0295" unicode="&#x295;" horiz-adv-x="989" 
d="M436 66l-84 -54q-11 3 -28.5 7.5t-29 8t-28 8t-26.5 8t-24 9.5t-20.5 10.5t-16.5 12t-11.5 14.5t-5 16.5t1.5 18.5q129 492 141 541q1 2 -13.5 10t-37 22t-48 34.5t-48 53.5t-37 73t-13.5 98.5t21 125.5q46 148 142 240t235 121q48 10 107.5 7t122.5 -21t109.5 -55.5
t68 -97t-2.5 -144.5l-69 -56h-230q41 96 18 125.5t-141 5.5q-90 -18 -129 -149q-9 -30 5 -54.5t42 -43.5t58.5 -37.5t60 -46t41.5 -60.5q26 -71 25.5 -117t-25.5 -143z" />
    <glyph glyph-name="uni0298" unicode="&#x298;" horiz-adv-x="1882" 
d="M1460 1790q192 0 335 -67.5t220 -191t92.5 -296.5t-47.5 -383q-54 -187 -110 -322.5t-126.5 -240.5t-150 -171.5t-187 -108.5t-231 -59t-288.5 -16l-101 -380h-436l115 428h28q-153 48 -223 154.5t-67.5 279t73.5 438.5q74 279 236.5 491.5t387.5 328.5t480 116z
M1692 854q79 297 -5 473t-303 176q-220 0 -399 -176t-258 -473q-57 -206 30 -293.5t351 -87.5q262 0 395 87t189 294z" />
    <glyph glyph-name="uni0299" unicode="&#x299;" horiz-adv-x="1316" 
d="M88 2l332 1192h403q197 0 284 -85.5t46 -240.5q-44 -161 -168 -237q91 -42 124 -120t1 -185q-21 -68 -50 -120t-57.5 -86t-74.5 -57.5t-79 -35t-94.5 -17.5t-97.5 -7t-110 -1h-459zM535 721h188q97 0 149.5 31t71.5 98q19 75 -17.5 115.5t-125.5 40.5h-191zM416 276h209
q128 0 176 24t67 95q8 31 -32 76q-36 39 -150 39h-207z" />
    <glyph glyph-name="uni029B" unicode="&#x29b;" horiz-adv-x="1826" 
d="M1370 1282q21 70 41 115t50 80t62 53.5t87 30t115 14t155 0.5l-76 -283q-29 -1 -56 -1.5t-40.5 1t-26 0t-16.5 0t-9 -4t-5 -8t-3 -16t-6 -22.5t-8 -27.5t-8 -27.5q51 -7 78 -12l-27 -216q-146 48 -358 48q-49 0 -78.5 -0.5t-68 -4t-61.5 -9t-52.5 -16.5t-48.5 -26.5
t-42 -38t-39 -52.5t-34.5 -69t-34 -87.5t-31.5 -108.5q-43 -181 21.5 -249.5t275.5 -68.5q141 0 207 37l23 90l-201 37l33 199l512 -59l-21 -232l-110 19l-56 -271q-130 -76 -244.5 -107.5t-246.5 -31.5q-553 0 -449 621q57 335 242 478t531 146q10 31 24 80z" />
    <glyph glyph-name="uni029C" unicode="&#x29c;" horiz-adv-x="1454" 
d="M1178 1249h247l-278 -1249h-344l90 297h-416l-67 -297h-332l366 1249h252l-145 -637h436z" />
    <glyph glyph-name="uni029D" unicode="&#x29d;" horiz-adv-x="1196" 
d="M995 1997h435l-113 -428h-436zM1135 1120l-312 -860h447l-90 -336q-157 -3 -441 13q-37 -104 -65 -170.5t-62 -122t-67 -84.5t-82 -49.5t-104 -26.5t-136 -6q-20 0 -67.5 -1t-75.5 -1.5t-73.5 2.5t-72.5 10.5t-60 23t-48.5 38t-26 58.5t-3.5 82t29 110.5t62 142.5
q35 69 77.5 122t90 87t93.5 56.5t98.5 33t95.5 14.5t94 4h133q110 286 256 860h310zM406 8q-192 52 -295 -9q-60 -36 -60 -89q1 -51 56 -75q25 -11 57 -13q32 0 59 6q109 28 213 172q-5 1 -15 4t-15 4z" />
    <glyph glyph-name="uni029E" unicode="&#x29e;" horiz-adv-x="1366" 
d="M1587 1032q-112 -199 -241.5 -576.5t-211.5 -698.5t-83 -425h-320l277 865l-285 -222l-363 -41l521 482l-525 616h592l182 -342l93 342h364z" />
    <glyph glyph-name="uni029F" unicode="&#x29f;" horiz-adv-x="1259" 
d="M88 0l375 1196h244l-248 -917l567 10l-63 -289h-875z" />
    <glyph glyph-name="uni02A0" unicode="&#x2a0;" horiz-adv-x="1556" 
d="M1376 1368q30 67 55.5 110t61 75t71 46.5t93.5 20t121 2t161 -15.5l-108 -273q-31 2 -58.5 4t-41.5 5t-27.5 3t-17 1.5t-9.5 -3.5t-6.5 -7.5t-5 -15.5t-8.5 -22l-4 -8l-33 -82q-7 -16 -19 -48t-18 -46l-201 -502l-249 -764l155 60l154 49l-117 -369l-643 -172l182 588
q-146 -94 -313 -88q-231 9 -326.5 184.5t-19.5 458.5q74 280 261 450t421 181q108 4 180 -31t123 -117l35 134h71q12 32 21 54.5t16 38t10 23.5l11 29h2q6 12 20 47zM635 336q83 0 138 10t99.5 38t71.5 76.5t45 125.5q39 173 -12 269.5t-178 96.5q-247 0 -353 -366
q-23 -79 -25 -126t21 -75.5t68 -38.5t125 -10z" />
    <glyph glyph-name="uni02A1" unicode="&#x2a1;" horiz-adv-x="989" 
d="M864 1444q124 -29 170.5 -121t12.5 -240q-16 -67 -46 -125.5t-66 -98.5t-76 -73t-77 -53.5t-67 -34.5t-48.5 -22t-19.5 -10q-2 -8 -16 -58t-23 -88h142l-37 -184h-156q-52 -190 -57 -211q-4 -14 -13 -26t-26 -21.5t-32 -16.5t-41 -14.5t-43 -12t-48.5 -11.5t-46.5 -11
l-55 54l73 270h-159l36 184h172q1 4 5.5 17.5t5.5 19.5q27 97 52 144.5t87 115.5q36 40 94 73.5t105.5 52.5t87.5 49t49 67q33 130 -49 149q-44 10 -74 11t-51 -6t-34 -26t-20.5 -44t-13.5 -66h-229l-41 56q16 59 49 108.5t75 83.5t91.5 59.5t100 40t99 21.5t89 6t69.5 -8z
" />
    <glyph glyph-name="uni02A2" unicode="&#x2a2;" horiz-adv-x="989" 
d="M881 336h-160l74 -270l-56 -54q-15 4 -46.5 11t-48.5 11.5t-43 12t-41 14.5t-32 16.5t-26 21.5t-13 26q-5 21 -57 211h-156l-36 184h141q-9 38 -23 88t-16 58q-1 2 -19.5 10t-48.5 22t-67 34.5t-76.5 53.5t-75.5 73t-66 98.5t-46 125.5q-34 148 12 240t170 121
q29 7 69.5 8t89 -6t99 -21.5t100 -40t91.5 -59.5t75 -83.5t49 -108.5l-41 -56h-229q-6 41 -13 66t-20 44t-34 26t-51 6t-74 -11q-83 -19 -50 -149q9 -37 49 -67t87.5 -49t105.5 -52.5t94 -73.5q62 -68 88 -116t52 -144q1 -7 10 -37h172z" />
    <glyph glyph-name="uni02A3" unicode="&#x2a3;" horiz-adv-x="2414" 
d="M2546 1153v-211l-807 -666h450l76 -303h-1192l14 27h-202v90q-150 -131 -332 -137q-251 -7 -343 156t-5 450q49 167 151.5 302.5t241 213.5t285.5 78q190 0 284 -104l203 645h299l-168 -541h1045zM956 594q41 155 3 235t-154 80q-119 0 -213.5 -89t-134.5 -240
q-31 -114 15 -167t179 -53q147 0 207 46t98 188zM1241 276l832 629h-650l-131 -424z" />
    <glyph glyph-name="uni02A4" unicode="&#x2a4;" horiz-adv-x="1576" 
d="M2390 1376l41 -45q-6 -63 -13.5 -114.5t-15.5 -100t-12 -76.5l-27 -43q-166 -143 -450 -364q154 -46 242 -176t61 -279q-126 -688 -733 -688q-384 0 -590 311l426 285q60 -96 142 -134.5t158 -19.5t140.5 92t93.5 185q15 96 -126.5 143t-370.5 17l74 276q96 72 285.5 207
t295.5 221q-164 -2 -534 -2l-185 -590l-118 -481h-289v90q-150 -131 -332 -137q-251 -7 -343 156t-5 450q49 167 151.5 302.5t241 213.5t285.5 78q190 0 284 -104l203 645h299l-98 -318q657 10 819 0zM956 594q41 155 3 235t-154 80q-119 0 -213.5 -89t-134.5 -240
q-31 -114 15 -167t179 -53q147 0 207 46t98 188z" />
    <glyph glyph-name="uni02A5" unicode="&#x2a5;" horiz-adv-x="2541" 
d="M2583 967l-834 -666h170q97 184 210 248t257 24q121 -33 137 -151q14 -112 -66 -242q-81 -131 -208 -195q-80 -40 -162 -42q-65 -206 -115 -396h-315q63 244 115 396h-648l27 57h-266v90q-150 -131 -332 -137q-251 -7 -343 156t-5 450q49 167 151.5 302.5t241 213.5
t285.5 78q190 0 284 -104l203 645h299l-160 -516h1088zM1200 113l84 182l860 635h-712l-140 -449zM956 594q41 155 3 235t-154 80q-119 0 -213.5 -89t-134.5 -240q-31 -114 15 -167t179 -53q147 0 207 46t98 188z" />
    <glyph glyph-name="uni02A6" unicode="&#x2a6;" horiz-adv-x="2039" 
d="M1663 748q200 -64 282.5 -144.5t79.5 -212.5q-4 -118 -51 -202.5t-133 -133.5t-198 -71.5t-259 -22.5q-142 0 -239 28t-203 89l-18 -78h-555q-56 0 -80 46t-6 110q2 11 48.5 108.5t122.5 272.5t138 346h-311l161 247h232q56 185 96 398l283 37l-131 -435h272
q59 81 162 132.5t241 60.5q101 8 263.5 -5t275.5 -34l-141 -262q-47 10 -89.5 20.5t-60.5 15t-50 8.5t-81 7q-140 6 -206.5 -22t-69.5 -95q-3 -68 51 -119.5t174 -88.5zM1464 354q27 -2 61.5 0.5t72.5 9.5t62 25t21 45q-4 31 -56.5 56t-145 56.5t-142.5 57.5
q-174 87 -204 260q-3 9 -3 19h-284l-158 -518q75 -17 114.5 -24t97.5 -4.5t108 23.5l-23 -92l217 193q47 -21 102 -50.5t87 -41.5t73 -15z" />
    <glyph glyph-name="uni02A7" unicode="&#x2a7;" horiz-adv-x="1904" 
d="M1878 1847q132 29 248 2l-12 -317q-66 60 -109 77.5t-100 4.5q-75 -17 -119 -77t-66 -177l-92 -510l-82 -516q-20 -121 -43.5 -221.5t-48.5 -176.5t-54 -136.5t-58.5 -102.5t-63 -73.5t-66 -51.5t-69 -34.5t-71 -23.5t-72.5 -18q-13 -3 -19 -4q-29 -7 -73 -7.5t-101 10
t-110 33t-100 67t-71 106.5l336 254q101 -54 185 -33q71 15 114 83t76 226l96 568l51 270h-98l-6 -186h-391l-189 -518q80 -18 121.5 -24.5t104.5 -4t118 23.5l-102 -360h-596q-60 0 -84 46t-2 110q3 11 56 108.5t140 272.5t160 346h-333l182 247h248q70 201 116 398l306 37
l-158 -435h90l49 185h316q41 213 159 353.5t287 178.5z" />
    <glyph glyph-name="uni02A8" unicode="&#x2a8;" horiz-adv-x="2299" 
d="M2060 700q142 -117 97 -280q-38 -135 -188.5 -257.5t-334.5 -174.5q-60 -286 -94 -408h-340q70 258 105 391q-58 8 -119 29h-191h-475h-121q-60 0 -85.5 46t-6.5 110q3 11 52.5 108.5t131.5 272.5t148 346h-334l174 247h248q67 209 102 398l304 37l-142 -435h312v-59
q220 176 509 176q70 0 142 -15t78 -34l-68 -252q-135 45 -262 45q-141 0 -231.5 -92.5t-145.5 -294.5q-27 -108 -7.5 -182t81.5 -105q4 19 22 89q44 166 162 272t258 106q115 0 219 -84zM1133 883h-224l-168 -518q118 -23 148 -27q23 5 80 22q3 115 39 244q41 153 125 279z
M1712 346q55 22 91 49.5t42 53.5v2q-32 28 -55 28q-18 0 -38.5 -32t-37.5 -91q0 -2 -1 -5t-1 -5z" />
    <glyph glyph-name="uni02A9" unicode="&#x2a9;" horiz-adv-x="1925" 
d="M1577 1180q230 0 311 -127t23 -400l-144 -665h-6q-64 -231 -162 -307q-45 -34 -187.5 -56.5t-272.5 -18.5t-144 36q43 68 131 239h140h16q39 -1 50.5 13.5t33.5 93.5h-8l272 698q45 117 7.5 175.5t-152.5 58.5q-142 0 -231.5 -73t-118.5 -212l-136 -647h-405l319 895
h-133l-219 -883h-385l283 883h-166l78 293h168q81 281 194.5 393.5t315.5 118.5h221l-70 -269h-223q-37 0 -66 -24.5t-47 -64.5t-28 -77.5t-15 -76.5h197l2 6h231v-92q57 31 91.5 46t98 29.5t136.5 14.5z" />
    <glyph glyph-name="uni02AA" unicode="&#x2aa;" horiz-adv-x="1775" 
d="M1395 739q200 -61 282.5 -136.5t79.5 -201.5q-4 -111 -51 -190.5t-133 -126t-198 -67.5t-259 -21h-8h-913l2 4h-136q15 115 103.5 373t226.5 640.5t221 647.5h310q-440 -1105 -459 -1325h315l156 131q47 -19 102 -46.5t87 -39t73 -14.5q23 -3 60.5 0t73.5 9t61 23.5
t22 42.5q-4 29 -56.5 53.5t-145 54t-142.5 54.5q-175 83 -205 246q-30 164 97 290.5t368 143.5q102 7 264.5 -5.5t274.5 -31.5l-142 -248q-48 9 -89.5 19t-59.5 14.5t-50 8.5t-81 6q-140 6 -207 -20.5t-70 -90.5q-3 -63 51.5 -112t174.5 -85z" />
    <glyph glyph-name="uni02AB" unicode="&#x2ab;" horiz-adv-x="1775" 
d="M1915 1178v-211l-807 -666h451l75 -303h-1192l2 2h-383q15 115 103.5 373t226.5 640.5t221 647.5h310q-2 -6 -74.5 -189t-114.5 -292h404v-2h778zM602 295l840 635h-541v2h-258q-106 -290 -155 -469.5t-9 -179.5h117z" />
    <glyph glyph-name="uni02AC" unicode="&#x2ac;" horiz-adv-x="1263" 
d="M459 786l43 721h145l19 -391l206 236h117l80 -236l229 387h185l-402 -717h-207l-51 166l-164 -166h-200zM248 0l43 721h145l19 -391l207 235h116l80 -235l229 387h185l-402 -717h-206l-52 166l-163 -166h-201z" />
    <glyph glyph-name="uni02AD" unicode="&#x2ad;" horiz-adv-x="612" 
d="M948 1087l-114 -425h-254l51 192h-191l-51 -192h-254l113 425h700zM760 387l-115 -426h-254l51 193h-190l-51 -193h-254l112 426h701z" />
    <glyph glyph-name="uni02B0" unicode="&#x2b0;" horiz-adv-x="1607" 
d="M1395 680l-150 -680h-414q237 497 289 669q49 160 0 212q-37 39 -153 39q-78 0 -130.5 -11.5t-101.5 -48.5t-81 -97.5t-63 -166.5t-55 -248t-49 -348h-432l600 1694h297l-200 -609q85 53 156.5 73t168.5 20q100 0 166 -15t110 -49t60 -93t12 -141t-30 -200z" />
    <glyph glyph-name="uni02B2" unicode="&#x2b2;" horiz-adv-x="880" 
d="M889 1827h434l-113 -428h-436zM-80 -508l125 356q198 -82 348 86q57 63 109 166.5t136 359.5t187 660h310l-365 -1009q-105 -292 -141 -369q-41 -86 -80 -119q-68 -58 -252.5 -100t-376.5 -31z" />
    <glyph glyph-name="uni02B7" unicode="&#x2b7;" horiz-adv-x="1107" 
d="M387 770l41 705h141l21 -381l201 229h114l78 -229l223 376h180l-391 -700h-202l-50 162l-161 -162h-195z" />
    <glyph glyph-name="uni02B9" unicode="&#x2b9;" 
d="M877 1225l-11 -37h-10l-166 -299h-452l272 428l74 270h493z" />
    <glyph glyph-name="uni02BA" unicode="&#x2ba;" 
d="M584 1587h493l-200 -362l-11 -37h-10l-166 -299h-452l272 428z" />
    <glyph glyph-name="uni02BB" unicode="&#x2bb;" horiz-adv-x="663" 
d="M385 1616l10 37h11l165 299h453l-272 -428l-74 -271h-494z" />
    <glyph glyph-name="uni02BC" unicode="&#x2bc;" horiz-adv-x="847" 
d="M737 1167l-485 -73l428 526h321z" />
    <glyph glyph-name="uni02C1" unicode="&#x2c1;" horiz-adv-x="720" 
d="M958 1407q-108 18 -155 18h-4q106 -110 63 -325q-37 -6 -186 -6l-41 45q3 49 -12 92.5t-35.5 68.5t-45.5 55t-34 50q-36 76 43 142.5t223.5 99t294.5 20.5q-19 -40 -62.5 -142.5t-48.5 -117.5z" />
    <glyph glyph-name="circumflex" unicode="&#x2c6;" horiz-adv-x="1150" 
d="M895 1647l66 -152l270 -358h-264l-228 190l-336 -190h-264l463 358l133 152h160z" />
    <glyph glyph-name="caron" unicode="&#x2c7;" horiz-adv-x="1150" 
d="M614 1083l-65 152l-270 358h264l227 -190l336 190h264l-463 -358l-133 -152h-160z" />
    <glyph glyph-name="uni02C8" unicode="&#x2c8;" horiz-adv-x="0" 
d="M311 1585h267l-162 -598h-312z" />
    <glyph glyph-name="uni02CC" unicode="&#x2cc;" horiz-adv-x="528" 
d="M225 272h267l-162 -598h-312z" />
    <glyph glyph-name="uni02D0" unicode="&#x2d0;" horiz-adv-x="753" 
d="M162 1182h792l-548 -570zM150 -51l243 569l549 -569h-792z" />
    <glyph glyph-name="uni02D1" unicode="&#x2d1;" horiz-adv-x="913" 
d="M377 1180h792l-548 -570z" />
    <glyph glyph-name="breve" unicode="&#x2d8;" horiz-adv-x="1144" 
d="M1214 1432l62 2q-53 -192 -213 -299t-369 -107q-87 0 -155 13t-119.5 43t-77.5 76.5t-25.5 115t31.5 156.5h252q-4 -58 33.5 -78.5t142.5 -20.5q120 0 172 20t76 79h190z" />
    <glyph glyph-name="dotaccent" unicode="&#x2d9;" horiz-adv-x="540" 
d="M365 1659h434l-113 -428h-436z" />
    <glyph glyph-name="ring" unicode="&#x2da;" horiz-adv-x="702" 
d="M641 1079q-101 0 -152 74t-22 178q28 103 118 176.5t191 73.5q100 0 151 -73.5t23 -176.5q-28 -105 -118 -178.5t-191 -73.5zM700 1303q38 0 46.5 7.5t19.5 47.5q5 22 -6 37.5t-31 15.5t-38.5 -15.5t-24.5 -37.5q-12 -40 -7.5 -47.5t41.5 -7.5z" />
    <glyph glyph-name="ogonek" unicode="&#x2db;" horiz-adv-x="708" 
d="M272 -244q0 1 8.5 -1t26 -4.5t33.5 -2.5q43 0 166 19q0 -4 -5.5 -45.5t-10 -85t-5.5 -66.5l-73 -66q-205 -3 -304 57.5t-69 174.5q45 160 338 344q106 0 139 -2l6 -96q-236 -174 -250 -226z" />
    <glyph glyph-name="tilde" unicode="&#x2dc;" horiz-adv-x="968" 
d="M455 1130h-170l-41 60q70 207 142 282.5t204 75.5q42 0 74.5 -21t50 -51t31 -60.5t26.5 -51.5t27 -21q13 0 20.5 5.5t13.5 22t11 36.5t16.5 60t26.5 81h145l41 -55q-41 -145 -83 -222t-99.5 -109.5t-147.5 -31.5q-38 0 -69 16.5t-49.5 40.5t-33 52t-23 51.5t-17 39.5
t-16.5 16q-17 0 -27 -6t-16 -24.5t-9 -38.5t-10.5 -63t-17.5 -84z" />
    <glyph glyph-name="hungarumlaut" unicode="&#x2dd;" horiz-adv-x="1226" 
d="M889 1266l-486 -56l428 394h322zM203 1239l-486 -55l428 393h322z" />
    <glyph glyph-name="uni02DE" unicode="&#x2de;" horiz-adv-x="776" 
d="M571 522l254 76l-53 -203q-32 -121 -111.5 -194.5t-177.5 -73.5q-99 0 -138.5 64.5t-10.5 173.5l-133 -23l57 209l309 35q-42 -145 -45 -189q-4 -22 -3 -32.5t3.5 -12.5t9.5 -2q23 0 33 6.5t15 22.5q10 33 8.5 62.5t-17.5 80.5z" />
    <glyph glyph-name="uni02E0" unicode="&#x2e0;" horiz-adv-x="909" 
d="M1149 1368q-41 -41 -51 -47q-139 -104 -248 -193q102 -220 45 -347t-266 -124q-222 1 -221 108q1 111 254 357q-53 95 -142 207q-8 10 -26 47l149 99q23 -45 31 -56q61 -83 117 -176q4 4 84 74t124 106q4 4 13.5 13t20.5 19t26 20zM670 815q61 -1 73.5 50.5t-24.5 142.5
q-151 -153 -84 -186q13 -6 35 -7z" />
    <glyph glyph-name="uni02E1" unicode="&#x2e1;" horiz-adv-x="1038" 
d="M61 0q15 115 103.5 373t226.5 640.5t221 647.5h310q-86 -216 -156 -399.5t-160.5 -434t-126 -397.5t-0.5 -147h238l-41 -283h-615z" />
    <glyph glyph-name="uni02E5" unicode="&#x2e5;" horiz-adv-x="1175" 
d="M1346 1073l-17 -63h-2l-348 -1155h-346l420 1155l-672 2l84 313h948v-2h8z" />
    <glyph glyph-name="uni02E6" unicode="&#x2e6;" horiz-adv-x="1175" 
d="M1421 1323l-100 -330h4l-84 -315h-14l-248 -823h-346l299 823l-641 2l84 313h672l120 330h254z" />
    <glyph glyph-name="uni02E7" unicode="&#x2e7;" horiz-adv-x="1175" 
d="M1167 1323h254l-442 -1468h-346l211 577h-619l84 316h649z" />
    <glyph glyph-name="uni02E8" unicode="&#x2e8;" horiz-adv-x="1175" 
d="M1167 1323h254l-442 -1468h-346l121 329h-594l84 314l624 2z" />
    <glyph glyph-name="uni02E9" unicode="&#x2e9;" horiz-adv-x="1175" 
d="M1737 -143h-8v-2h-949l-84 313l672 2l-420 1155h346l348 -1155h3l16 -64z" />
    <glyph glyph-name="uni02EC" unicode="&#x2ec;" horiz-adv-x="989" 
d="M293 -137l18 157l-71 510h170l92 -428l317 428h172l-364 -510l-78 -157h-256z" />
    <glyph glyph-name="uni02ED" unicode="&#x2ed;" horiz-adv-x="1251" 
d="M428 881l887 53l28 -268l-1097 -41zM305 420l887 53l29 -268l-1098 -41z" />
    <glyph glyph-name="uni02F3" unicode="&#x2f3;" horiz-adv-x="702" 
d="M184 -623q-101 0 -152 74t-22 178q28 103 118 176.5t191 73.5q100 0 151.5 -73.5t23.5 -176.5q-28 -104 -118.5 -178t-191.5 -74zM244 -399q38 0 46 7.5t19 47.5q5 22 -6 37.5t-31 15.5t-38.5 -15.5t-24.5 -37.5q-11 -40 -6.5 -47.5t41.5 -7.5z" />
    <glyph glyph-name="gravecomb" unicode="&#x300;" horiz-adv-x="0" 
d="M-315 1204l-265 338h322l428 -393z" />
    <glyph glyph-name="acutecomb" unicode="&#x301;" horiz-adv-x="0" 
d="M-35 1628h258l-276 -463h-334z" />
    <glyph glyph-name="uni0302" unicode="&#x302;" horiz-adv-x="0" 
d="M-276 1565l65 -152l270 -358h-264l-227 190l-336 -190h-264l463 358l133 152h160z" />
    <glyph glyph-name="tildecomb" unicode="&#x303;" horiz-adv-x="0" 
d="M-514 1130h-170l-41 60q70 207 142 282.5t204 75.5q42 0 74.5 -21t50 -51t31 -60.5t26.5 -51.5t27 -21q13 0 20.5 5.5t13.5 22t11 36.5t16.5 60t26.5 81h145l41 -55q-60 -213 -128.5 -288.5t-200.5 -74.5q-45 1 -80 23t-54 54t-32.5 63.5t-23.5 53.5t-19 22q-17 0 -27 -6
t-16 -24.5t-9 -38.5t-10.5 -63t-17.5 -84z" />
    <glyph glyph-name="uni0304" unicode="&#x304;" horiz-adv-x="0" 
d="M-797 1368l887 53l29 -268l-1098 -41z" />
    <glyph glyph-name="uni0305" unicode="&#x305;" horiz-adv-x="0" 
d="M-803 1759l1174 47l39 -235l-1454 -37z" />
    <glyph glyph-name="uni0306" unicode="&#x306;" horiz-adv-x="0" 
d="M78 1458l61 2q-52 -192 -212 -298.5t-369 -106.5q-87 0 -155 13t-119.5 43t-77.5 76t-25.5 114.5t31.5 156.5h251q-4 -58 33.5 -78t143.5 -20q121 0 172 19.5t75 78.5h191z" />
    <glyph glyph-name="uni0307" unicode="&#x307;" horiz-adv-x="0" 
d="M-180 1712h434l-113 -428h-436z" />
    <glyph glyph-name="uni0308" unicode="&#x308;" horiz-adv-x="0" 
d="M-799 1671h434l-112 -428h-436zM-154 1671h435l-113 -428h-436z" />
    <glyph glyph-name="hookabovecomb" unicode="&#x309;" horiz-adv-x="0" 
d="M-582 1337q16 2 39.5 -2.5t50.5 -17t45.5 -41.5t18.5 -70q0 -55 -100 -121l-41 -28q-9 -6 -17 -11t-12.5 -7t-5.5 -3q0 -2 -6 -7t-12 -9l-5 -4h-37l-24 12q-8 3 -8 14q0 14 9.5 33.5t20.5 28.5q34 30 72 43l59 22q20 7 26.5 16t8.5 25q3 22 -16 41q-15 15 -47 15
q-10 0 -34 -9t-36 -16q-35 -18 -37 -18l29 106q21 4 59 8zM-670 1221q-2 0 0 2v-2z" />
    <glyph glyph-name="uni030A" unicode="&#x30a;" horiz-adv-x="0" 
d="M-61 1079q-101 0 -152.5 74t-22.5 178q28 103 118.5 176.5t191.5 73.5q100 0 151 -73.5t23 -176.5q-28 -105 -118 -178.5t-191 -73.5zM-2 1303q38 0 46 7.5t19 47.5q5 22 -5.5 37.5t-30.5 15.5t-39 -15.5t-25 -37.5q-11 -40 -6.5 -47.5t41.5 -7.5z" />
    <glyph glyph-name="uni030B" unicode="&#x30b;" horiz-adv-x="0" 
d="M-78 1229l-485 -55l428 393h321zM-764 1202l-485 -55l428 393h321z" />
    <glyph glyph-name="uni030C" unicode="&#x30c;" horiz-adv-x="0" 
d="M-477 1098l-66 151l-270 359h264l227 -191l336 191h265l-463 -359l-133 -151h-160z" />
    <glyph glyph-name="uni030F" unicode="&#x30f;" horiz-adv-x="0" 
d="M-1149 1229l-264 338h321l428 -393zM-463 1202l-264 338h321l429 -393z" />
    <glyph glyph-name="uni0312" unicode="&#x312;" horiz-adv-x="0" 
d="M-203 1217l-200 362h493l74 -270l272 -428h-452l-166 299h-11z" />
    <glyph glyph-name="uni0313" unicode="&#x313;" horiz-adv-x="0" 
d="M203 1188l-10 -37h-11l-166 -299h-452l272 428l74 270h493z" />
    <glyph glyph-name="uni0314" unicode="&#x314;" horiz-adv-x="0" 
d="M-866 1188l-201 362h494l73 -270l273 -428h-453l-166 299h-10z" />
    <glyph glyph-name="uni0318" unicode="&#x318;" horiz-adv-x="0" 
d="M-352 -39h231l-139 -524h-232l41 155h-190l57 215h191z" />
    <glyph glyph-name="uni0319" unicode="&#x319;" horiz-adv-x="0" 
d="M0 -408h-190l40 -155h-231l-139 524h231l41 -154h191z" />
    <glyph glyph-name="uni031A" unicode="&#x31a;" horiz-adv-x="0" 
d="M301 1618v-2l-119 -508h-286l81 311l-600 19l68 245z" />
    <glyph glyph-name="uni031B" unicode="&#x31b;" horiz-adv-x="0" 
d="M-129 819l-41 187q46 25 79.5 41t48 22.5t22.5 11.5q17 12 29 40.5t28 88.5q3 23 1 38.5t-15 90.5l225 -28q5 -69 -8 -117q-22 -84 -70 -158.5t-107 -117.5q-8 -5 -27 -18t-27.5 -18.5t-28.5 -16t-46 -21.5t-63 -25z" />
    <glyph glyph-name="uni031C" unicode="&#x31c;" horiz-adv-x="0" 
d="M-264 -575q-126 -27 -195.5 49t-38.5 196q33 119 144.5 195t220.5 49l-45 -164q-104 0 -119 -53q-11 -43 -7 -49q5 -7 51 -6h46z" />
    <glyph glyph-name="uni031D" unicode="&#x31d;" horiz-adv-x="0" 
d="M-164 123l154 -41v-232l-525 140v231l156 -41v191l215 -58v-190z" />
    <glyph glyph-name="uni031E" unicode="&#x31e;" horiz-adv-x="0" 
d="M-260 -156v-231l-156 41v-191l-215 58v190l-153 41v232z" />
    <glyph glyph-name="uni031F" unicode="&#x31f;" horiz-adv-x="0" 
d="M-236 -354l-28 -105l-146 2l-41 -153h-114l41 153l-168 2l28 103h168l43 159h115l-43 -161h145z" />
    <glyph glyph-name="uni0320" unicode="&#x320;" horiz-adv-x="0" 
d="M-1139 -293l887 53l29 -268l-1098 -41z" />
    <glyph glyph-name="dotbelowcomb" unicode="&#x323;" horiz-adv-x="0" 
d="M-530 156h434l-113 -428h-436z" />
    <glyph glyph-name="uni0324" unicode="&#x324;" horiz-adv-x="0" 
d="M-1239 31h434l-113 -428h-436zM-594 31h434l-112 -428h-437z" />
    <glyph glyph-name="uni0325" unicode="&#x325;" horiz-adv-x="0" 
d="M-510 -592q-101 0 -152 74t-22 178q28 103 118 176.5t191 73.5q100 0 151 -73.5t23 -176.5q-28 -105 -118 -178.5t-191 -73.5zM-451 -369q38 0 46.5 8t19.5 48q5 22 -6 37.5t-31 15.5t-38.5 -15.5t-24.5 -37.5q-12 -40 -7.5 -48t41.5 -8z" />
    <glyph glyph-name="uni0326" unicode="&#x326;" horiz-adv-x="0" 
d="M-125 -35l-10 -37h-10l-166 -299h-453l272 428l74 271h494z" />
    <glyph glyph-name="uni0327" unicode="&#x327;" horiz-adv-x="0" 
d="M-659 -293l210 348h187l-105 -164h-16q120 0 166 -57.5t18 -161.5q-78 -288 -327 -288q-23 0 -83 -1t-108 -1l109 229q65 -15 81.5 -17t61.5 -2q15 0 34 4.5t41 23.5t23 50q0 25 -18.5 42.5t-60.5 17.5q-48 0 -213 -23z" />
    <glyph glyph-name="uni0328" unicode="&#x328;" horiz-adv-x="0" 
d="M-436 -244q0 1 8.5 -1t25.5 -4.5t33 -2.5q43 0 166 19q0 -2 -5 -45t-9.5 -86t-5.5 -66l-74 -66q-205 -3 -304 57.5t-69 174.5q45 160 338 344q106 0 139 -2l7 -96q-236 -174 -250 -226z" />
    <glyph glyph-name="uni0329" unicode="&#x329;" horiz-adv-x="0" 
d="M-403 -96h266l-162 -598h-311z" />
    <glyph glyph-name="uni032A" unicode="&#x32a;" horiz-adv-x="0" 
d="M-119 -39l-114 -426h-254l51 193h-191l-51 -193h-254l113 426h700z" />
    <glyph glyph-name="uni032C" unicode="&#x32c;" horiz-adv-x="0" 
d="M-899 -473l-66 151l-270 359h264l228 -191l335 191h265l-463 -359l-133 -151h-160z" />
    <glyph glyph-name="uni032D" unicode="&#x32d;" horiz-adv-x="0" 
d="M-463 -184l66 -152l270 -358h-264l-227 190l-336 -190h-265l463 358l133 152h160z" />
    <glyph glyph-name="uni0330" unicode="&#x330;" horiz-adv-x="0" 
d="M-944 -477h-170l-41 59q70 207 142 283t204 76q42 0 74.5 -21t50 -51.5t31 -60.5t26.5 -51t27 -21q13 0 20.5 5.5t13.5 22t11 36.5t16.5 60t26.5 81h145l41 -56q-41 -145 -83 -221.5t-99 -109t-147 -31.5q-45 1 -80 23t-54 53.5t-32.5 63t-23.5 53.5t-19 22q-17 0 -27 -6
t-16 -24t-9 -38t-10.5 -63t-17.5 -84z" />
    <glyph glyph-name="uni0331" unicode="&#x331;" horiz-adv-x="0" 
d="M-987 -76l704 39l23 -196l-873 -31z" />
    <glyph glyph-name="uni0332" unicode="&#x332;" horiz-adv-x="0" 
d="M-969 -166l746 47l24 -235l-923 -37z" />
    <glyph glyph-name="uni0334" unicode="&#x334;" horiz-adv-x="0" 
d="M-670 553h-170l-41 59q70 207 142 283t204 76q42 0 74.5 -21t50 -51t31 -60.5t26.5 -51.5t27 -21q13 0 20.5 5.5t13.5 22t11 36.5t16.5 60t26.5 81h146l41 -56q-60 -212 -129 -288t-201 -74q-45 1 -80 23t-54 53.5t-32.5 63t-23.5 53.5t-19 22q-17 0 -27 -6t-16 -24
t-9 -38t-10.5 -63t-17.5 -84z" />
    <glyph glyph-name="uni0339" unicode="&#x339;" horiz-adv-x="0" 
d="M-254 -575l-57 217h49q42 -1 47.5 5t-4.5 42q-1 5 -2 8q-15 53 -119 53l-45 164q109 27 220.5 -49t144.5 -195q31 -120 -38.5 -196t-195.5 -49z" />
    <glyph glyph-name="uni033A" unicode="&#x33a;" horiz-adv-x="0" 
d="M-371 -45l115 -426h-700l-113 426h254l51 -193h191l-52 193h254z" />
    <glyph glyph-name="uni033B" unicode="&#x33b;" horiz-adv-x="0" 
d="M-772 29h672l-160 -592h-670zM-612 -170l-50 -188h242l49 188h-241z" />
    <glyph glyph-name="uni033C" unicode="&#x33c;" horiz-adv-x="0" 
d="M-299 45q83 0 114 -56.5t5 -156.5l-56 -207l-145 -18l51 215q4 20 0 31.5t-12 11.5q-10 0 -21 -11t-53 -63l-55 -180h-102q-1 -2 -4.5 -5t-4.5 -5q4 8 4 10h-45l52 199q1 5 4 14t4 14q-16 45 -39 45q-19 0 -25 9t-4 20l-112 -305l-140 16l82 232q41 103 102.5 147.5
t163.5 44.5q66 0 101 -41q64 39 135 39z" />
    <glyph glyph-name="uni033D" unicode="&#x33d;" horiz-adv-x="0" 
d="M221 1540l-203 -203l107 -229h-156l-51 129l-129 -129h-158l250 229l-80 203h121l53 -115l127 115h119z" />
    <glyph glyph-name="uni0342" unicode="&#x342;" horiz-adv-x="0" 
d="M-514 1130h-170l-41 60q70 207 142 282.5t204 75.5q42 0 74.5 -21t50 -51t31 -60.5t26.5 -51.5t27 -21q13 0 20.5 5.5t13.5 22t11 36.5t16.5 60t26.5 81h145l41 -55q-60 -213 -128.5 -288.5t-200.5 -74.5q-45 1 -80 23t-54 54t-32.5 63.5t-23.5 53.5t-19 22q-17 0 -27 -6
t-16 -24.5t-9 -38.5t-10.5 -63t-17.5 -84z" />
    <glyph glyph-name="uni0343" unicode="&#x343;" horiz-adv-x="0" 
d="M-586 1747q113 2 181 -60t45 -145q-23 -77 -110.5 -125t-217.5 -55l33 125q18 7 108 41q-28 8 -96 8z" />
    <glyph glyph-name="uni0344" unicode="&#x344;" horiz-adv-x="0" 
d="M-145 2200h258l-277 -463h-334zM-918 1657h435l-113 -428h-436zM-272 1657h434l-113 -428h-436z" />
    <glyph glyph-name="uni0346" unicode="&#x346;" horiz-adv-x="0" 
d="M332 1640l-115 -426h-254l51 193h-190l-51 -193h-254l112 426h701z" />
    <glyph glyph-name="uni0347" unicode="&#x347;" horiz-adv-x="0" 
d="M-1071 -43l887 53l28 -268l-1097 -41zM-1194 -504l887 53l28 -268l-1097 -41z" />
    <glyph glyph-name="uni0348" unicode="&#x348;" horiz-adv-x="0" 
d="M-365 41h267l-162 -598h-311zM-872 39h266l-162 -598h-311z" />
    <glyph glyph-name="uni0349" unicode="&#x349;" horiz-adv-x="0" 
d="M-172 -156l-2 -4h2l-115 -514h-344l72 258l-346 -10l80 301z" />
    <glyph glyph-name="uni034A" unicode="&#x34a;" horiz-adv-x="0" 
d="M10 1581l41 -55q-41 -145 -83 -222t-99.5 -109.5t-147.5 -31.5q-88 0 -145 97l-47 -154l-207 -199l90 256h-149l-41 60q68 204 139 280.5t199 77.5l32 90l150 121l-78 -250q25 -24 46 -67t35.5 -71t31.5 -28q13 0 20.5 5.5t13.5 22t11 36.5t16.5 60t26.5 81h145z
M-514 1372q-11 -7 -16.5 -25t-12.5 -59z" />
    <glyph glyph-name="uni034B" unicode="&#x34b;" horiz-adv-x="0" 
d="M-455 1911h326l-84 -322h-328zM-686 1130h-170l-41 60q70 207 142 282.5t204 75.5q42 0 74.5 -21t50 -51t31 -60.5t26.5 -51.5t27 -21q13 0 20.5 5.5t13.5 22t11 36.5t16.5 60t26.5 81h145l41 -55q-60 -213 -128.5 -288.5t-200.5 -74.5q-45 1 -80 23t-54 54t-32.5 63.5
t-23.5 53.5t-19 22q-17 0 -27 -6t-16 -24.5t-9 -38.5t-10.5 -63t-17.5 -84zM-764 1128h326l-84 -321h-328z" />
    <glyph glyph-name="uni034C" unicode="&#x34c;" horiz-adv-x="0" 
d="M170 1731q-44 -156 -90 -224l33 -47q-53 -185 -112.5 -250.5t-174.5 -64.5q-48 1 -83 30t-49.5 63.5t-27.5 63.5t-22 29q-16 0 -24.5 -5t-14 -21t-8 -33t-9 -54.5t-14.5 -72.5h-149l-35 51q55 161 102 223l-35 51q60 178 122 243t175 65q45 0 77 -27.5t45.5 -60.5
t28.5 -60.5t29 -27.5q12 0 18 4.5t11.5 19t9.5 31.5t14 51.5t23 69.5h125zM-127 1329q5 0 9.5 1.5t7.5 3t6 6t5 8.5t4.5 12.5t4.5 15.5t5.5 20t6.5 23h-35q-47 1 -82 30t-49 63.5t-27 63t-22 28.5q-25 0 -32.5 -15t-15.5 -63q-1 -4 -1 -6.5t-0.5 -6t-1.5 -6.5q12 2 35 2
q37 0 65 -18.5t44 -45t27.5 -53t22.5 -45t23 -18.5z" />
    <glyph glyph-name="uni034D" unicode="&#x34d;" horiz-adv-x="0" 
d="M-63 -338l-183 -211v107l-145 -39v110l145 39v107zM-846 -236v-106l146 39v-111l-146 -39v-106l-182 113z" />
    </font>
</defs>
</svg>
